<svg xmlns="http://www.w3.org/2000/svg" viewBox="0 0 460 300"><defs><clipPath id="A"><path d="M0 118.9h460V300H0z" fill="none"/></clipPath></defs><path d="M65.8 203.5l18.5-35.8-36.04.4-22.77 35.4h40.3zM0 299.5l26.06.5 15.44-32.1H0v31.6zm57.8-40.2h56l6.98-20.56-51.68-2.93-11.3 23.5zm-36-50.1L0 243.12v16.18h45.6l24.1-50.1H21.8zM0 169.76v44.8l27.84-44.8H0zm387.12 98.14H350.4l10.23 32.1h43.4l-16.92-32.1zm-12.96-30.62l-33.48-.1 7.02 22.13h36.54l-10.08-22.02zm-83.88-4.88L282 209.2h-11.8l8.1 50.1h57.9l-6.45-20.3-39.47-6.6zm-157.48 5.07l-7.4 21.83h56.2l3.63-21.4-52.42-.42zM89.5 267.9H53.7L38.2 300h136.42l5.48-32.1H89.5z" fill="#e8ede5"/><path d="M47.68,300l4.12-9.6c3.7-8.6,14.4-15.6,23.7-15.6h77.4c9.4,0,15.8,7.5,14.3,16.8l-1.34,8.4Z" fill="#aadada"/><path d="M338.9,267.9H279.7l5.17,32.1h64.26Zm-146.2-8.6h74.5l-8.1-50.1H201.2Zm75.9,8.6H191.2L185.72,300h88.1Z" fill="#e8ede5"/><path d="M214 300s-2.35-3.36-2.35-5.5V287c0-4.4-3.2-8-7-8s-7.5 3.6-8.1 7.9l-1.88 13.1zm15.6-17.6c-2.6-3.5-1.1-6.5 3.3-6.5h21.4a9.55 9.55 0 0 1 9.2 7.5c.7 4.1-2.5 7.5-6.9 7.5h-12.8a17.82 17.82 0 0 1-12.8-6.5z" fill="#d1cdcc"/><path d="M298,277.6a6.49,6.49,0,0,0-6.7,6.3,8.08,8.08,0,0,0,.1,1.6L294,300h47.18l-4.58-14.9a11.55,11.55,0,0,0-10.3-7.6l-28.3.1Z" fill="#ccd793"/><path d="M364 283.4c-1.3-3.8 1.3-6.9 5.7-6.9h22.7l4.92 13.8H374.4c-4.5 0-9.2-3.1-10.4-6.9zm8.24 16.6s2.66-2.2 4.86-2.2h22.08l2.32 2.2zM149.6 232.6a11.57 11.57 0 0 0-10.4 7.6l-1 3.3c-1.3 4.2 1.3 7.6 5.6 7.6h22.9a10.33 10.33 0 0 0 9.6-7.9l.6-2.9a6.4 6.4 0 0 0-4.6-7.7 11 11 0 0 0-1.8-.2h-20.9z" fill="#d1cdcc"/><path d="M11.6,248.9h23a14.64,14.64,0,0,0,11.7-7.1l9.2-17.5c2.1-3.9.1-7.1-4.3-7.1h-.1a15,15,0,0,0-11.8,7.1L37,228.6a14.66,14.66,0,0,1-11.8,7.1H21.7a19.34,19.34,0,0,0-13.1,6.2l-.6.8c-2.8,3.4-1.5,6.2,2.9,6.2Z" fill="#ccd793"/><path d="M27.6,276.7c-1.28.26-27.6.1-27.6.1v22.7H16.1Z" fill="#d1cdcc"/><path d="M247.8 217.3c2.2 0 4.5 3.6 5 7.9l2.2 17.5a6.9 6.9 0 0 1-5.8 7.9 4.87 4.87 0 0 1-1.2.1h-11.7c-4.4 0-8-3.1-8-6.9s3.5-6.9 7.8-6.9a8.05 8.05 0 0 0 7.8-8v-3.6c-.1-4.4 1.7-8 3.9-8z" fill="#ead0be"/><path d="M51 186.8c-3.7 0-8 2.2-9.4 4.9s.8 4.9 4.9 4.9 8.4-2.2 9.4-4.9-1.1-4.9-4.9-4.9z" fill="#ccd793"/><g clip-path="url(#A)" fill="none" stroke-linejoin="round"><path d="M-8.6,151.1h119L75.3,221.3H199.5l5.2-33.4h88.6l8.5,33.4h82.3l32,67.8H460" stroke="#777" stroke-width="38"/><path d="M0,151.1H110.4L75.3,221.3H199.5l5.2-33.4h88.6l8.5,33.4h82.3l32,67.8H460" stroke="#fff" stroke-width="25"/><path d="M0,151.1H110.4L75.3,221.3H199.5l5.2-33.4h88.6l8.5,33.4h82.3l32,67.8H460" stroke="#777" stroke-width="19"/><g stroke="#fff" stroke-linecap="round" stroke-width="2"><path d="M13.7,150.6H95.5" stroke-dasharray="14.859999656677246,14.859999656677246"/><path d="M102.9,150.6h7.5l-3.3,6.7"/><path d="M101.4,168.6,81.5,208.3" stroke-dasharray="12.6899995803833,12.6899995803833"/><path d="M78.7,214l-3.4,6.7h7.5"/><path d="M98.4,220.7h85.8" stroke-dasharray="15.600000381469727,15.600000381469727"/><path d="M192,220.7h7.5l1.2-7.4m2.9-18.5,1.1-7.4h7.5"/><path d="M226.9,187.4h51.5" stroke-dasharray="14.710000038146973,14.710000038146973"/><path d="M285.8,187.4h7.5l1.8,7.2m4.8,18.9,1.9,7.2h7.5"/><path d="M322.8,220.7h47.1" stroke-dasharray="13.460000038146973,13.460000038146973"/><path d="M376.6,220.7h7.5l3.2,6.8"/><path d="M392.4,238.4l17.9,38" stroke-dasharray="12,12"/><path d="M412.9,281.8l3.2,6.8h7.5"/><path d="M440.5,288.6h14.3" stroke-dasharray="16.93000030517578,16.93000030517578"/></g></g><path d="M75,124.6a16.1,16.1,0,0,1,0-32.2V86.6h-.3a21.45,21.45,0,0,0-21,21.9c0,16.6,21.4,41.1,21.4,41.1l-.1-.12Z" fill="#f67f14"/><path d="M75,86.6v5.8a16.1,16.1,0,0,1,0,32.2v24.88l.1.12s21.4-24.1,21.4-41.1a2.77,2.77,0,0,1,.1-.9A21.45,21.45,0,0,0,75,86.6Z" fill="#464646"/><path d="M414.9 243.7a16.09 16.09 0 0 0 16.1 16.1v-32.2a16.09 16.09 0 0 0-16.1 16.1z" fill="#fff"/><path d="M414.9 243.7a16.09 16.09 0 0 1 16.1-16.1v-5.3a21.42 21.42 0 0 0-21.4 21.4c0 16.6 21.4 41.1 21.4 41.1v-25a16.09 16.09 0 0 1-16.1-16.1z" fill="#00a651"/><path d="M431 222.3v5.3a16.1 16.1 0 1 1 0 32.2v24.9s21.35-23.95 21.4-41a21.36 21.36 0 0 0-21.4-21.4zm-272-65.5v5.8a16.12 16.12 0 0 1 16.1 16.1 16.09 16.09 0 0 1-16.1 16.1v24.88l.1.12s21.4-24.1 21.4-41.1a2.77 2.77 0 0 1 .1-.9 21.38 21.38 0 0 0-21.6-21z" fill="#464646"/><path d="M142.9 178.7a16.07 16.07 0 0 1 16-16.1h.1v-5.8h-.3a21.45 21.45 0 0 0-21 21.9c0 16.07 19.8 39.25 21.3 41v-24.9a16.09 16.09 0 0 1-16.1-16.1z" fill="#30b8bb"/><path d="M321 177.1a16.07 16.07 0 0 1 16-16.1v-5.3a21.43 21.43 0 0 0-21.35 21.4c0 16.28 20.32 39.85 21.35 41v-24.9a16.15 16.15 0 0 1-16-16.09z" fill="#ffba14"/><path d="M337 155.7v5.3a16.1 16.1 0 0 1 .1 32.2h-.1v24.95l.05.06s21.4-24.1 21.4-41.1A21.36 21.36 0 0 0 337 155.7z" fill="#464646"/><path d="M336.9 161l-.3 5.6c-1 .9-4.1 3.8-4.1 5.6a3.84 3.84 0 0 0 1.5 3l-.4 3.6h-2.4l-.3-2.2a2.58 2.58 0 0 0 1-1.9c0-1.2-2-3.1-2.6-3.7l-.2-4.9-.2 4.9c-.7.6-2.6 2.5-2.6 3.7a2.28 2.28 0 0 0 1 1.9l-.3 2.2h-.7v2.1h.7v8.2h20.1V181h.7v-2.1h-.8l-.3-2.2a2.58 2.58 0 0 0 1-1.9c0-1.2-2-3.1-2.6-3.7l-.2-4.9-.2 4.9c-.7.6-2.6 2.5-2.6 3.7a2.28 2.28 0 0 0 1 1.9l-.3 2.2h-2.4l-.4-3.6a3.56 3.56 0 0 0 1.5-3c0-1.8-3-4.7-4.1-5.6l-.3-5.6h-.2v-.1zm1.7 21.2v5.6h-3.3v-5.6a1.61 1.61 0 0 1 1.7-1.6 1.58 1.58 0 0 1 1.6 1.56z" fill="#ffba14"/><path d="M338.6,182.2v5.6H337v1.4h10.1V181h.7v-2.1H347l-.3-2.2a2.58,2.58,0,0,0,1-1.9c0-1.2-2-3.1-2.6-3.7l-.2-4.9-.2,4.9c-.7.6-2.6,2.5-2.6,3.7a2.28,2.28,0,0,0,1,1.9l-.3,2.2h-2.4l-.4-3.6a3.56,3.56,0,0,0,1.5-3c0-1.8-3-4.7-4.1-5.6l-.3-5.6H337v19.6a1.4,1.4,0,0,1,1.6,1.5Z" opacity=".7" fill="#464646"/><path d="M31.3 287.5a5.13 5.13 0 0 1-1.3 3.4 5.72 5.72 0 0 1-4.4 1.7 5.46 5.46 0 0 1-4.4-1.7 5.09 5.09 0 0 1 0-6.8 5.8 5.8 0 0 1 4.5-1.7 5.73 5.73 0 0 1 4.3 1.7 4.67 4.67 0 0 1 1.3 3.4zm-3.5 0a2.27 2.27 0 0 0-.6-1.6 1.91 1.91 0 0 0-1.6-.6 2.14 2.14 0 0 0-1.7.8 2.26 2.26 0 0 0 0 2.9 2.14 2.14 0 0 0 1.7.8 2.38 2.38 0 0 0 2.2-2.3zm16.3 0a4.67 4.67 0 0 1-1.3 3.4 5.72 5.72 0 0 1-4.4 1.7 5.46 5.46 0 0 1-4.4-1.7 4.91 4.91 0 0 1-1.3-3.5 5.07 5.07 0 0 1 1.3-3.3 5.8 5.8 0 0 1 4.5-1.7 5.73 5.73 0 0 1 4.3 1.7 4.67 4.67 0 0 1 1.3 3.4zm-3.5 0a2 2 0 0 0-.7-1.6 1.91 1.91 0 0 0-1.6-.6 2.14 2.14 0 0 0-1.7.8 2.26 2.26 0 0 0 0 2.9 2.14 2.14 0 0 0 1.7.8 2.27 2.27 0 0 0 1.6-.6 2.7 2.7 0 0 0 .7-1.7zm28.5 4.7h-3.4v-1.1a2.84 2.84 0 0 1-1 .9 4.55 4.55 0 0 1-2 .5 4.72 4.72 0 0 1-3.2-1.2 5.25 5.25 0 0 1-.2-7.5l.2-.2a4.65 4.65 0 0 1 3.1-1.2 4.06 4.06 0 0 1 1.9.4 4.37 4.37 0 0 1 1.1.8v-.9H69l.1 9.5zm-3.3-4.7a2 2 0 0 0-.6-1.5 2.2 2.2 0 0 0-1.5-.6 2.46 2.46 0 0 0-1.7.8 2.2 2.2 0 0 0 1.7 3.6 2.36 2.36 0 0 0 2.1-2.3zm37 4.7h-3.4v-1.1a2.84 2.84 0 0 1-1 .9 4.55 4.55 0 0 1-2 .5 4.72 4.72 0 0 1-3.2-1.2 5.25 5.25 0 0 1-.2-7.5l.2-.2a4.47 4.47 0 0 1 3.1-1.2 4.06 4.06 0 0 1 1.9.4 4.37 4.37 0 0 1 1.1.8v-.9h3.4l.1 9.5zm-3.3-4.7a2 2 0 0 0-.6-1.5 2.2 2.2 0 0 0-1.5-.6 2.46 2.46 0 0 0-1.7.8 2.2 2.2 0 0 0 1.7 3.6 2.45 2.45 0 0 0 1.6-.6 4.06 4.06 0 0 0 .5-1.7z" fill="#a0a0a0"/><path d="M437.4,248.7l-2.6-4.7h1.1l-2.9-5.4h1l-3.5-6.2-3.4,6.2h1l-3,5.4h1.2l-2.6,4.7h6.1v2h1.5v-2Zm-14.2-.9v-1.6h1.2l.8-1.6h-1.1l2.2-4-1.7-2.9h.8l-2.9-5.3-2.9,5.3h.9l-2.5,4.5h1l-2.2,4h5.1v1.6Z" fill="#00a651"/><path d="M442.1,242.2h1l-2.5-4.5h.8l-2.9-5.3-2.9,5.3h.8l-1.6,2.9,2.2,4h-1.2l.9,1.6h1.2v1.6h1.3v-1.6h5.1Z" fill="#8bc751"/><path d="M431.3,250.7v-2h6.1l-2.6-4.7h1.1l-2.9-5.4h1l-3.5-6.2v18.3Z" fill="#464646" opacity=".7"/><path d="M83.2,101.1H85l-9.7-6.3-3.7,2.3v-.7h.2V95.2H68.7v1.2H69v2.4L65.5,101h1.8v9.1h-.8v1.1h.8v10H83.2v-10H84v-1.1h-.8v-9ZM79,102.6h2.2v2.2H79Zm0,2.9h2.2v2.2H79Zm-3-2.9h2.2v2.2H76Zm0,2.9h2.2v2.2H76Zm-3.6-2.9h2.2v2.2H72.4Zm0,2.9h2.2v2.2H72.4Zm-3-2.9h2.2v2.2H69.4Zm0,2.9h2.2v2.2H69.4Zm3.8,14.4H69.8V114a1.37,1.37,0,0,1,1.4-1.4h.5a1.37,1.37,0,0,1,1.4,1.4Zm4.5-2.2H75.5v-2.2h2.2Zm0-2.9H75.5v-2.2h2.2Zm3.1,2.9H78.6v-2.2h2.2Zm0-2.9H78.6v-2.2h2.2Z" fill="#f67f14"/><path d="M152 186.8a34.71 34.71 0 0 1 2.1-3.7l.4-.8a9.59 9.59 0 0 0 3.4 1l.3.3h.6v-14.3a3.19 3.19 0 0 1 1.4.3 3.19 3.19 0 0 0-1.4-.3v-4.4h-.7l-.3.3a9.69 9.69 0 0 0-4.9 2h-.4l-.9.9v.4a9.69 9.69 0 0 0-2 4.9l-.3.3v1.3l.3.3a8.23 8.23 0 0 0 1.3 3.7 7.63 7.63 0 0 0 .8 1.1v.4l.9.9h.4c.3.2.5.4.8.6l-2.1 3.6-.8 1.3h-3.1l-1.2 1.7h12.2v-1.8zm2.8-5l1.6-2.8a.76.76 0 0 0 .4.2l-1.1 3c-.3-.1-.6-.3-.9-.4zm3.4-5.8c.1 0 .2.1.4.1v3.2a3.19 3.19 0 0 1-1.4-.3zm-1.3 2.9l-.4-.1c.4-.6.7-1.3 1.1-1.9zm1.3-6.2l-1.1-3a7 7 0 0 1 1.4-.3l.1 3.2a.76.76 0 0 0-.4.1zm-.2 0c-.1.1-.2.1-.3.2l-2-2.4a5.39 5.39 0 0 1 1.3-.7zm-.5.3c-.1.1-.2.2-.2.3l-2.7-1.6a4.36 4.36 0 0 1 .9-1.1zm-.4.6c0 .1-.1.2-.1.3l-3.1-.6a7.84 7.84 0 0 1 .5-1.4zm-.1.6v.4l-3.1.5a2.2 2.2 0 0 1-.1-.8 1.7 1.7 0 0 1 .1-.7zm0 .6c0 .1.1.2.1.3l-2.7 1.6a5.78 5.78 0 0 1-.5-1.4zm.2.5c.1.1.1.2.2.3l-2 2.4a10.63 10.63 0 0 1-.9-1.1zm-.5 1.7l-.8 1.4-.2-.2zm2 5.5h-.5l-.2.2a6.47 6.47 0 0 1-2-.4l1.1-3a4.15 4.15 0 0 0 1.6.3zm-.8-16.5l.2.1h.5v3a4.37 4.37 0 0 0-1.6.3l-1.1-3a6.47 6.47 0 0 1 2-.4zm-2.2.5l1.1 2.9a10 10 0 0 0-1.4.8l-2-2.4a7.55 7.55 0 0 1 2.3-1.3zm-3.6 2.5h.3l.9-.9 1.9 2.3a10.59 10.59 0 0 0-1 1.2l-2.8-1.6a8.65 8.65 0 0 1 .7-1zm-.7 1.2l2.7 1.6a4.42 4.42 0 0 0-.5 1.5l-3.1-.6a10.52 10.52 0 0 1 .9-2.5zm-1.1 3.3a.75.75 0 0 1 .1-.5l3.1.6a4.3 4.3 0 0 0 0 1.6l-3.1.6a.75.75 0 0 0-.1-.5l.2-.2v-1.3zm.1 2.4l3.1-.6a8.8 8.8 0 0 0 .5 1.5l-2.8 1.6a18.29 18.29 0 0 1-.8-2.5zm2 3.8h-.3a3.59 3.59 0 0 1-.7-1l2.8-1.6a5.8 5.8 0 0 0 1 1.2l-1.9 2.3zm1 1.2l2.1-2.5.3.2-1.6 2.8a2.18 2.18 0 0 1-.8-.5z" fill="#30b8bb"/><path d="M169.7 186.9h-3.1l-2.4-4.1a3.51 3.51 0 0 0-.5-.8c.3-.2.5-.4.8-.6h.4l.9-.9v-.5a9.69 9.69 0 0 0 2-4.9l.3-.3v-1.3l-.3-.2a9.69 9.69 0 0 0-2-4.9v-.4l-.9-.9-.4.1a7.19 7.19 0 0 0-2.7-1.5 8.73 8.73 0 0 0-2.2-.5l-.2-.3h-.6v1.1h.5l.2-.2c.3 0 .6.1.9.1s.8.3 1.1.4l-1.1 3a4.15 4.15 0 0 0-1.6-.3v.3a3.19 3.19 0 0 1 1.4.3l-1 3c-.1 0-.2-.1-.4-.1v11.1h.7l.2-.3c.3 0 .6-.1.8-.1a11.42 11.42 0 0 0 2.6-.9l2.7 4.5h-7v1.8h12zm-4.4-7.1l-.3-.1-.9.9-1.9-2.3a5.8 5.8 0 0 0 1-1.2l2.8 1.6c-.2.4-.5.7-.7 1.1zm-4.5-2.8l1 1.2-.2.2c-.3-.5-.5-1-.8-1.4zm.1 1.8l-.4.1-.7-2c.4.6.7 1.2 1.1 1.9zm-.9-3.2c.1-.1.2-.2.2-.3l2.7 1.6a5.24 5.24 0 0 1-1 1.1zm3.5-2.2l-3.1.5c0-.1-.1-.2-.1-.3l2.7-1.6a5.78 5.78 0 0 1 .5 1.4zm-3.1 1.4l3.1.5a7.84 7.84 0 0 1-.5 1.4l-2.7-1.6a.37.37 0 0 0 .1-.3zm.2-.3v-.4l3.1-.6v1.5zm-.4-1.1c-.1-.1-.1-.2-.2-.3l2-2.4a3.33 3.33 0 0 1 .9 1.1zm5.9 5l-2.7-1.6a4.42 4.42 0 0 0 .5-1.5l3.1.6a10.52 10.52 0 0 1-.9 2.5zm1.1-3.3a.75.75 0 0 1-.1.5l-3.1-.6a4.3 4.3 0 0 0 0-1.6l3.1-.6a4.33 4.33 0 0 0 .1.5l-.2.2v1.3zm-.1-2.4l-3.2.6a8.8 8.8 0 0 0-.5-1.5l2.8-1.6a7.5 7.5 0 0 1 .9 2.5zm-2-3.7h.2a6.07 6.07 0 0 1 .7 1l-2.7 1.6a4 4 0 0 0-1-1.2l1.9-2.3zm-3.4-2.6a7.89 7.89 0 0 1 2.3 1.4l-2 2.4a6.38 6.38 0 0 0-1.4-.8zm-1.1 3.3a8.34 8.34 0 0 1 1.2.8l-2 2.4c-.1-.1-.2-.1-.3-.2zm-1.3 6.3l1.1 3a7 7 0 0 1-1.4.3l-.1-3.2a.76.76 0 0 0 .4-.1zm.3 6.8l-.2-.2h-.5v-2.9a4.37 4.37 0 0 0 1.6-.3l1.1 3a17.66 17.66 0 0 1-2 .4zm2.2-.6l-1.1-3a.76.76 0 0 0 .4-.2l1.6 2.8a3.55 3.55 0 0 1-.9.4zm0-3.6l.3-.2 2.1 2.5a2.88 2.88 0 0 1-.7.5z" fill="#464646" opacity=".7"/><path d="M53.6,282.7l-2.5,4.9-2.6-4.9H44.6l4.6,8.2L46,297l1.5-2.7,1.1,2.7h1.2l7.7-14.3Z" fill="#a0a0a0"/><path d="M46,297h2.6l-1.1-2.7Z" fill="#fdbb16"/><path d="M15.6,279a5,5,0,0,0-1.5-.8,8.57,8.57,0,0,0-2.7-.5v3.2a2.87,2.87,0,0,1,1.8.7,3.81,3.81,0,0,1,.9,1.3c0,.1.1.1.1.2l3.5-1.4a6.84,6.84,0,0,0-2.1-2.7Z" fill="#00c12d"/><path d="M11.3 289.6a3.32 3.32 0 0 1-2.5-1 4.6 4.6 0 0 1-1.3-3.3 6.14 6.14 0 0 1 .3-1.9 3.42 3.42 0 0 1 3.3-2.5h.2v-3.2a7.49 7.49 0 0 0-5.8 2.4 7.51 7.51 0 0 0-1.8 5.2 7.16 7.16 0 0 0 1.5 4.7 6.73 6.73 0 0 0 5.9 2.6 8.11 8.11 0 0 0 4.1-1.1l-1.9-2.7a2.63 2.63 0 0 1-2 .8z" fill="#a0a0a0"/><path d="M15.4,291.5a6.81,6.81,0,0,0,2.6-3.4,9.47,9.47,0,0,0,.5-3.7l-4.2,2.8a3.29,3.29,0,0,1-.7,1.6" fill="#00b8c5"/><path d="M14.1,284.4H11.2v2.8h3l4.3-2.8Z" fill="#fdbb16"/><path d="M104.8,287.2v-4.5h3.4" fill="#00b8c5"/><path d="M104.8,284.3v-1.6h1.4" fill="#fdbb16"/><path d="M114.3,283.6a4.72,4.72,0,0,0-3.2-1.2,3.51,3.51,0,0,0-2,.5,2.84,2.84,0,0,0-1,.9v-1.1l-3.4,4.5V297h3.4v-5.7a4,4,0,0,0,3,1.2,4.65,4.65,0,0,0,3.1-1.2,5.25,5.25,0,0,0,.2-7.5.35.35,0,0,1-.1-.2Zm-2.3,5.3a2.31,2.31,0,0,1-3.1.3,2.14,2.14,0,0,1-.8-1.7,2.22,2.22,0,0,1,2.2-2.2,2.46,2.46,0,0,1,1.7.8,2.21,2.21,0,0,1,0,2.8Z" fill="#a0a0a0"/><path d="M79.3,285.8v4.6H76v-1.5l3.3-3.1" fill="#fdbb16"/><path d="M76,290.4v2.5h3.3v-2.5Z" fill="#00c12d"/><path d="M85.2,278.8l-2.4,8.7-2.5-8.7H76v10.1l3.3-3.1,1.8,7.1h3.3l2-7.1,3.1-3v-4Z" fill="#a0a0a0"/><path d="M86.4,285.8v7.1h3.1V282.8Z" fill="#00b8c5"/><path d="M-1-1H459V299H-1Z" fill="#fff" opacity=".26"/></svg>