<svg id="bbf4d1b4-d7ec-4b09-9c52-667186949012" data-name="Layer 1" xmlns="http://www.w3.org/2000/svg" width ="300px" height="300px" viewBox="0 0 295.17 295.17"><title>direction-start</title><circle cx="147.59" cy="147.59" r="144.09" fill="#fec830" stroke="#000" stroke-miterlimit="10" stroke-width="7"/><path d="M144.69,49.23A78.41,78.41,0,0,0,79.64,162,77.13,77.13,0,0,0,91,179.19c.57.69,12.69,16.45,26.91,35,15.47,20.22,26.21,34.09,26.77,34.59a7.58,7.58,0,0,0,10.58,0c.56-.5,11.3-14.37,26.77-34.59,14.21-18.56,26.33-34.32,26.91-35A77.47,77.47,0,0,0,220.36,162,78.41,78.41,0,0,0,144.69,49.23Zm10.73,27.63a40.22,40.22,0,0,1,13.37,4,43.11,43.11,0,0,1,23.61,30.55c.55,2.58.6,3.22.62,8.14,0,5.93-.22,7.67-1.56,12.33a43.32,43.32,0,0,1-25.12,27.86,40.8,40.8,0,0,1-13.16,3.09,42.12,42.12,0,0,1-19.52-3.09,43.27,43.27,0,0,1-25.12-27.86c-1.34-4.66-1.56-6.4-1.56-12.33,0-4.92.07-5.56.62-8.14a43.57,43.57,0,0,1,18.72-27.84,47.62,47.62,0,0,1,14.16-6A46.5,46.5,0,0,1,155.42,76.86Z" transform="translate(-2.41 -2.41)"/></svg>