<?xml version="1.0" encoding="utf-8"?>
<!-- Generator: Adobe Illustrator 24.0.2, SVG Export Plug-In . SVG Version: 6.00 Build 0)  -->
<svg version="1.1" id="f0440fc4-a788-4469-8614-830bc5a10486" width ="300px" height="300px"
	 xmlns="http://www.w3.org/2000/svg" xmlns:xlink="http://www.w3.org/1999/xlink" x="0px" y="0px" viewBox="0 0 300 300"
	 style="enable-background:new 0 0 300 300;" xml:space="preserve">
<style type="text/css">
	.st0{display:none;}
	.st1{display:inline;fill:#FFFFFF;}
	.st2{display:inline;fill:#0C0C0C;}
	.st3{display:inline;fill:#1C870A;}
	.st4{fill:#FFFFFF;}
	.st5{fill:#0C0C0C;}
</style>
<g class="st0">
	<circle class="st1" cx="150" cy="150" r="135"/>
	<path class="st2" d="M150,30c32.1,0,62.2,12.5,84.9,35.1S270,117.9,270,150s-12.5,62.2-35.1,84.9C212.2,257.5,182.1,270,150,270
		s-62.2-12.5-84.9-35.1C42.5,212.2,30,182.1,30,150s12.5-62.2,35.1-84.9S117.9,30,150,30 M150,0C67.2,0,0,67.2,0,150
		s67.2,150,150,150s150-67.2,150-150S232.8,0,150,0L150,0z"/>
</g>
<g class="st0">
	<circle class="st1" cx="150" cy="150" r="90.3"/>
	<path class="st3" d="M150,70.7c43.7,0,79.3,35.6,79.3,79.3s-35.6,79.3-79.3,79.3S70.7,193.7,70.7,150S106.3,70.7,150,70.7
		 M150,48.7C94.1,48.7,48.7,94.1,48.7,150S94.1,251.3,150,251.3S251.3,205.9,251.3,150S205.9,48.7,150,48.7L150,48.7z"/>
</g>
<g class="st0">
	<path class="st2" d="M150,105.4c24.6,0,44.6,20,44.6,44.6s-20,44.6-44.6,44.6s-44.6-20-44.6-44.6S125.4,105.4,150,105.4 M150,60.4
		c-49.4,0-89.6,40.2-89.6,89.6s40.2,89.6,89.6,89.6s89.6-40.2,89.6-89.6S199.4,60.4,150,60.4L150,60.4z"/>
</g>
<g>
	<rect x="40" y="40" class="st4" width="220" height="220"/>
	<path class="st5" d="M220,80v140H80V80H220 M300,0H0v300h300V0L300,0z"/>
</g>
</svg>
