<?xml version="1.0" encoding="utf-8"?>
<!-- Generator: Adobe Illustrator 24.0.2, SVG Export Plug-In . SVG Version: 6.00 Build 0)  -->
<svg version="1.1" id="bbf4d1b4-d7ec-4b09-9c52-667186949012" width ="300px" height="300px"
	 xmlns="http://www.w3.org/2000/svg" xmlns:xlink="http://www.w3.org/1999/xlink" x="0px" y="0px" viewBox="0 0 300 300"
	 style="enable-background:new 0 0 300 300;" xml:space="preserve">
<style type="text/css">
	.st0{stroke:#000000;stroke-width:7.1145;stroke-miterlimit:10.1636;}
	.st1{display:none;}
	.st2{fill:#FFFFFF;}
</style>
<title>direction-start</title>
<circle class="st0" cx="150" cy="150" r="146.4"/>
<path class="st1" d="M144.6,47.6c-43.9,3-77.1,41-74.1,84.9c0.7,10.3,3.4,20.4,8,29.7c3,6.3,6.9,12.2,11.5,17.5
	c0.6,0.7,12.9,16.7,27.4,35.6c15.7,20.6,26.6,34.6,27.2,35.2c3,2.9,7.8,2.9,10.8,0c0.6-0.5,11.5-14.6,27.2-35.2
	c14.4-18.9,26.8-34.9,27.4-35.6c4.6-5.3,8.5-11.2,11.6-17.5c19.4-39.5,3.1-87.3-36.4-106.6C172.5,49.4,158.6,46.6,144.6,47.6z
	 M155.5,75.7c4.7,0.6,9.3,1.9,13.6,4.1c12.4,6,21.3,17.5,24,31c0.6,2.6,0.6,3.3,0.6,8.3c0,6-0.2,7.8-1.6,12.5
	c-3.8,12.8-13.2,23.2-25.5,28.3c-4.3,1.8-8.8,2.8-13.4,3.1c-6.8,0.5-13.6-0.5-19.8-3.1c-12.4-5.1-21.8-15.5-25.5-28.3
	c-1.4-4.7-1.6-6.5-1.6-12.5c0-5,0.1-5.7,0.6-8.3c2.3-11.6,9.2-21.8,19-28.3c4.4-2.8,9.3-4.9,14.4-6.1
	C145.3,75.3,150.4,75.1,155.5,75.7z"/>
<circle class="st2" cx="150" cy="150" r="73"/>
</svg>
