<svg id="f0440fc4-a788-4469-8614-830bc5a10486" data-name="Layer 1" xmlns="http://www.w3.org/2000/svg" width ="300px" height="300px" viewBox="0 0 295.17 295.17"><title>direction-end</title><circle cx="147.59" cy="147.59" r="144.09" fill="#fec830" stroke="#000" stroke-miterlimit="10" stroke-width="7"/><path d="M251.45,107.19,169.84,75.52s-6.73-2.86-10.77.83a11.74,11.74,0,0,0-3.59,9v57.27a11.13,11.13,0,0,0,3.41,8.51,8,8,0,0,0,9.29,1.59l83.34-37.67C259.11,112,256.81,109.15,251.45,107.19Z" transform="translate(-2.41 -2.41)" fill-rule="evenodd"/><path d="M116.9,243.43c0,3.57.94,6.31,2.72,8a13.92,13.92,0,0,0,8.1,2.73h1.78a9.94,9.94,0,0,0,7.16-2.73c1.87-.86,2.73-3.58,2.73-6.3V73.62A15.82,15.82,0,0,0,145.69,61c0-8-7.17-15.19-16.19-15.19h-2.75c-9,0-16.19,7.17-16.19,15.19a15.77,15.77,0,0,0,6.31,12.61Z" transform="translate(-2.41 -2.41)" fill-rule="evenodd"/></svg>