<?xml version="1.0" encoding="utf-8"?>
<!-- Generator: Adobe Illustrator 24.0.2, SVG Export Plug-In . SVG Version: 6.00 Build 0)  -->
<svg version="1.1" id="f0440fc4-a788-4469-8614-830bc5a10486" width ="300px" height="300px"
	 xmlns="http://www.w3.org/2000/svg" xmlns:xlink="http://www.w3.org/1999/xlink" x="0px" y="0px" viewBox="0 0 300 300"
	 style="enable-background:new 0 0 300 300;" xml:space="preserve">
<style type="text/css">
	.st0{fill-rule:evenodd;clip-rule:evenodd;fill:#FFFEFD;}
</style>
<title>direction-end</title>
<g>
	<ellipse transform="matrix(0.7071 -0.7071 0.7071 0.7071 -62.1341 150.005)" cx="150" cy="150" rx="144.4" ry="144.4"/>
	<path d="M150,7.6c38,0,73.8,14.8,100.7,41.7c26.9,26.9,41.7,62.7,41.7,100.7s-14.8,73.8-41.7,100.7
		c-26.9,26.9-62.7,41.7-100.7,41.7s-73.8-14.8-100.7-41.7C22.4,223.8,7.6,188.1,7.6,150S22.4,76.2,49.3,49.3
		C76.2,22.4,112,7.6,150,7.6 M150,3.6C69.1,3.6,3.6,69.1,3.6,150S69.1,296.5,150,296.5S296.5,230.9,296.5,150S230.9,3.6,150,3.6
		L150,3.6z"/>
</g>
<path class="st0" d="M249.3,115.4L157,80.8c0,0-24.6-8.9-29.3-8.2c-2.8,2.6,12.9,15.2,13.1,18.9V154c-0.2,3.5-16.8,20.4-14.2,22.8
	c1.5,1.6,3.1,0.1,28.6-11.8l94.3-41.1C257.9,120.6,255.3,117.5,249.3,115.4z"/>
<path class="st0" d="M119.4,240.8c0,3.5,0.9,6.1,2.6,7.8c2.3,1.7,5,2.6,7.9,2.7h1.7c2.6,0.1,5.1-0.9,7-2.7c1.8-0.8,2.7-3.5,2.7-6.1
	V75.8c3.8-2.9,6.1-7.4,6.1-12.3c0-7.8-7-14.8-15.7-14.8h-2.7c-8.7,0-15.7,7-15.7,14.8c0,4.8,2.3,9.4,6.1,12.2L119.4,240.8z"/>
</svg>
