<svg xmlns="http://www.w3.org/2000/svg" viewBox="0 0 116.28 161.62"><defs><radialGradient id="A" cx="100" cy="-1005.41" r="19.27" gradientTransform="matrix(1, 0, 0, -0.24, -42.12, -85.44)" gradientUnits="userSpaceOnUse"><stop offset="0" stop-color="#bcbec0"/><stop offset=".2" stop-color="#bdbfc1" stop-opacity=".98"/><stop offset=".35" stop-color="#c0c2c4" stop-opacity=".94"/><stop offset=".48" stop-color="#c6c8c9" stop-opacity=".85"/><stop offset=".6" stop-color="#cecfd1" stop-opacity=".73"/><stop offset=".71" stop-color="#d8d9da" stop-opacity=".58"/><stop offset=".82" stop-color="#e4e5e6" stop-opacity=".4"/><stop offset=".93" stop-color="#f3f3f4" stop-opacity=".18"/><stop offset="1" stop-color="#fff" stop-opacity="0"/></radialGradient></defs><ellipse cx="57.88" cy="155.53" rx="26.57" ry="6.09" fill="url(#A)"/><path d="M96.2 13.68C81.2.7 61.87.43 58.13.5 54.4.43 35.1.7 20.05 13.7c-5.6 4.84-41 41.4-.07 84.9l18.78 21.7c7.32 8.7 15.64 20.9 16.22 29.08.4 5.62 1.83 6.18 2.75 6.28a3.84 3.84 0 0 0 .83 0c.92-.1 2.36-.66 2.75-6.28.57-8.18 8.9-20.35 16.2-29.08 3.55-4.23 12.06-13.86 18.78-21.7 40.98-43.52 5.5-80.08-.1-84.92z" fill="#12a012" stroke="#fff" stroke-miterlimit="10"/><path d="M58.08 106.07c-26.07 0-47.3-22.16-47.3-49.4s21.2-49.43 47.3-49.43 47.3 22.2 47.3 49.42-21.22 49.4-47.3 49.4zm0-93.75c-23.4 0-42.42 19.9-42.42 44.34S34.66 101 58.08 101s42.43-19.9 42.43-44.33-19.03-44.35-42.43-44.35zm-6.82 69.13a6.48 6.48 0 0 1 1.93-4.8 7.6 7.6 0 0 1 5.29-2.59 6.68 6.68 0 0 1 5 2.17 7.31 7.31 0 0 1 2.07 5.28 7.48 7.48 0 0 1-2 5.26 6.46 6.46 0 0 1-5 2.13 6.91 6.91 0 0 1-5.27-2.23 7.43 7.43 0 0 1-2.02-5.22zm9.35-13.33c-.86.06-2.43 0-4.7 0L52.4 51.6c-1.23-6.46-2.06-11.14-2.43-14.14a40 40 0 0 1-.31-4.09 14.36 14.36 0 0 1 .24-1.6 5.45 5.45 0 0 1 1.88-4 8.33 8.33 0 0 1 4.6-1.51 17.44 17.44 0 0 1 2.13-.25 9 9 0 0 1 5.7 1.8 6.07 6.07 0 0 1 2.32 5.1 87.06 87.06 0 0 1-1 10.32l-2.66 14.43a76.7 76.7 0 0 1-2.27 10.5z" fill="#fff"/></svg>