<svg xmlns="http://www.w3.org/2000/svg" viewBox="0 0 116.3 161.6"><radialGradient id="A" cx="100" cy="-1005.413" r="19.27" gradientTransform="matrix(1 0 0 -0.24 -42.1 -85.44)" gradientUnits="userSpaceOnUse"><stop offset="0" stop-color="#bcbec0"/><stop offset=".2" stop-color="#bdbfc1" stop-opacity=".98"/><stop offset=".35" stop-color="#c0c2c4" stop-opacity=".94"/><stop offset=".48" stop-color="#c6c8c9" stop-opacity=".85"/><stop offset=".6" stop-color="#cecfd1" stop-opacity=".73"/><stop offset=".71" stop-color="#d8d9da" stop-opacity=".58"/><stop offset=".82" stop-color="#e4e5e6" stop-opacity=".4"/><stop offset=".93" stop-color="#f3f3f4" stop-opacity=".18"/><stop offset="1" stop-color="#fff" stop-opacity="0"/></radialGradient><ellipse cx="57.9" cy="155.5" rx="26.6" ry="6.1" fill="url(#A)"/><path d="M96.2 13.7C81.2.7 61.9.5 58.1.5 54.4.4 35.1.7 20 13.7c-5.6 4.8-41 41.4-.1 84.9l18.8 21.7c7.3 8.7 15.6 20.9 16.2 29.1.4 5.6 1.8 6.2 2.8 6.3h.8c.9-.1 2.4-.7 2.8-6.3.6-8.2 8.9-20.4 16.2-29.1 3.5-4.2 12.1-13.9 18.8-21.7 41-43.5 5.5-80.1-.1-84.9z" fill="#d62027" stroke="#fff" stroke-miterlimit="10"/><path d="M58.1 106.1c-26.1 0-47.3-22.2-47.3-49.4S32 7.2 58.1 7.2s47.3 22.2 47.3 49.4-21.2 49.5-47.3 49.5zm0-93.8c-23.4 0-42.4 19.9-42.4 44.3s19 44.3 42.4 44.3 42.4-19.9 42.4-44.3-19-44.3-42.4-44.3zm-6.8 69.1c0-1.8.6-3.5 1.9-4.8 1.3-1.5 3.3-2.5 5.3-2.6 1.9 0 3.7.8 5 2.2 1.4 1.4 2.1 3.3 2.1 5.3 0 1.9-.7 3.8-2 5.3-1.3 1.4-3.1 2.2-5 2.1-2 .1-3.9-.8-5.3-2.2-1.3-1.4-2.1-3.3-2-5.3zm9.3-13.3c-.9.1-2.4 0-4.7 0l-3.5-16.5-2.5-14.1a28.28 28.28 0 0 1-.3-4.1c0-.5.1-1.1.2-1.6 0-1.5.7-3 1.9-4 1.4-.9 3-1.5 4.6-1.5l2.2-.3c2-.1 4.1.6 5.7 1.8s2.4 3.1 2.3 5.1c-.1 3.5-.5 6.9-1 10.3l-2.7 14.4c-.4 3.6-1.2 7.1-2.2 10.5z" fill="#fff"/></svg>