<?xml version="1.0" encoding="utf-8"?>
<!-- Generator: Adobe Illustrator 24.0.2, SVG Export Plug-In . SVG Version: 6.00 Build 0)  -->
<svg version="1.1" id="Layer_1" width="116.3" height="161.6" xmlns="http://www.w3.org/2000/svg" xmlns:xlink="http://www.w3.org/1999/xlink" x="0px" y="0px"
	 viewBox="0 0 116.3 161.6" style="enable-background:new 0 0 116.3 161.6;" xml:space="preserve">
<style type="text/css">
	.st0{fill:#1C870A;}
	.st1{opacity:0.81;fill:#FFFFFF;enable-background:new    ;}
</style>
<path class="st0" d="M96.2,13.7c-15-13-34.3-13.2-38.1-13.2c-3.7-0.1-23,0.2-38.1,13.2c-5.6,4.8-41,41.4-0.1,84.9l18.8,21.7
	c7.3,8.7,15.6,20.9,16.2,29.1c0.4,5.6,1.8,6.2,2.8,6.3h0.8c0.9-0.1,2.4-0.7,2.8-6.3c0.6-8.2,8.9-20.4,16.2-29.1
	c3.5-4.2,12.1-13.9,18.8-21.7C137.3,55.1,101.8,18.5,96.2,13.7z M58.1,85.8c-15.4,0-27.9-13.1-27.9-29.1s12.5-29.2,27.9-29.2
	S86,40.6,86,56.6C86,72.7,73.5,85.8,58.1,85.8z"/>
<path class="st1" d="M58.1,85.8c-15.4,0-27.9-13.1-27.9-29.1s12.5-29.2,27.9-29.2S86,40.6,86,56.6S73.5,85.8,58.1,85.8z"/>
</svg>
