<svg xmlns="http://www.w3.org/2000/svg" xmlns:xlink="http://www.w3.org/1999/xlink" viewBox="0 0 30 36" xmlns:v="https://vecta.io/nano"><image width="30" height="36" xlink:href="E1C40D.png" overflow="visible" opacity=".18"/><circle cx="12.5" cy="12.4" r="8" fill="#fff"/><g fill="#1c870a"><path d="M13.3 1.4C7 1.1 1.6 6.1 1.4 12.4c-.2 5.1 2.9 9.7 7.7 11.3l3.1 6.7 3.3-6.4c6.1-1.5 9.9-7.7 8.4-13.9-1.2-4.9-5.5-8.5-10.6-8.7zm6.9 11.8c-.2 4.1-3.7 7.3-7.8 7.1s-7.3-3.7-7.1-7.8S9 5.3 13.1 5.4c4.1.2 7.3 3.7 7.1 7.8z"/><circle cx="12.8" cy="12.9" r="3.5"/><use xlink:href="#D"/><circle cx="12.5" cy="12.4" r="3.5"/></g><g opacity=".38"><radialGradient id="A" cx="12.517" cy="22.596" r="13.086" gradientTransform="matrix(1,0,0,-1,0,38)" gradientUnits="userSpaceOnUse"><stop offset="0" stop-color="#fff" stop-opacity="0"/><stop offset=".11" stop-color="#ebebeb" stop-opacity=".13"/><stop offset=".51" stop-color="#a4a4a4" stop-opacity=".6"/><stop offset=".82" stop-color="#787878" stop-opacity=".9"/><stop offset="1" stop-color="#686867"/></radialGradient><use xlink:href="#D" fill="url(#A)"/><radialGradient id="B" cx="12.515" cy="25.638" r="3.501" gradientTransform="matrix(1 0 0 -1 -2.059409e-04 37.993)" gradientUnits="userSpaceOnUse"><stop offset="0" stop-color="#fff" stop-opacity="0"/><stop offset=".11" stop-color="#ebebeb" stop-opacity=".13"/><stop offset=".51" stop-color="#a4a4a4" stop-opacity=".6"/><stop offset=".82" stop-color="#787878" stop-opacity=".9"/><stop offset="1" stop-color="#686867"/></radialGradient><circle cx="12.5" cy="12.4" r="3.5" fill="url(#B)"/></g><defs ><path id="D" d="M13 .9C6.7.6 1.3 5.5 1 11.8c-.2 5.1 3 9.8 7.8 11.4 1.1 2.4 3.2 6.7 3.2 6.7l3.3-6.4c6.1-1.5 9.9-7.8 8.4-13.9C22.4 4.7 18.1 1.1 13 .9zm7 11.8c-.2 4.1-3.7 7.3-7.8 7.1S4.9 16.1 5.1 12s3.7-7.3 7.8-7.1 7.3 3.7 7.1 7.8z"/></defs></svg>