<svg xmlns="http://www.w3.org/2000/svg" viewBox="0 0 399 399"><path d="M199.5 400.9c-14.7 0-28.8-5.8-39.2-16.2l-144-144c-21.7-21.7-21.7-56.8 0-78.5l144-144c21.7-21.6 56.8-21.6 78.5 0l144 144c21.7 21.7 21.7 56.8 0 78.5l-144 144c-10.5 10.4-24.6 16.3-39.3 16.2zm-25.1-30.3c13.9 13.8 36.3 13.8 50.2 0l144-144a35.43 35.43 0 0 0 0-50.2l-144-144c-13.9-13.8-36.3-13.8-50.2 0l-144 144a35.43 35.43 0 0 0 0 50.2l144 144z" fill="#333"/><path d="M382.8 162.2l-144-144C228.4 7.8 214.2 2 199.5 2v20a35.42 35.42 0 0 1 25.1 10.4l144 144a35.43 35.43 0 0 1 0 50.2l-144 144c-6.6 6.7-15.7 10.4-25.1 10.4v20c14.7 0 28.8-5.8 39.2-16.2l144-144c21.7-21.7 21.7-56.9.1-78.6z" fill="#1a1a1a"/><path d="M167.3 377.6l-144-144c-17.8-17.8-17.8-46.6 0-64.3l144-144c17.8-17.8 46.6-17.8 64.3 0l144 144c17.8 17.8 17.8 46.6 0 64.3l-144 144c-17.7 17.8-46.5 17.8-64.3 0 0 .1 0 .1 0 0z" fill="#fcdd49"/><path d="M375.7 169.3l-144-144c-8.5-8.6-20.1-13.4-32.2-13.3v379c12.1 0 23.6-4.8 32.2-13.3l144-144c17.7-17.8 17.8-46.6 0-64.4z" fill="#ffc31a"/><path d="M296 178.5h-94V83.4h-46v236.1h46v-95h94z" fill="#333"/><path d="M202 178.5V83.4h-2.5v236.1h2.5v-95h94v-46z" fill="#1a1a1a"/></svg>