<svg xmlns="http://www.w3.org/2000/svg" xmlns:xlink="http://www.w3.org/1999/xlink" viewBox="0 0 357 110"><linearGradient id="A" gradientUnits="userSpaceOnUse" x1="-2.14" y1="55" x2="354.86" y2="55"><stop offset=".02" stop-color="#f5f5f5"/><stop offset=".579" stop-color="#acdff7"/><stop offset="1" stop-color="#f5f5f5"/></linearGradient><path d="M0 0h357v110H0z" fill="url(#A)"/><g fill="#fff"><path d="M209 96.7l-33.6-58.8 43.7 5.8 51.4 60.1z"/><path d="M145.2 105.2L141.9 44l33.5-6.1 36 58.7-65.1 8.6z"/><path d="M85.4 97.1l30.9-59.2 27.6 6.1 1.3 61.2z"/></g><path d="M209.6 95.9l58.4 6.6-49.4-57.8-42.7-5.9zm-122.5.4l58.1 7.9-2.3-59.3-27-6.1z" opacity=".198" fill="#c9c9c9"/><linearGradient id="B" gradientUnits="userSpaceOnUse" x1="85.45" y1="101.105" x2="145.23" y2="101.105"><stop offset="0"/><stop offset="1"/></linearGradient><path d="M85.4 97.1l6.9 3.2 52.9 4.9-59.8-8.1z" opacity=".3" fill="url(#B)"/><defs><path id="C" d="M1 1h1L1 2z"/><path id="D" d="M-1-1h-1l1-1z"/></defs><clipPath id="E"><use xlink:href="#C"/></clipPath><clipPath id="F" clip-path="url(#E)"><use xlink:href="#D"/></clipPath><g clip-path="url(#F)"><linearGradient id="G" gradientUnits="userSpaceOnUse" x1="145.29" y1="105.155" x2="145.31" y2="105.155"><stop offset="0"/><stop offset="1"/></linearGradient><path d="M145.3 105.2z" fill="url(#G)"/></g><linearGradient id="H" gradientUnits="userSpaceOnUse" x1="147.29" y1="100.925" x2="268.58" y2="100.925"><stop offset="0"/><stop offset="1"/></linearGradient><path d="M209.6 96.8l-62.3 8.2 63.8-4.1c23.9-1.3 57.5 2.9 57.5 2.9s-.3-.2-.8-.4l-58.2-6.6z" opacity=".3" fill="url(#H)"/><g opacity=".4" fill-rule="evenodd" fill="#be8fe2"><path d="M120.2 49.8c-.1-.6-2.8 0-4.2-.3-.2.2-.6.2-.6.4.3.8 4.8.5 4.8-.1zm2.1 1.8a6.42 6.42 0 0 0 1.3 1c-.9 0-1.5.2-1.6.6.3.2.9.2 1.2.3-.4.3-1.4.2-1.4.7 2.1 0 5.2-.1 6.3-.8-.3-.2-.3-.5 0-.8l-1.4-.3c.1-.5-.5-.8-1-1.1.5-.1.1-.3.3-.5-.5 0-.6-.1-.7-.3h-1.5c-.2.3-.8.4-.5.8-.4.2-.7.3-1 .4zm-4.2 1.6c.4.5 2.2.2 2.4-.2.3 0 .7 0 1-.2 0-.3 0-.5-.2-.8-1-.1-2.1.1-3 .6.2 0 .1.2.3.2-.2.1-.5.2-.5.4zm81 10.5c1.1-.1.9-.9.2-1.3-1.8-.1-1.3 1.1-.2 1.3zm6.4 3.8c-1-.1-.9.2-1.3.3l-.3-.3c1.5.1.6-1-.7-.8-.3 0-.1.3-.3.3-.3 0-.5-.1-.8-.3.8 0 .9-.3.9-.6-.3-.1-.7-.1-1-.3-.3-.4-.3-.5-.2-.8-.6-.3-1.2-.4-1.9-.6a.9.9 0 0 0 .1.5c-.3.1-.7.1-.8.2.5.6 1.7.9 1.5 1.6 1.3.5 2.9 1.1 2.1 2 .8.1 1.8.1 2.1.6h.8c.1-.5 0-1.2-.2-1.8zm.7 3.6c-.1-.3-.4-.4-.8-.6-1.4.2-2.7.2-4.1.1.5-.3.8-1 .7-1.6a12.2 12.2 0 0 1-1.7-.7c-1.9.3-1.7 1.6-3.3 2.1-.6 0-1.1.1-1.7.3.1.5.2 1 1 1 .2.4 0 .7.2 1.1.6.2 1.2.3 1.9.5.5 0 .3-.2.6-.3.3.2.7.3 1.1.3.7-.2 1.1-.6.8-1.3.5-.1.9-.5.9-1 .3 0 .6.1.9.1-.3.2-.4.6-1.1.6l.2.6 1 .4c-.5.2.1 1 .3 1.3 1.5.1.7-.8 1.1-1.2a1.38 1.38 0 0 1 .4.3h1.5c.2-.4-1-.6-.9-1.3.3-.1.9 0 .7-.3-.1-.5-1.1-.4-1.6-.6.6.3 1.2.3 1.9.2zm7 .6c.1.2.3.5-.1.5-.6-.1-.9-.5-1.3-.8-1.4-.1-1.2.4-2.3.3 1 .3 1.3 1.2 2.2 1.6 1.2-.2 2.4.2 3.3.9-.3.1-.9 0-1.2.1.3.6 1.6.3 2.5.3.7.2 1.5.2 2.3.2.4 0 0-.3.6-.3 1.8.2 3.2 1.3 5.1.8.4-.9-1.9-.7-2.3-1.4h2.7c-.1-.4.2-.6.2-1-.6-.2-.5-1-1.4-1s-.2.7-.3 1c-2.3 1.2-4.4-.9-7.3-.9a3.5 3.5 0 0 0-2.7-.3zm-13.4 2.9c.9 0 1.4.2 2.4.2.2-.2.2-.5-.1-.7h-.1c-1.5-.2-2.9-.2-4.4-.1-1 0-2.3-.4-1.9.4 1.1-.1 1.7.5 2.6.6.6-.1.9-.4 1.5-.4z"/><path d="M224.4 79.7c-.5-.4-.8-.9-1.3-1.3-.4 0-1 0-1.2-.2.4-.4-.1-.8-.6-1.3-.4-.1-.9-.1-1.3-.2 0-.3.5-.3.6-.6-.3-.2-.6-.6-.9-.8-1.1.1-2.3.9-1.1 1.4-.7.1-.1.8-.7 1-.3-.4-1.3-.4-1.8-.7.8-.2.7-.9.1-1.4-.8-.1-.8.1-1.1.2-.9-.2-1.7-.4-2.6-.4.1.5-.3.4-.7.7s-.6.8-1.8.7c-1.2-.6-2.7 0-2.7.6 0-.2-.3-.2-.6-.2-.4.2-.8.5-.6 1-1.6.9-3.2 1.6-4.9 2-.3-.1-.3-.3-.8-.2-.2.3-.2.6-.5.8 0 .2.4.1.5.2-.2.3-1 .3-1.1.5 0 .1.1.2.1.3.1.1.7 0 .8.2.2.4-.4 1 .5 1.2-.2 1-.9 2-.4 3.1 1.4.3 3 .2 4.3-.4 1.6.5 3.1-.6 3.9-1.2 1.5-.2 3-.2 4.4.1.4.6 1 .9 1.3 1.5 1.2.1 1-.4 1-.8.2.7 1.2 1 1 1.7 2.6.7 5.4.7 8-.2-.3-.5-.1-.8-.4-1.2 2.1-.1 1-1.6 3.3-1.6 0-.8.2-1.6.4-2.4-1.3-.7-1.2-2.2-3.1-2.1zm-67.1-4h-1.1c-.1 1.3-2.4 1.5-3.8 2.1.5.3-.1.5-.3 1 .5 0 .9.1 1.3.4a3.53 3.53 0 0 1-1.7 1.5c.2.6.3 1.3 1.5 1.3.6-.2 1.2-.4 1.8-.5 1.1-.8 1.1-2.1 1.8-3.1 1.1-.1 1.5-1.1.7-1.5.3-.2.1-.9-.2-1.2zm83.6 10.2c-.5-.1-1-.2-1.5-.2-.6-.3-1.1-.7-1.6-1.1-1-.1-1.2.2-.9.7.6.1 1.2.4 1.7.8-1.9 0-.1 1.6-1.6 1.7-.7 0-.9-.5-1.7-.4-.3.8-1.8 1-2.2 1.7-1.3.2-2.6.4-3 1 1.3.2 1 .8 1.4 1.3 1.3.2.9-.4 1.4-.6 1.7-.2 1.4-1.2 3.1-1.3-.1-.7 1-.7 2-.9 1.5-.3 2.4-1.2 3.7-1.6-.5-.4-.5-.8-.8-1.1zm-22.8 2.2c.4.6-.5.6-.3 1a2.41 2.41 0 0 1 1 1c1.1-.4 2.4-.7 1.8-1.9-.8-.1-1.7-.1-2.5-.1zm-26.3-17.2c.4.1.9.1 1.4.1-1-.9-.9-2.4-3.1-2.6-.5-.3-.4-.6-1.1-.8.4-.1 0-.7.1-.7 1.2.2 1.6.8 2.6 1 .1.2.1.3.1.4.4.1.9.1 1.3.1.1-.3.8-.4.7-.8.5-.1.9-.1 1.4-.1-.2-.2.1-.2 0-.4-.3-.2-.6-.3-.9-.4.4 0 .6-.1.4-.3-.4-.3-.9-.5-1.4-.6-.3-.6-1.2-.9-1.8-1.3.2-.3.5-.5.9-.5.5 0 .4.4 1 .3.3-.1.1-.2 0-.4.2-.3.9-.3 1-.6 1.3-.3 3.9-.4 3.1-1.4.4-.4 1.1-.7.7-1.2-.3-.2-.9-.1-1.1-.3 0-.4-.9-.3-.8-.8-.6-.3-1.7-.4-2.3-.7 1.1 0 1.3-1-.2-1-.2.1-.1.3-.5.4-.3-.1-.8-.2-1.1-.3.7.1.7-.2.9-.3.4.4 2.6 0 2.4.7h.9c.8.5 1.7.9 2.6 1.2 1-.1.2-.7.1-1.1-2.7-.2-2.9-2 .1-1.8a1.24 1.24 0 0 0 .1-1.7c.6.2 1.1.5 1.5.9.7 0 .8-.1 1-.3-.4-.3-.4-.3-.5-.7-1.5-.3-2-1.1-3.7-1.3-.3 0 0 .3-.2.3-.6-.8-3.1-.2-4.2-.4.6 0 .8-.2.9-.4-1.6-1.4 4.8-.2 5.6-.9.1-.2-.6-.1-.8-.2l1-.3c.3.1.7.2 1.1.2s.2-.2.4-.3c.3.3.3.6-.4.7-.4.9 1.3 1.1 2.5 1.6.8.4 1.6.7 2.4.9.8-.1.3-.6-.2-.8 1.3-.5-.8-.8-1-1.5-.4 0-1 .1-1.1-.1.6-.2 1.3-.3 1.9-.2.3-.4.8-.7 1.3-.9l-.1-.2c-.6-.1-1.5 0-2-.2.4-.1.7-.1 1.1-.1-.7-.7-2.6-.8-3.9-1.3-.4 0-.3.1-.7 0s-.3-.2-.8-.2c-1 .3-2.4-.2-3.4-.1 0 .1.3.3 0 .3 0-.1-.3-.1-.5-.2-2.6.1-4.8-.4-7.7-.3-.5-.5-2.3-.1-3.5-.3-.4 0-.4-.2-.7-.2-1 0-2 .1-2.9.4-1.4 0-2.7-.2-4.2-.2-.2-.2-.5-.3-.8-.3-.4 0-.9 0-1.2.2l-5.3.1c-.2-.3.5-.2.4-.5s-.2-.1-.2-.3c-1-.3-2.1-.3-3 .2-.1-.1-.3-.1-.3-.3-1.2-.3-2.5-.1-3.7.4-.2-.1-.5-.2-.7-.2-1.1.2-2.8.1-3.5.5-.8-.2-1.8.3-2.6-.1-.6.3-2.1-.1-2.7.3-.4.1.6.2.1.3s-.7-.1-1.2-.1c-.3.1-.1.3-.5.3a2.87 2.87 0 0 0-2.4.2c.1-.2-.1-.2-.1-.4-.9 0-1.8.2-2.8.4-.7-.4-1.5-.5-2.3-.4.2.2.7.3.9.5-.4.2-.8.3-1.2.3-.1-.2.7 0 .6-.3s0-.2 0-.3l-5.6-.8c-1.2 0-2.8-.1-3.3.3-.8-.1-1.5-.1-2.3 0v.3c-1.2.2-2.3.7-3.2 1.5 0-.2-.5-.2-1-.2-1.5.3-.8 1.4-.4 1.9 1.1-.1 1.1.3 1.7.4-2 .2-3.9.7-5.7 1.4-.7 0-2-.3-2.2.2s1 .2.6.7l1.5.3c-.3.1-.6.3-.3.5-.5 0-1.1.1-1.6.2-.1-.4-1.9-.3-2.7-.2-.3.3 0 .7.2.9l-1.7.9c-.2.8 2.2.5 2.9.9.6 0 .4-.3 1-.3.4.1.8.1 1.3.1.5-.2 1-.6 1.1-1.1.9-.2 1.6-.6 2.3-1.2.7.5 2.1-.2 2.7.1.1.2-.2.2-.2.3l3.5.8c.2.1 0 .4.1.6.4.1.9 0 1.3-.1-.4-.3 0-.5 0-1-.5-.1-.6-.5-1.6-.4.2-.5-.8-.4-1-.7.1 0 .1-.1.1-.2.9.3 1.8.7 2.7 1.1-.1.3.4.4.6.6 1.4 0 1.7.5 1.8 1.1.6.2 1.2.3 1.8.2-.1-.5.4-.6.3-1-.2-.2-.7-.2-.9-.4.3-.1.4-.2.7-.3-.1.2.6.1.7.2 0 .6.6 1 1.1 1.3a16.95 16.95 0 0 0 4.5 0c-.1.5-.5.9.1 1.3-.1.2-.7.1-.7.3.1 1.4 2.8 2.2 3.7 3.4 1.9.4 2.2 1.6 2.8 2.6a8.3 8.3 0 0 0-2.1-.6c.1-.2.2-.5.1-.7-.1 0-.1-.1-.1-.1-.4-.2-.9-.3-1.3-.4-.4-1.9-2.8-2.8-3.8-4.4-1-.1-1 .2-1.6.3-2.2 0-3.5-.9-5.8-.5-.2.1 0 .5-.4.5-.9.1-.7-.3-1.4-.4-.5 0-.2.3-.8.2-.2-.1 0-.3-.2-.4-.8-.2-1.7-.2-2.6-.1.1-.2-.4-.2-.4-.4.4-.1.8-.6.5-.9-2.1-.2-3.9.3-6.2.1-1 .6-2.5.4-4.3.6-.4.2.2.2 0 .4-.7 0-1.3.1-2 .2-.2.6-.2 1.2-1.5 1.3-1.3 1.1-4 1.4-4.8 2.8 1.1.6-.3 1.9-.8 2.6.9.5 1.1 1.3 2.2 1.7-.3.2-.4.4-.5.7.1.1.4.2.3.3.4 0 .7.1 1.1.1.7 1.3 3.9.2 6.5.5.5-.3 1.1-.4 1.6-.5.3 0 .2.3.8.2s.5-.4 1.2-.4c.3.3.6.5 1 .7.9-.1 1.9 0 2.7.3-.6.2-.2.6 0 .8-.3 0-.5.2-.6.4-.2 1.6.8 2.7 2.6 3.3.1.3.3.6.5.8-.7.9-1.4 1.8-2.2 2.5 1.4 1.2 1.4 2.7 1.4 4.3 0 .8 1 1.3 1.4 2s.4 1.2.9 1.7c2.3.4 4.6.3 6.9-.2 1.6-.9 2.7-2 4.7-2.6-.2-.5.8-.8 0-1 1.8-.7 1.9-2 2.3-3.3 2.6-.4 4-1.3 3.9-2.9-.1-.3-.6-.4-.3-.7-2.5-.7 0-2.5 1.5-2.8.9-1 2.9-1.6 3.8-2.6.3 0 .5 0 .8-.1-.5-1.1 1.9-1.8.4-2.8-1.5.1-4.8 1.2-5 0 .5.1 1.1.1 1.6 0 .1-.5 1.7-.4 2.5-.5.1-.3.4-.4 1.2-.4.1-.3.3-.4.6-.5 1.7.1 1.8-.5 3-.5-.1-.7.6-.8.9-1.4-.1-.3-.8-.2-1.5-.4-1.3-.4-2.2-1.5-3.4-.4-.2 0-.8.1-.8-.1.1-.1.1-.3.1-.5-.5-.3-1.6-.3-2.2-.5 0-.3-.3-.6.2-.7 0 .8 1.9.7 2.5 1.2.5.2 1.5.1 1.6-.2.8.2 1.1.6 1.9.7l4.8-.2c.3.5 1.1.7 2.1.7-.1.2-.8.1-.6.4.2.5 1.8.3 2.5.6.3 1.3 1.9 2.2 3.5 3 0 .3.3.5.3.9.6.2 1.2.3 1.8.4.9-.6.8-1.7.9-2.6 1.3-.5 2.5-1.2 3.5-2.2.5 0 .9-.1 1.4-.1.9.6 2.4 1 2.6 1.9.5.1.5.4 1.1.4s.4-.3 1-.3c.1.7 1.5 1 1.8 1.9-.5.2-.4.3-.2.7 1.1.3 1.6 1 2.6 1.3-.5.7 1.3.6 1.4 1.2-1.4-.4-2.5-1-3.9-1.4-.4-.5-1.1-.7-1.8-.7.1 1.6 3.6 1.9 4.4 3.4 1.1.5 2.2 1.1 3.1 1.9.5 0 1 0 1.5-.1-.2-.8.5-1.5-.5-2.2-.2.9-1.1.6-1.8 0zm14.5-11.8c-.2-.5-1.5-.7-1-1.2-.5-.1-.6-.4-1-.6-.5 0-1 0-1-.2.6-.1 1.2-.1 1.8 0 0-.1-.1-.2 0-.2-.2-.6-2.5-.3-2.4-.9-.4-.1-.8-.1-1.2.1.2.5.5 1 .9 1.4.3.1.6.1.9.2-.3.1.3.3.3.5-.3.1-.3.4-1 .3 0 .1.1.2.1.3-.8.3-2.3.3-2.5.8.5.3.2.6.3.9.7-.1.3.4.9.5.4 0-.3-.4.1-.4s.2.3.7.2c.3-.1-.3-.5 0-.6 1.7.2 1-.5.5-.9.5 0 .5.3 1 .3s.7-.1.5-.4c.9.4 1.3 0 2.1-.1z"/></g><g opacity=".97"><radialGradient id="I" cx="-25.651" cy="-2570.503" r="17.218" fx="-21.713" fy="-2587.264" gradientTransform="matrix(0.6374 -2.155282e-02 0.2513 0.2128 874.1002 620.3926)" gradientUnits="userSpaceOnUse"><stop offset=".142" stop-color="#bebebe"/><stop offset=".966" stop-color="#f4f4f4" stop-opacity=".2"/></radialGradient><path d="M230.6 69.6c0 1.8-8.4 3.2-18.7 3.2s-18.7-1.4-18.7-3.2 8.4-3.2 18.7-3.2 18.7 1.4 18.7 3.2z" fill="url(#I)"/><linearGradient id="J" gradientUnits="userSpaceOnUse" x1="207.336" y1="68.324" x2="216.232" y2="5.023"><stop offset="0" stop-color="#be8fe2"/><stop offset=".45" stop-color="#6a7bca"/></linearGradient><path d="M236.7 28.6c0 16.9-17.8 35.3-22.6 40-.7.6-1.7.6-2.4 0-4.8-4.7-22.6-23-22.6-40 0-13.2 10.7-23.8 23.8-23.8 13.2 0 23.8 10.7 23.8 23.8z" fill="url(#J)"/><linearGradient id="K" gradientUnits="userSpaceOnUse" x1="199.475" y1="42.045" x2="226.345" y2="15.175"><stop offset="0" stop-color="#be8fe2"/><stop offset="1" stop-color="#6a7bca"/></linearGradient><path d="M231.9 28.6c0 10.5-8.5 19-19 19s-19-8.5-19-19 8.5-19 19-19 19 8.5 19 19z" fill="url(#K)"/><radialGradient id="L" cx="213.9" cy="-21.11" r="17.28" gradientTransform="matrix(1 0 0 1 -1 49.72)" gradientUnits="userSpaceOnUse"><stop offset=".71" stop-color="#fff"/><stop offset=".84" stop-color="#fdfdfd"/><stop offset=".89" stop-color="#f6f6f6"/><stop offset=".92" stop-color="#ebebeb"/><stop offset=".95" stop-color="#dadada"/><stop offset=".97" stop-color="#c4c4c4"/><stop offset=".99" stop-color="#a9a9a9"/><stop offset="1" stop-color="#999"/></radialGradient><path d="M230.2 28.6a17.31 17.31 0 0 1-17.3 17.3 17.31 17.31 0 0 1-17.3-17.3 17.24 17.24 0 0 1 17.3-17.3c9.5 0 17.3 7.8 17.3 17.3z" fill="url(#L)"/></g><path d="M209.3 27.4c0-2-1.9 1.8-4.3 1.8s-4.3-3.9-4.3-1.8 1 4.6 4.3 4.6 4.3-2.6 4.3-4.6zm-7.7-3.4l1.5-.3c1.4-.3 2.7-.7 4-1.3 2.1-1.1 1.5 1.8-2.5 2.6s-4-.9-3-1zm15.6 3.4c0-2 1.9 1.8 4.3 1.8s4.3-3.9 4.3-1.8-1 4.6-4.3 4.6-4.3-2.6-4.3-4.6zm7.7-3.4l-1.5-.3c-1.4-.3-2.7-.7-4-1.3-2.1-1.1-1.5 1.8 2.5 2.6s4-.9 3-1z" opacity=".7" fill="#585b55"/><linearGradient id="M" gradientUnits="userSpaceOnUse" x1="334.64" y1="26.628" x2="289.51" y2="26.628"><stop offset="0" stop-color="#e6e7e8"/><stop offset=".16" stop-color="#edeeee"/><stop offset=".61" stop-color="#fafbfb"/><stop offset="1" stop-color="#fff"/></linearGradient><path d="M300.2 20.5c1.7-6.5 8.3-10.4 14.8-8.8a12.26 12.26 0 0 1 8.8 8.8c4.3-.1 8.1 2.4 9.8 6.4 2.3 5.4-.2 11.8-5.6 14.1-1.3.6-2.8.9-4.2.9h-23.6c-5.9 0-10.7-4.8-10.7-10.7s4.8-10.7 10.7-10.7z" opacity=".44" fill="url(#M)" fill-opacity=".58"/><linearGradient id="N" gradientUnits="userSpaceOnUse" x1="285.72" y1="74.132" x2="254.625" y2="74.132"><stop offset="0" stop-color="#e6e7e8"/><stop offset=".16" stop-color="#edeeee"/><stop offset=".61" stop-color="#fafbfb"/><stop offset="1" stop-color="#fff"/></linearGradient><path d="M262 69.9c1.2-4.5 5.8-7.2 10.3-6 3 .8 5.3 3.1 6 6 2.9 0 5.6 1.7 6.8 4.4 1.6 3.8-.1 8.1-3.8 9.7-.9.4-1.9.6-2.9.6H262c-4.1 0-7.4-3.3-7.4-7.3 0-.8.1-1.7.4-2.5 1-2.9 3.8-4.9 7-4.9z" opacity=".26" fill="url(#N)" fill-opacity=".56"/><linearGradient id="O" gradientUnits="userSpaceOnUse" x1="107.88" y1="19.412" x2="76.765" y2="19.412"><stop offset="0" stop-color="#e6e7e8"/><stop offset=".16" stop-color="#edeeee"/><stop offset=".61" stop-color="#fafbfb"/><stop offset="1" stop-color="#fff"/></linearGradient><path d="M84.2 15.2c1.2-4.5 5.8-7.2 10.3-6 3 .8 5.3 3.1 6 6 2.9 0 5.6 1.7 6.8 4.4 1.6 3.8-.1 8.1-3.8 9.7-.9.4-1.9.6-2.9.6H84.1c-4.1 0-7.4-3.3-7.4-7.3 0-.8.1-1.7.4-2.5 1.1-3 3.9-5 7.1-4.9z" opacity=".26" fill="url(#O)"/><linearGradient id="P" gradientUnits="userSpaceOnUse" x1="58.41" y1="73.11" x2="8.36" y2="73.11"><stop offset="0" stop-color="#e6e7e8"/><stop offset=".16" stop-color="#edeeee"/><stop offset=".61" stop-color="#fafbfb"/><stop offset="1" stop-color="#fff"/></linearGradient><path d="M20.3 66.4c1.9-7.2 9.2-11.6 16.5-9.7 4.8 1.2 8.5 5 9.7 9.7 4.7-.1 9 2.7 10.9 7 2.6 6-.2 13-6.2 15.6-1.5.6-3.1 1-4.7 1H20.2c-6.5 0-11.8-5.3-11.8-11.9a11.7 11.7 0 0 1 11.9-11.7z" opacity=".43" fill="url(#P)"/><path d="M212.9 35.9a5.65 5.65 0 0 0-5.3 3.1c-.1.3 0 .6.3.7s.6 0 .7-.3c1.5-2.3 4.5-3.1 6.9-1.6.7.4 1.2 1 1.6 1.6a.55.55 0 0 0 .5.3h.2c.3-.1.4-.4.3-.7-.9-2-3-3.3-5.2-3.1z" opacity=".75" fill="#585b55" stroke="#585b55" stroke-width=".75" stroke-miterlimit="10"/></svg>