<?xml version="1.0" encoding="utf-8"?>
<!-- Generator: Adobe Illustrator 23.0.1, SVG Export Plug-In . SVG Version: 6.00 Build 0)  -->
<svg version="1.1" id="Layer_1" xmlns="http://www.w3.org/2000/svg" xmlns:xlink="http://www.w3.org/1999/xlink" x="0px" y="0px"
	 viewBox="0 0 358 110" style="enable-background:new 0 0 358 110;" xml:space="preserve">
<style type="text/css">
	.st0{fill:url(#SVGID_1_);}
	.st1{opacity:0.17;fill:url(#SVGID_2_);enable-background:new    ;}
	.st2{opacity:0.32;}
	.st3{opacity:0.38;fill:#FFFFFF;enable-background:new    ;}
	.st4{fill:#FFFFFF;}
	.st5{opacity:0.78;fill:#FFFFFF;enable-background:new    ;}
	.st6{opacity:0.8;fill:#FFFFFF;enable-background:new    ;}
	.st7{opacity:0.9;fill:#FFFFFF;enable-background:new    ;}
	.st8{opacity:0.6;fill:#FFFFFF;enable-background:new    ;}
	.st9{opacity:0.92;fill:#FFFFFF;enable-background:new    ;}
	.st10{opacity:0.82;fill:#FFFFFF;enable-background:new    ;}
	.st11{fill:url(#SVGID_3_);}
	.st12{fill:#F9F9F9;}
	.st13{fill:#A0A0A0;}
	.st14{fill:#777777;}
	.st15{fill:#FDBB16;}
	.st16{fill:#00C12D;}
	.st17{fill:#00B8C5;}
</style>
<title>popup-error</title>
<linearGradient id="SVGID_1_" gradientUnits="userSpaceOnUse" x1="-2.15" y1="-25" x2="355.85" y2="-25" gradientTransform="matrix(1 0 0 1 0 80)">
	<stop  offset="2.000000e-02" style="stop-color:#F5E9E4"/>
	<stop  offset="0.54" style="stop-color:#ACDFF7"/>
	<stop  offset="0.63" style="stop-color:#B4E0F5"/>
	<stop  offset="0.79" style="stop-color:#CBE3EF"/>
	<stop  offset="0.98" style="stop-color:#F0E8E5"/>
	<stop  offset="1" style="stop-color:#F5E9E4"/>
</linearGradient>
<path class="st0" d="M0,0h358v110H0V0z"/>
<linearGradient id="SVGID_2_" gradientUnits="userSpaceOnUse" x1="179" y1="-80" x2="179" y2="29.76" gradientTransform="matrix(1 0 0 1 0 80)">
	<stop  offset="0" style="stop-color:#4D69B2"/>
	<stop  offset="0.22" style="stop-color:#3994A7"/>
	<stop  offset="0.54" style="stop-color:#3B95A8"/>
	<stop  offset="0.66" style="stop-color:#4299AC"/>
	<stop  offset="0.74" style="stop-color:#4EA1B3"/>
	<stop  offset="0.81" style="stop-color:#5FABBD"/>
	<stop  offset="0.87" style="stop-color:#75B8CA"/>
	<stop  offset="0.92" style="stop-color:#90C9DB"/>
	<stop  offset="0.97" style="stop-color:#B0DCED"/>
	<stop  offset="1" style="stop-color:#C7EAFB"/>
</linearGradient>
<path class="st1" d="M0,0v103.4c0,3.5,3.5,6.4,7.7,6.4h342.6c4.3,0,7.7-2.8,7.7-6.4V0H0z"/>
<g class="st2">
	<path class="st3" d="M335.7,0.7l-1.1,13.4c0,0.5,0.5,0.9,1,0.9l19.1,0.9V0.7H335.7z"/>
	<path class="st4" d="M349,17.6L334,17c-0.3,0-0.7,0.2-0.7,0.5l-0.9,13.9c0,0.3,0.3,0.6,0.6,0.6c0,0,0,0,0,0l0,0l15,0.7
		c0.3,0,0.7-0.2,0.7-0.5l0.9-13.9C349.7,17.9,349.4,17.7,349,17.6C349,17.7,349,17.7,349,17.6L349,17.6L349,17.6z M332,15.7
		l-26.6-1.2c-0.1,0-0.3,0.1-0.3,0.2l-1.6,24.5c0,0.1,0.1,0.2,0.2,0.2l26.6,1.2c0.1,0,0.2-0.1,0.3-0.2l1.6-24.5
		C332.2,15.8,332.1,15.7,332,15.7L332,15.7L332,15.7L332,15.7z M307.8,50.5c-0.3,0-0.7,0.2-0.7,0.5l-0.9,13.2c0,0.3,0.3,0.6,0.6,0.6
		c0,0,0,0,0,0l0,0l19.8,0.9c0.3,0,0.7-0.2,0.7-0.5l0.9-13.2c0-0.3-0.3-0.6-0.6-0.6c0,0,0,0,0,0l0,0L307.8,50.5z M326.1,80.3
		l0.9-13.2c0-0.3-0.3-0.6-0.6-0.6c0,0,0,0,0,0l0,0l-19.8-0.9c-0.3,0-0.7,0.2-0.7,0.5L305,79.3c0,0.3,0.3,0.6,0.6,0.6c0,0,0,0,0,0
		l0,0l19.8,0.9C325.7,80.8,326,80.6,326.1,80.3L326.1,80.3z M324.7,83.7c0-0.5-0.5-0.9-1-0.9l-20.1-0.9l-0.9,14.3l21.1,1L324.7,83.7
		z M323,98.8c0-0.2-0.1-0.3-0.3-0.3c0,0,0,0,0,0l0,0l-20.4-0.9c-0.2,0-0.3,0.1-0.4,0.3l0,0l-0.6,9.1h21.2L323,98.8z M281.9,15.2
		l-1.4,21.9c0,0.3,0.3,0.6,0.6,0.6c0,0,0,0,0,0l0,0l16.2,0.7c0.3,0,0.7-0.2,0.7-0.5l1.4-21.9c0-0.3-0.3-0.6-0.6-0.6c0,0,0,0,0,0l0,0
		l-16.2-0.7C282.2,14.6,281.9,14.8,281.9,15.2L281.9,15.2z"/>
	<path class="st3" d="M332.2,34.7l-1,15c0,0.3,0.3,0.6,0.6,0.6c0,0,0,0,0,0l0,0l22.8,1V35.2l-21.8-1
		C332.5,34.1,332.2,34.4,332.2,34.7L332.2,34.7z M328.9,50l0.5-7.5c0-0.2-0.2-0.3-0.3-0.3c0,0,0,0,0,0l0,0L303.3,41
		c-0.2,0-0.3,0.1-0.4,0.3l-0.5,7.5c0,0.2,0.1,0.3,0.3,0.3l0,0l25.8,1.2C328.7,50.4,328.9,50.2,328.9,50L328.9,50L328.9,50z"/>
	<path class="st4" d="M279.2,38.4l-0.5,7.9c0,0.1,0.1,0.1,0.1,0.1l21.5,1c0.1,0,0.1,0,0.1-0.1c0,0,0,0,0,0l0,0l0.5-7.9
		c0-0.1-0.1-0.1-0.1-0.1l-21.5-1C279.3,38.3,279.2,38.3,279.2,38.4L279.2,38.4z M332.7,68.2l18.2-0.8l0.9-14.2l-21.4-1l-1.8,13.3
		C328.5,67,330.4,68.3,332.7,68.2L332.7,68.2z"/>
	<path class="st3" d="M327.8,72.9l-0.7,10.3l27.6,1.3v-16l-18.6,0.4C331.5,69,327.9,70.7,327.8,72.9L327.8,72.9z"/>
	<path class="st4" d="M332.7,14.4l1.1-13.6h-50L283,12.1c0,0.4,0.3,0.6,0.7,0.6c0,0,0,0,0,0l0,0L332,15
		C332.3,15,332.6,14.8,332.7,14.4L332.7,14.4z M325.3,97.4l23.6,1.1c0.1,0,0.3-0.1,0.3-0.2l0.8-12.9c0-0.1-0.1-0.3-0.3-0.3L326.2,84
		c-0.1,0-0.3,0.1-0.3,0.2l-0.8,12.9C325.1,97.3,325.2,97.4,325.3,97.4L325.3,97.4z"/>
	<path class="st3" d="M325.2,99.1c-0.1,0-0.3,0.1-0.3,0.2l-0.5,7.6H347c4.2,0,7.6-2.8,7.6-6.3v-0.3L325.2,99.1z"/>
	<path class="st5" d="M244.4,33.2l1.2-7.5c0.7-3.2,1.9-6.2,3.6-9c1-1.5,2.2-2.8,3.7-3.9c1.2-0.9,2.7-1.5,4.2-1.7
		c0.9,0,1.5,0.3,1.1,1s-2.4,1.4-3.2,2c-3.5,2.6-6.3,6.3-7,10.2c0,0,0,0.1,0.1,0.1l0,0l14.7,1.3c0,0,0.1,0,0.1,0.1l-0.1,1.7
		c0,0,0,0.1-0.1,0.1c0,0,0,0,0,0l0,0L248,27c0,0-0.1,0-0.1,0c0,0,0,0,0,0l0,0L246,37.2c-0.5,2.8,1.9,5.4,5.3,5.7l25.6,2.3
		c0,0,0.1,0,0.1-0.1l3.2-29.4c0.2-2.1-1.4-4-3.9-4.4c-2.6-0.5-5.3-0.9-8-1c-0.9,0.1-1.6-0.6-1.7-1.4c0,0,0-0.1,0.1-0.1l0,0l9.7,0.4
		c2.5,0.1,4.6-1.4,4.9-3.5l0.7-5.2h-50.9l-2.4,37.9c-0.1,1.5,1.7,2.6,3.4,2c2-0.7,4.1-1.3,6.3-1.8C241.6,38.2,244,36,244.4,33.2
		L244.4,33.2z"/>
	<path class="st4" d="M304.5,49.7l-26.2-1.2l-0.4,6.7l27.3,1.2l0.4-5.8C305.6,50.1,305.1,49.7,304.5,49.7L304.5,49.7z"/>
	<path class="st3" d="M277.4,63.6l26.3,1.2c0.5,0,1-0.3,1.1-0.8l0.4-6.8L277.9,56L277.4,63.6z"/>
	<path class="st6" d="M277,79.2l26.1,1.2c0.3,0,0.5-0.2,0.6-0.4l0.8-13.1c0-0.3-0.2-0.5-0.5-0.5c0,0,0,0,0,0l0,0l-26.1-1.2
		c-0.3,0-0.5,0.2-0.6,0.4l-0.9,13.1C276.5,79,276.7,79.2,277,79.2L277,79.2z"/>
	<path class="st3" d="M276.2,46.8l-24.6-1.1c-0.2-0.1-0.5,0.1-0.5,0.3l-0.4,5.8c0,0.2,0.2,0.4,0.4,0.4l24.7,1.1
		c0.2,0,0.4-0.1,0.5-0.3l0.4-5.8C276.5,47,276.4,46.8,276.2,46.8z"/>
	<path class="st4" d="M275.9,59.7l0.4-5.6l-26.8-1.2l-0.4,6.7l25.4,1.2C275.2,60.9,275.8,60.4,275.9,59.7L275.9,59.7z M249.2,45.9
		c0-0.6-0.4-1-1-1l-7.2-0.3L240,59l8.4,0.4L249.2,45.9z M300.3,101.1c0.1-2.4-2-4.4-4.8-4.5l-20.8-1c-0.6,0-1.2-0.5-1.2-1.1
		c0,0,0,0,0,0l0,0c0.1-0.6,0.7-1.1,1.3-1l20.6,0.9c3.4,0.2,6.3-2,6.5-4.9l0.3-4c0.1-2.3-2-4.3-4.8-4.5l-21.8-1
		c-0.6,0-1.2-0.5-1.2-1.1c0,0,0,0,0,0l0,0l1-15.5c0-0.6-0.5-1.1-1.2-1.1c0,0,0,0,0,0l0,0l-45.8-2c-0.6-0.1-1.2,0.4-1.3,1l-1.4,22
		l24.9-22c0,0,3.9,23-24.9,22.7l-1.3,20.8v1.4c0,0.3,0.2,0.6,0.4,0.8H300L300.3,101.1z M224.8,36.6c0.7,0.2,1.4-0.2,1.6-0.9
		c0,0,0-0.1,0-0.1l2.9-34.9h-38.1c-4.2,5.7-5.9,19-6.5,25.1c-0.1,2,1.4,3.6,3.3,3.9L224.8,36.6z"/>
	<ellipse class="st4" cx="230.6" cy="49.7" rx="7.5" ry="6.3"/>
	<path class="st4" d="M21.8,95.5c0-0.6-0.5-1-1.1-1L1.5,93.6v7.1c0,3.5,3.4,6.3,7.6,6.3h11.7L21.8,95.5z"/>
	<path class="st3" d="M6.9,75c-0.3,0-0.7,0.2-0.7,0.5L5.2,91c0,0.3,0.3,0.6,0.6,0.6c0,0,0,0,0,0l0,0l16.8,0.8c0.3,0,0.7-0.2,0.7-0.5
		l1-15.5c0-0.3-0.3-0.6-0.6-0.6c0,0,0,0,0,0l0,0L6.9,75z"/>
	<path class="st4" d="M24.6,93.8l29.5,1.3c0.1,0,0.3-0.1,0.3-0.2l1.8-27.2c0-0.1-0.1-0.2-0.2-0.2l-29.5-1.3c-0.1,0-0.2,0.1-0.3,0.2
		c0,0,0,0,0,0l0,0l-1.8,27.2C24.4,93.7,24.5,93.8,24.6,93.8z M29.8,39l-1,14.7c0,0.3,0.3,0.6,0.6,0.6l22,1c0.3,0,0.7-0.2,0.7-0.5
		l1-14.7c0-0.3-0.3-0.6-0.6-0.6l-22-1C30.2,38.4,29.9,38.7,29.8,39z M31.2,22.4l-1,14.7c0,0.3,0.3,0.6,0.6,0.6c0,0,0,0,0,0l0,0l22,1
		c0.3,0,0.7-0.2,0.7-0.5l1-14.7c0-0.3-0.3-0.6-0.6-0.6c0,0,0,0,0,0l0,0l-22-1C31.6,21.8,31.3,22,31.2,22.4z M32.7,18.7
		c0,0.5,0.5,0.9,1,0.9l22.3,1l1-15.8l-23.3-1L32.7,18.7z M57.5,3.3c0.2,0,0.3-0.1,0.3-0.3c0,0,0,0,0,0l0,0L58,0.7H34.6L34.6,2
		c0,0.2,0.1,0.3,0.3,0.3c0,0,0,0,0,0l0,0L57.5,3.3z"/>
	<path class="st3" d="M56.9,94l22.4,1c0.3,0,0.7-0.2,0.7-0.5l1.6-24.3c0-0.3-0.3-0.6-0.6-0.6c0,0,0,0,0,0l0,0l-22.4-1
		c-0.3,0-0.7,0.2-0.7,0.5l-1.6,24.3C56.3,93.7,56.6,94,56.9,94L56.9,94L56.9,94z"/>
	<path class="st4" d="M24.5,72.9l1.1-16.7c0-0.3-0.3-0.6-0.6-0.6c0,0,0,0,0,0l0,0L1.5,54.5v17.9l22.2,1
		C24.1,73.4,24.4,73.2,24.5,72.9L24.5,72.9z"/>
	<path class="st7" d="M56.8,65.6l0.5-8.4c0-0.2-0.2-0.3-0.3-0.3c0,0,0,0,0,0l0,0l-28.6-1.3c-0.2,0-0.3,0.1-0.4,0.3l-0.5,8.4
		c0,0.2,0.2,0.3,0.4,0.3l28.6,1.3C56.6,65.9,56.8,65.8,56.8,65.6z"/>
	<path class="st4" d="M83,68.8l0.6-8.8c0-0.1-0.1-0.1-0.1-0.1l0,0l0,0l-23.8-1.1c-0.1,0-0.1,0-0.1,0.1l-0.6,8.8
		c0,0.1,0.1,0.1,0.1,0.1l23.9,1.1C82.9,68.9,83,68.8,83,68.8L83,68.8z"/>
	<path class="st3" d="M28.3,38.7c0.2-1.6-1.9-3-4.5-2.9L3.7,36.6l-1,15.7l23.7,1.1L28.3,38.7z"/>
	<path class="st4" d="M1.5,35.4L20.2,35c5.1-0.1,9-2,9.2-4.5l0.7-11.4L1.5,17.9V35.4z M78.9,97.8c0-0.4-0.4-0.7-0.8-0.7l-53.4-2.4
		c-0.4,0-0.8,0.2-0.8,0.6L23,106.9h55.3L78.9,97.8z"/>
	<path class="st3" d="M5,17.2l26.1,1.2c0.1,0,0.3-0.1,0.3-0.2l0.9-14.3c0-0.1-0.1-0.3-0.3-0.3L6,2.4c-0.1,0-0.3,0.1-0.3,0.2l-1,14.3
		C4.7,17.1,4.8,17.2,5,17.2C5,17.2,5,17.2,5,17.2L5,17.2L5,17.2z"/>
	<path class="st4" d="M11.8,0.7l20.4,0.9c0.1,0,0.3-0.1,0.3-0.2V0.7L11.8,0.7z M138.8,68.5c0.1-1.7-1.9-2.9-3.8-2.2
		c-2.3,0.8-4.6,1.5-6.9,1.9c-3.6,0.7-6.2,3.2-6.6,6.2l-1.3,8.3c-0.7,3.5-2.1,6.9-3.9,10c-1.1,1.7-2.4,3.1-4.1,4.3
		c-1.3,1-2.9,1.7-4.6,1.8c-0.9,0-1.7-0.3-1.2-1.1s2.6-1.5,3.5-2.2c3.9-2.9,6.9-6.9,7.7-11.3c0,0,0-0.1-0.1-0.1l-16.2-1.4
		c0,0-0.1,0-0.1-0.1l0,0l0.1-1.9c0,0,0.1-0.1,0.1-0.1l16.1,0.7c0,0,0.1,0,0.1-0.1l2.1-11.3c0.6-3.1-2.1-6-5.8-6.3l-28.3-2.6
		c0,0-0.1,0-0.1,0.1c0,0,0,0,0,0l0,0l-3.5,32.5c-0.2,2.3,1.6,4.4,4.3,4.9c2.9,0.6,5.9,0.9,8.9,1.1c0.9-0.1,1.8,0.6,1.9,1.6
		c0,0,0,0.1-0.1,0.1l0,0l-10.7-0.5c-2.7-0.1-5.1,1.6-5.4,3.8l-0.3,2.3h56L138.8,68.5z"/>
	<path class="st3" d="M84.5,50.2l-30.2-1.4l-0.4,6.5c0,0.5,0.5,1,1,1L84,57.6L84.5,50.2z"/>
	<path class="st4" d="M55.8,40c-0.5-0.1-1,0.3-1.1,0.8l-0.5,7l30.2,1.4l0.6-7.9L55.8,40z M85.3,36l0.8-12c0-0.3-0.2-0.5-0.5-0.5
		c0,0,0,0,0,0l0,0l-29-1.3c-0.3,0-0.5,0.2-0.6,0.4l-0.8,12c0,0.3,0.2,0.5,0.5,0.5c0,0,0,0,0,0l0,0l29,1.3C85,36.5,85.3,36.3,85.3,36
		C85.3,36,85.3,36,85.3,36L85.3,36z M86.3,59.4l27.3,1.3c0.2,0,0.4-0.1,0.5-0.4l0.4-6.5c0-0.2-0.2-0.4-0.4-0.4c0,0,0,0,0,0l0,0
		l-27.3-1.2c-0.2,0-0.4,0.1-0.5,0.3L85.9,59C85.9,59.2,86.1,59.4,86.3,59.4C86.3,59.4,86.3,59.4,86.3,59.4L86.3,59.4z M116.3,45.3
		L88.1,44c-0.7-0.1-1.3,0.4-1.4,1l-0.4,6.3l29.6,1.3L116.3,45.3z M117.2,61.5l8.1,0.4l1-15.9l-9.2-0.4l-1,15
		C116.1,61.1,116.6,61.5,117.2,61.5L117.2,61.5z"/>
	<path class="st8" d="M140.4,44.5l2.8-43.8H59.6c0,1.9,1.8,3.5,4,3.6l25.8,1.2l-0.1,2.3l0,0L63.6,6.7c-3-0.1-5.6,1.8-5.7,4.3
		l-0.4,6.7c-0.1,2,1.7,3.6,4,3.7l26.8,1.2l0,0L87,42.1L140.4,44.5L140.4,44.5L140.4,44.5z"/>
	<path class="st9" d="M187.5,82.6c0.2-2-1.4-3.8-3.7-4.3l-40.7-7.7c-0.8-0.2-1.5,0.2-1.7,1c0,0,0,0,0,0.1l-2.9,35.2h43.8
		C185.5,99.7,187,88.3,187.5,82.6L187.5,82.6z"/>
	<path class="st10" d="M180,73.6c-0.2-9.7-3.7-24.8-3.7-24.8l-30,0.4c-2,0-3.6,1.6-3.8,3.6l-1.1,16.1l36.4,6.6c1,0.2,2-0.4,2.2-1.4
		c0,0,0,0,0,0C180,73.9,180,73.8,180,73.6L180,73.6z"/>
	<path class="st4" d="M143.1,48l39.7-1.4c0.6-4.2-5.1-17.7-5.1-17.7l-28,3.3c-3.1,0.3-5.4,2.4-5.6,4.9L143.1,48z M184.5,76.2l3.3,1
		c1.6-8.3-4.2-28.8-4.2-28.8l-4.2,0.9l2.4,24.1C182,74.8,183.1,75.9,184.5,76.2L184.5,76.2z"/>
	<path class="st3" d="M145.1,12.6v16.9c0.1,0.7,0.6,1.2,1.3,1.1h0.1l14.9-1.4c0.6,0,1.2-0.5,1.2-1.1c0,0,0,0,0,0V28l-2.5-15.5
		c-0.1-0.6-0.7-1-1.3-1h-12.4C145.8,11.4,145.2,12,145.1,12.6C145.1,12.6,145.1,12.6,145.1,12.6z"/>
	<path class="st4" d="M165.2,24.6l0.7,3.5l11.1-0.8l-2.5-6.4l-7,1c-1.4,0.1-2.4,1.3-2.3,2.6c0,0,0,0,0,0
		C165.2,24.5,165.2,24.6,165.2,24.6L165.2,24.6z M169.1,8.6c-0.5-0.8-1.4-1.2-2.4-1c-3.1,0.6-5,3.2-4.4,5.8l1.4,5.5
		c0.3,1,1.5,1.6,2.5,1.3l5.2-1.3c0.9-0.1,1.5-0.9,1.4-1.8c0-0.1-0.1-0.2-0.1-0.4L169.1,8.6z M146.4,0.7v6.6l13,1.7l5.7-3.4l-2.4-4.9
		L146.4,0.7z M222.4,68.5l0.7-6.5v-0.5c0-0.4-0.1-0.9-0.3-1.3c-4.4-8.5-3.2-14.8-1.7-18.3c0.8-1.8-0.5-3.8-2.7-4.3l-30.5-6.5
		c-1.4-0.3-2.8,0.1-3.9,1c-0.8,0.7-1.1,1.7-0.9,2.8l7.9,33.2c0.5,1.6,2,2.7,3.7,2.6l23.7,0.7C220.2,71.6,221.9,70.3,222.4,68.5
		L222.4,68.5z"/>
	<path class="st10" d="M220.7,74.4c0-0.2-15.8-0.3-23.6-0.3c-2.3,0-4.3,0.5-4.4,1.1L192,85.8l28.8,0.4L220.7,74.4z"/>
	<path class="st3" d="M220.7,95.2v-3.3c-0.1-1.4-1.4-2.5-2.8-2.3h-23.1c-1.4-0.1-2.6,0.9-2.8,2.3v3.3c0.1,1.4,1.4,2.5,2.8,2.3H218
		C219.4,97.6,220.6,96.6,220.7,95.2z"/>
	<path class="st4" d="M188.1,106.7h30.8V101H192L188.1,106.7L188.1,106.7z M250.7,61.3L225.1,84h0.7
		C254.6,84.3,250.7,61.3,250.7,61.3L250.7,61.3z M67.3,38.9c0,0.3-0.3,0.5-0.6,0.5c-0.3,0-0.4-0.1-0.4-0.3s0.4-0.4,1-0.3L67.3,38.9z
		"/>
</g>
<radialGradient id="SVGID_3_" cx="179" cy="-25" r="35.7833" gradientTransform="matrix(1 0 0 1 0 80)" gradientUnits="userSpaceOnUse">
	<stop  offset="0.49" style="stop-color:#BC0000"/>
	<stop  offset="0.65" style="stop-color:#B00000"/>
	<stop  offset="0.72" style="stop-color:#A80000"/>
	<stop  offset="0.84" style="stop-color:#9E0000"/>
</radialGradient>
<path class="st11" d="M179,28.2c-14.8,0-26.7,12-26.7,26.8s12,26.7,26.8,26.7c14.8,0,26.7-12,26.7-26.8l0,0
	C205.7,40.2,193.8,28.2,179,28.2L179,28.2z"/>
<path class="st12" d="M182.2,55.1l9.1-9.1c0.9-0.9,0.9-2.2,0-3.1l-0.1-0.1c-0.9-0.9-2.2-0.9-3.1,0l-9.1,9.1l-9-9
	c-0.9-0.9-2.2-0.9-3.1,0l-0.1,0.1c-0.8,0.9-0.8,2.2,0,3.1l9,9l-8.9,8.9c-0.9,0.9-0.9,2.2,0,3.1l0.1,0.1c0.9,0.9,2.2,0.9,3.1,0
	l8.9-8.9l9,9c0.9,0.8,2.2,0.8,3.1,0l0.1-0.1c0.9-0.9,0.9-2.2,0-3.1L182.2,55.1z"/>
<path class="st13" d="M24.1,101.2c0,1-0.3,1.9-1,2.6c-0.9,0.9-2.1,1.4-3.4,1.3c-1.3,0.1-2.5-0.4-3.4-1.3c-0.7-0.7-1-1.7-1-2.6
	c0-0.9,0.4-1.8,1-2.5c0.9-0.9,2.2-1.4,3.4-1.3c1.2-0.1,2.4,0.4,3.3,1.3C23.8,99.2,24.1,100.2,24.1,101.2z M21.5,101.2
	c0-0.9-0.7-1.6-1.6-1.6c0,0,0,0-0.1,0c-0.5,0-1,0.2-1.3,0.6c-0.3,0.3-0.4,0.7-0.4,1.1c0,0.4,0.1,0.8,0.4,1.1
	c0.3,0.4,0.8,0.6,1.3,0.6C20.7,102.9,21.5,102.1,21.5,101.2C21.5,101.2,21.5,101.2,21.5,101.2L21.5,101.2L21.5,101.2z M33.8,101.2
	c0,1-0.3,1.9-1,2.6c-0.9,0.9-2.1,1.4-3.4,1.3c-1.3,0.1-2.5-0.4-3.4-1.3c-0.7-0.7-1-1.7-1-2.6c0-0.9,0.4-1.8,1-2.5
	c0.9-0.9,2.2-1.4,3.4-1.3c1.2-0.1,2.4,0.4,3.3,1.3C33.5,99.2,33.8,100.2,33.8,101.2z M31.1,101.2c0-0.9-0.7-1.7-1.7-1.7c0,0,0,0,0,0
	c-0.5,0-1,0.2-1.3,0.6c-0.3,0.3-0.4,0.7-0.4,1.1c0,0.4,0.1,0.8,0.4,1.1c0.3,0.4,0.8,0.6,1.3,0.6C30.4,102.8,31.1,102.1,31.1,101.2
	C31.1,101.2,31.1,101.2,31.1,101.2L31.1,101.2L31.1,101.2z M52.8,104.8h-2.6V104c-0.2,0.3-0.5,0.5-0.7,0.7c-0.5,0.2-1,0.3-1.5,0.3
	c-0.9,0-1.7-0.3-2.4-0.9c-1.6-1.5-1.7-4.1-0.2-5.7c0,0,0,0,0,0l0.2-0.2c0.7-0.6,1.5-0.9,2.4-0.9c0.5,0,1,0.1,1.4,0.3
	c0.3,0.2,0.6,0.4,0.8,0.6v-0.7h2.6L52.8,104.8z M50.3,101.2c0-0.9-0.7-1.6-1.6-1.6c0,0,0,0,0,0c-0.5,0-0.9,0.2-1.3,0.6
	c-0.5,0.6-0.5,1.5,0,2.1c0.3,0.4,0.8,0.6,1.3,0.6c0.4,0,0.9-0.2,1.2-0.5C50.1,102,50.3,101.6,50.3,101.2z M78.3,104.8h-2.6V104
	c-0.2,0.3-0.5,0.5-0.7,0.7c-0.5,0.2-1,0.4-1.5,0.4c-0.9,0-1.7-0.3-2.4-0.9c-1.6-1.5-1.7-4-0.2-5.7l0.2-0.2c0.6-0.6,1.5-0.9,2.3-0.9
	c0.5,0,1,0.1,1.4,0.3c0.3,0.2,0.6,0.4,0.8,0.6v-0.7h2.6L78.3,104.8z M75.8,101.2c0-0.9-0.7-1.6-1.6-1.6c0,0,0,0,0,0
	c-0.5,0-0.9,0.2-1.3,0.6c-0.5,0.6-0.5,1.5,0,2.1c0.3,0.4,0.8,0.6,1.3,0.6C75,102.8,75.8,102.1,75.8,101.2
	C75.8,101.2,75.8,101.2,75.8,101.2z"/>
<path class="st14" d="M11.2,101H8.9v-2.1h2.2"/>
<path class="st13" d="M41,97.5l-1.9,3.7l-1.9-3.7h-3l3.5,6.3l-2.5,4.6l1.1-2.1l0.9,2.1h0.9l5.8-10.9L41,97.5L41,97.5z"/>
<path class="st15" d="M35.2,108.4h2l-0.9-2.1L35.2,108.4L35.2,108.4z"/>
<path class="st16" d="M12.2,94.8c-0.3-0.2-0.7-0.4-1.1-0.6c-0.6-0.2-1.3-0.4-2-0.4v2.4c0.5,0,1,0.2,1.4,0.5c0.3,0.3,0.5,0.6,0.7,1
	l0.1,0.2l2.6-1.1C13.5,96,12.9,95.3,12.2,94.8L12.2,94.8z"/>
<path class="st13" d="M9,102.8c-0.7,0-1.4-0.2-1.9-0.8c-0.7-0.7-1-1.6-1-2.5c0-0.5,0.1-1,0.3-1.4c0.3-1.1,1.4-1.9,2.5-1.9H9v-2.4
	c-1.7-0.1-3.3,0.6-4.4,1.8c-1.8,2.2-1.9,5.3-0.2,7.5c1.1,1.4,2.8,2.1,4.5,2c1.1,0,2.2-0.3,3.1-0.9l-1.4-2.1
	C10.2,102.6,9.6,102.8,9,102.8L9,102.8z"/>
<path class="st17" d="M12,104.2c0.9-0.6,1.6-1.5,2-2.6c0.3-0.9,0.4-1.9,0.4-2.8l-3.2,2.1c0,0.4-0.2,0.9-0.5,1.2"/>
<path class="st15" d="M11.1,98.9H8.9v2.1h2.3l3.2-2.1L11.1,98.9z"/>
<path class="st17" d="M79.8,100.9v-3.4h2.6"/>
<path class="st15" d="M79.8,98.8v-1.3h1"/>
<path class="st13" d="M87,98.2c-0.7-0.6-1.5-0.9-2.4-0.9c-0.5,0-1,0.1-1.5,0.4c-0.3,0.2-0.5,0.4-0.7,0.7v-0.8l-2.6,3.4v7.4h2.6v-4.3
	c0.2,0.3,0.5,0.5,0.8,0.6c0.5,0.2,0.9,0.3,1.4,0.3c0.9,0,1.7-0.3,2.3-0.9c1.6-1.5,1.7-4.1,0.2-5.7c0,0,0,0,0,0L87,98.2z M85.2,102.2
	c-0.3,0.4-0.8,0.6-1.3,0.6c-0.4,0-0.9-0.2-1.2-0.5c-0.6-0.7-0.6-1.7,0.1-2.3s1.7-0.6,2.3,0.1C85.7,100.7,85.7,101.6,85.2,102.2
	L85.2,102.2z"/>
<path class="st15" d="M60.4,99.9v5.2H58v-3"/>
<path class="st13" d="M65,94.6l-1.9,6.6l-1.9-6.6H58v7.7l2.4-2.3l1.4,5.3h2.5l1.5-5.3l2.4-2.3v-3.1H65z"/>
<path class="st17" d="M65.8,99.9v5.3h2.4v-7.6L65.8,99.9z"/>
<path class="st16" d="M58,103.4v1.9h2.4v-1.9H58z"/>
</svg>
