<svg xmlns="http://www.w3.org/2000/svg" viewBox="0 0 358 110" xmlns:v="https://vecta.io/nano"><style><![CDATA[.S{enable-background:new}.T{opacity:.38}.U{fill:#a0a0a0}.V{fill:#fdbb16}.W{fill:#00b8c5}]]></style><linearGradient id="A" gradientUnits="userSpaceOnUse" x1="-2.15" y1="55" x2="355.85" y2="55"><stop offset=".02" stop-color="#f5e9e4"/><stop offset=".54" stop-color="#acdff7"/><stop offset=".63" stop-color="#b4e0f5"/><stop offset=".79" stop-color="#cbe3ef"/><stop offset=".98" stop-color="#f0e8e5"/><stop offset="1" stop-color="#f5e9e4"/></linearGradient><path d="M0,0h358v110H0V0z" fill="url(#A)"/><linearGradient id="B" gradientUnits="userSpaceOnUse" x1="179" y1="0" x2="179" y2="109.76"><stop offset="0" stop-color="#4d69b2"/><stop offset=".22" stop-color="#3994a7"/><stop offset=".54" stop-color="#3b95a8"/><stop offset=".66" stop-color="#4299ac"/><stop offset=".74" stop-color="#4ea1b3"/><stop offset=".81" stop-color="#5fabbd"/><stop offset=".87" stop-color="#75b8ca"/><stop offset=".92" stop-color="#90c9db"/><stop offset=".97" stop-color="#b0dced"/><stop offset="1" stop-color="#c7eafb"/></linearGradient><path d="M0,0v103.4c0,3.5,3.5,6.4,7.7,6.4h342.6c4.3,0,7.7-2.8,7.7-6.4V0H0z" opacity=".17" fill="url(#B)" class="S"/><g opacity=".32" fill="#fff"><path d="M335.7.7l-1.1 13.4c0 .5.5.9 1 .9l19.1.9V.7h-19z" class="S T"/><path d="M349 17.6l-15-.6c-.3 0-.7.2-.7.5l-.9 13.9a.65.65 0 0 0 .6.6h0l15 .7c.3 0 .7-.2.7-.5l.9-13.9c.1-.4-.2-.6-.6-.7 0 .1 0 .1 0 0h0zm-17-1.9l-26.6-1.2c-.1 0-.3.1-.3.2l-1.6 24.5c0 .1.1.2.2.2l26.6 1.2c.1 0 .2-.1.3-.2l1.6-24.5c0-.1-.1-.2-.2-.2h0zm-24.2 34.8c-.3 0-.7.2-.7.5l-.9 13.2a.65.65 0 0 0 .6.6h0l19.8.9c.3 0 .7-.2.7-.5l.9-13.2a.65.65 0 0 0-.6-.6h0l-19.8-.9zm18.3 29.8l.9-13.2a.65.65 0 0 0-.6-.6h0l-19.8-.9c-.3 0-.7.2-.7.5l-.9 13.2a.65.65 0 0 0 .6.6h0l19.8.9c.3 0 .6-.2.7-.5h0zm-1.4 3.4c0-.5-.5-.9-1-.9l-20.1-.9-.9 14.3 21.1 1 .9-13.5zM323 98.8c0-.2-.1-.3-.3-.3h0l-20.4-.9c-.2 0-.3.1-.4.3h0l-.6 9.1h21.2l.5-8.2zm-41.1-83.6l-1.4 21.9a.65.65 0 0 0 .6.6h0l16.2.7c.3 0 .7-.2.7-.5l1.4-21.9a.65.65 0 0 0-.6-.6h0l-16.2-.7c-.4-.1-.7.1-.7.5h0z"/><path d="M332.2 34.7l-1 15a.65.65 0 0 0 .6.6h0l22.8 1V35.2l-21.8-1c-.3-.1-.6.2-.6.5h0zM328.9 50l.5-7.5c0-.2-.2-.3-.3-.3h0L303.3 41c-.2 0-.3.1-.4.3l-.5 7.5c0 .2.1.3.3.3h0l25.8 1.2c.2.1.4-.1.4-.3h0z" class="S T"/><path d="M279.2 38.4l-.5 7.9c0 .1.1.1.1.1l21.5 1c.1 0 .1 0 .1-.1h0l.5-7.9c0-.1-.1-.1-.1-.1l-21.5-1s-.1 0-.1.1h0zm53.5 29.8l18.2-.8.9-14.2-21.4-1-1.8 13.3c-.1 1.5 1.8 2.8 4.1 2.7h0z"/><path d="M327.8 72.9l-.7 10.3 27.6 1.3v-16l-18.6.4c-4.6.1-8.2 1.8-8.3 4h0z" class="S T"/><path d="M332.7 14.4L333.8.8h-50l-.8 11.3c0 .4.3.6.7.6h0L332 15c.3 0 .6-.2.7-.6h0zm-7.4 83l23.6 1.1c.1 0 .3-.1.3-.2l.8-12.9c0-.1-.1-.3-.3-.3L326.2 84c-.1 0-.3.1-.3.2l-.8 12.9c0 .2.1.3.2.3h0z"/><path d="M325.2 99.1c-.1 0-.3.1-.3.2l-.5 7.6H347c4.2 0 7.6-2.8 7.6-6.3v-.3l-29.4-1.2z" class="S T"/><path d="M244.4 33.2l1.2-7.5a29.28 29.28 0 0 1 3.6-9c1-1.5 2.2-2.8 3.7-3.9 1.2-.9 2.7-1.5 4.2-1.7.9 0 1.5.3 1.1 1s-2.4 1.4-3.2 2c-3.5 2.6-6.3 6.3-7 10.2 0 0 0 .1.1.1h0l14.7 1.3s.1 0 .1.1l-.1 1.7s0 .1-.1.1h0l-14.8-.6-1.9 10.2c-.5 2.8 1.9 5.4 5.3 5.7l25.6 2.3s.1 0 .1-.1l3.2-29.4c.2-2.1-1.4-4-3.9-4.4-2.6-.5-5.3-.9-8-1-.9.1-1.6-.6-1.7-1.4 0 0 0-.1.1-.1h0l9.7.4c2.5.1 4.6-1.4 4.9-3.5l.7-5.2h-50.9l-2.4 37.9c-.1 1.5 1.7 2.6 3.4 2a57.91 57.91 0 0 1 6.3-1.8c3.2-.4 5.6-2.6 6-5.4h0z" opacity=".78" class="S"/><path d="M304.5 49.7l-26.2-1.2-.4 6.7 27.3 1.2.4-5.8c0-.5-.5-.9-1.1-.9h0z"/><path d="M277.4 63.6l26.3 1.2c.5 0 1-.3 1.1-.8l.4-6.8-27.3-1.2-.5 7.6z" class="S T"/><path d="M277 79.2l26.1 1.2c.3 0 .5-.2.6-.4l.8-13.1a.47.47 0 0 0-.5-.5h0l-26.1-1.2c-.3 0-.5.2-.6.4l-.9 13.1c.1.3.3.5.6.5h0z" opacity=".8" class="S"/><path d="M276.2 46.8l-24.6-1.1c-.2-.1-.5.1-.5.3l-.4 5.8c0 .2.2.4.4.4l24.7 1.1a.55.55 0 0 0 .5-.3l.4-5.8c-.2-.2-.3-.4-.5-.4z" class="S T"/><path d="M275.9 59.7l.4-5.6-26.8-1.2-.4 6.7 25.4 1.2c.7.1 1.3-.4 1.4-1.1h0zm-26.7-13.8a.94.94 0 0 0-1-1l-7.2-.3-1 14.4 8.4.4.8-13.5zm51.1 55.2c.1-2.4-2-4.4-4.8-4.5l-20.8-1c-.6 0-1.2-.5-1.2-1.1h0c.1-.6.7-1.1 1.3-1l20.6.9c3.4.2 6.3-2 6.5-4.9l.3-4c.1-2.3-2-4.3-4.8-4.5l-21.8-1c-.6 0-1.2-.5-1.2-1.1h0l1-15.5c0-.6-.5-1.1-1.2-1.1h0l-45.8-2c-.6-.1-1.2.4-1.3 1l-1.4 22 24.9-22s3.9 23-24.9 22.7l-1.3 20.8v1.4c0 .3.2.6.4.8H300l.3-5.9zm-75.5-64.5c.7.2 1.4-.2 1.6-.9v-.1L229.3.7h-38.1c-4.2 5.7-5.9 19-6.5 25.1-.1 2 1.4 3.6 3.3 3.9l36.8 6.9z"/><ellipse cx="230.6" cy="49.7" rx="7.5" ry="6.3"/><path d="M21.8 95.5c0-.6-.5-1-1.1-1l-19.2-.9v7.1c0 3.5 3.4 6.3 7.6 6.3h11.7l1-11.5z"/><path d="M6.9 75c-.3 0-.7.2-.7.5L5.2 91a.65.65 0 0 0 .6.6h0l16.8.8c.3 0 .7-.2.7-.5l1-15.5a.65.65 0 0 0-.6-.6h0L6.9 75z" class="S T"/><path d="M24.6 93.8l29.5 1.3c.1 0 .3-.1.3-.2l1.8-27.2c0-.1-.1-.2-.2-.2l-29.5-1.3c-.1 0-.2.1-.3.2h0l-1.8 27.2c0 .1.1.2.2.2zM29.8 39l-1 14.7a.65.65 0 0 0 .6.6l22 1c.3 0 .7-.2.7-.5l1-14.7a.65.65 0 0 0-.6-.6l-22-1c-.3-.1-.6.2-.7.5zm1.4-16.6l-1 14.7a.65.65 0 0 0 .6.6h0l22 1c.3 0 .7-.2.7-.5l1-14.7a.65.65 0 0 0-.6-.6h0l-22-1c-.3-.1-.6.1-.7.5zm1.5-3.7c0 .5.5.9 1 .9l22.3 1 1-15.8-23.3-1-1 14.9zM57.5 3.3c.2 0 .3-.1.3-.3h0L58 .7H34.6V2c0 .2.1.3.3.3h0l22.6 1z"/><path d="M56.9 94l22.4 1c.3 0 .7-.2.7-.5l1.6-24.3a.65.65 0 0 0-.6-.6h0l-22.4-1c-.3 0-.7.2-.7.5l-1.6 24.3a.65.65 0 0 0 .6.6h0z" class="S T"/><path d="M24.5 72.9l1.1-16.7a.65.65 0 0 0-.6-.6h0L1.5 54.5v17.9l22.2 1c.4 0 .7-.2.8-.5h0z"/><path d="M56.8 65.6l.5-8.4c0-.2-.2-.3-.3-.3h0l-28.6-1.3c-.2 0-.3.1-.4.3l-.5 8.4c0 .2.2.3.4.3l28.6 1.3c.1 0 .3-.1.3-.3z" opacity=".9" class="S"/><path d="M83 68.8l.6-8.8c0-.1-.1-.1-.1-.1h0l-23.8-1.1c-.1 0-.1 0-.1.1l-.6 8.8c0 .1.1.1.1.1L83 68.9c-.1 0 0-.1 0-.1h0z"/><path d="M28.3 38.7c.2-1.6-1.9-3-4.5-2.9l-20.1.8-1 15.7 23.7 1.1 1.9-14.7z" class="S T"/><path d="M1.5 35.4l18.7-.4c5.1-.1 9-2 9.2-4.5l.7-11.4-28.6-1.2v17.5zm77.4 62.4c0-.4-.4-.7-.8-.7l-53.4-2.4c-.4 0-.8.2-.8.6l-.9 11.6h55.3l.6-9.1z"/><path d="M5 17.2l26.1 1.2c.1 0 .3-.1.3-.2l.9-14.3c0-.1-.1-.3-.3-.3L6 2.4c-.1 0-.3.1-.3.2l-1 14.3c0 .2.1.3.3.3h0z" class="S T"/><path d="M11.8.7l20.4.9c.1 0 .3-.1.3-.2V.7H11.8zm127 67.8c.1-1.7-1.9-2.9-3.8-2.2-2.3.8-4.6 1.5-6.9 1.9-3.6.7-6.2 3.2-6.6 6.2l-1.3 8.3c-.7 3.5-2.1 6.9-3.9 10-1.1 1.7-2.4 3.1-4.1 4.3-1.3 1-2.9 1.7-4.6 1.8-.9 0-1.7-.3-1.2-1.1s2.6-1.5 3.5-2.2c3.9-2.9 6.9-6.9 7.7-11.3 0 0 0-.1-.1-.1l-16.2-1.4s-.1 0-.1-.1h0l.1-1.9.1-.1 16.1.7s.1 0 .1-.1l2.1-11.3c.6-3.1-2.1-6-5.8-6.3L85.6 61s-.1 0-.1.1h0L82 93.6c-.2 2.3 1.6 4.4 4.3 4.9 2.9.6 5.9.9 8.9 1.1.9-.1 1.8.6 1.9 1.6 0 0 0 .1-.1.1h0l-10.7-.5c-2.7-.1-5.1 1.6-5.4 3.8l-.3 2.3h56l2.2-38.4z"/><path d="M84.5 50.2l-30.2-1.4-.4 6.5a1.08 1.08 0 0 0 1 1L84 57.6l.5-7.4z" class="S T"/><path d="M55.8 40c-.5-.1-1 .3-1.1.8l-.5 7 30.2 1.4.6-7.9L55.8 40zm29.5-4l.8-12a.47.47 0 0 0-.5-.5h0l-29-1.3c-.3 0-.5.2-.6.4l-.8 12a.47.47 0 0 0 .5.5h0l29 1.3c.3.1.6-.1.6-.4h0zm1 23.4l27.3 1.3c.2 0 .4-.1.5-.4l.4-6.5c0-.2-.2-.4-.4-.4h0l-27.3-1.2a.55.55 0 0 0-.5.3l-.4 6.5c0 .2.2.4.4.4h0zm30-14.1L88.1 44c-.7-.1-1.3.4-1.4 1l-.4 6.3 29.6 1.3.4-7.3zm.9 16.2l8.1.4 1-15.9-9.2-.4-1 15c0 .5.5.9 1.1.9h0z"/><path d="M140.4 44.5L143.2.7H59.6c0 1.9 1.8 3.5 4 3.6l25.8 1.2-.1 2.3-25.7-1.1c-3-.1-5.6 1.8-5.7 4.3l-.4 6.7c-.1 2 1.7 3.6 4 3.7l26.8 1.2L87 42.1l53.4 2.4z" opacity=".6" class="S"/><path d="M187.5 82.6c.2-2-1.4-3.8-3.7-4.3l-40.7-7.7c-.8-.2-1.5.2-1.7 1v.1l-2.9 35.2h43.8c3.2-7.2 4.7-18.6 5.2-24.3h0z" opacity=".92" class="S"/><path d="M180 73.6c-.2-9.7-3.7-24.8-3.7-24.8l-30 .4c-2 0-3.6 1.6-3.8 3.6l-1.1 16.1 36.4 6.6c1 .2 2-.4 2.2-1.4v-.5z" opacity=".82" class="S"/><path d="M143.1 48l39.7-1.4c.6-4.2-5.1-17.7-5.1-17.7l-28 3.3c-3.1.3-5.4 2.4-5.6 4.9l-1 10.9zm41.4 28.2l3.3 1c1.6-8.3-4.2-28.8-4.2-28.8l-4.2.9 2.4 24.1c.2 1.4 1.3 2.5 2.7 2.8h0z"/><path d="M145.1 12.6v16.9c.1.7.6 1.2 1.3 1.1h.1l14.9-1.4c.6 0 1.2-.5 1.2-1.1V28l-2.5-15.5c-.1-.6-.7-1-1.3-1h-12.4c-.6-.1-1.2.5-1.3 1.1z" class="S T"/><path d="M165.2 24.6l.7 3.5 11.1-.8-2.5-6.4-7 1c-1.4.1-2.4 1.3-2.3 2.6 0 0 0 .1 0 .1h0zm3.9-16c-.5-.8-1.4-1.2-2.4-1-3.1.6-5 3.2-4.4 5.8l1.4 5.5c.3 1 1.5 1.6 2.5 1.3l5.2-1.3c.9-.1 1.5-.9 1.4-1.8 0-.1-.1-.2-.1-.4l-3.6-8.1zM146.4.7v6.6l13 1.7 5.7-3.4-2.4-4.9h-16.3zm76 67.8l.7-6.5v-.5a3.08 3.08 0 0 0-.3-1.3c-4.4-8.5-3.2-14.8-1.7-18.3.8-1.8-.5-3.8-2.7-4.3l-30.5-6.5c-1.4-.3-2.8.1-3.9 1-.8.7-1.1 1.7-.9 2.8l7.9 33.2c.5 1.6 2 2.7 3.7 2.6l23.7.7c1.8.2 3.5-1.1 4-2.9h0z"/><path d="M220.7 74.4c0-.2-15.8-.3-23.6-.3-2.3 0-4.3.5-4.4 1.1l-.7 10.6 28.8.4-.1-11.8z" opacity=".82" class="S"/><path d="M220.7 95.2v-3.3c-.1-1.4-1.4-2.5-2.8-2.3h-23.1c-1.4-.1-2.6.9-2.8 2.3v3.3c.1 1.4 1.4 2.5 2.8 2.3H218c1.4.1 2.6-.9 2.7-2.3z" class="S T"/><path d="M188.1 106.7h30.8V101H192l-3.9 5.7zm62.6-45.4L225.1 84h.7c28.8.3 24.9-22.7 24.9-22.7h0zM67.3 38.9c0 .3-.3.5-.6.5s-.4-.1-.4-.3.4-.4 1-.3v.1z"/></g><radialGradient id="C" cx="179" cy="-25" r="35.783" gradientTransform="matrix(1 0 0 1 0 80)" gradientUnits="userSpaceOnUse"><stop offset=".49" stop-color="#bc0000"/><stop offset=".65" stop-color="#b00000"/><stop offset=".72" stop-color="#a80000"/><stop offset=".84" stop-color="#9e0000"/></radialGradient><path d="M179 28.2c-14.8 0-26.7 12-26.7 26.8s12 26.7 26.8 26.7 26.7-12 26.7-26.8h0c-.1-14.7-12-26.7-26.8-26.7h0z" fill="url(#C)"/><path d="M182.2 55.1l9.1-9.1c.9-.9.9-2.2 0-3.1l-.1-.1c-.9-.9-2.2-.9-3.1 0l-9.1 9.1-9-9c-.9-.9-2.2-.9-3.1 0l-.1.1a2.3 2.3 0 0 0 0 3.1l9 9-8.9 8.9c-.9.9-.9 2.2 0 3.1l.1.1c.9.9 2.2.9 3.1 0l8.9-8.9 9 9a2.3 2.3 0 0 0 3.1 0l.1-.1c.9-.9.9-2.2 0-3.1l-9-9z" fill="#f9f9f9"/><path d="M24.1 101.2c0 1-.3 1.9-1 2.6-.9.9-2.1 1.4-3.4 1.3-1.3.1-2.5-.4-3.4-1.3-.7-.7-1-1.7-1-2.6s.4-1.8 1-2.5c.9-.9 2.2-1.4 3.4-1.3 1.2-.1 2.4.4 3.3 1.3.8.5 1.1 1.5 1.1 2.5zm-2.6 0a1.58 1.58 0 0 0-1.6-1.6h-.1c-.5 0-1 .2-1.3.6-.3.3-.4.7-.4 1.1s.1.8.4 1.1c.3.4.8.6 1.3.6.9-.1 1.7-.9 1.7-1.8h0zm12.3 0c0 1-.3 1.9-1 2.6-.9.9-2.1 1.4-3.4 1.3-1.3.1-2.5-.4-3.4-1.3-.7-.7-1-1.7-1-2.6s.4-1.8 1-2.5c.9-.9 2.2-1.4 3.4-1.3 1.2-.1 2.4.4 3.3 1.3.8.5 1.1 1.5 1.1 2.5zm-2.7 0c0-.9-.7-1.7-1.7-1.7-.5 0-1 .2-1.3.6-.3.3-.4.7-.4 1.1s.1.8.4 1.1c.3.4.8.6 1.3.6 1-.1 1.7-.8 1.7-1.7h0zm21.7 3.6h-2.6v-.8c-.2.3-.5.5-.7.7-.5.2-1 .3-1.5.3-.9 0-1.7-.3-2.4-.9-1.6-1.5-1.7-4.1-.2-5.7l.2-.2c.7-.6 1.5-.9 2.4-.9.5 0 1 .1 1.4.3.3.2.6.4.8.6v-.7h2.6v7.3zm-2.5-3.6a1.58 1.58 0 0 0-1.6-1.6c-.5 0-.9.2-1.3.6a1.66 1.66 0 0 0 0 2.1c.3.4.8.6 1.3.6.4 0 .9-.2 1.2-.5.2-.4.4-.8.4-1.2zm28 3.6h-2.6v-.8c-.2.3-.5.5-.7.7-.5.2-1 .4-1.5.4-.9 0-1.7-.3-2.4-.9-1.6-1.5-1.7-4-.2-5.7l.2-.2c.6-.6 1.5-.9 2.3-.9.5 0 1 .1 1.4.3.3.2.6.4.8.6v-.7h2.6l.1 7.2zm-2.5-3.6a1.58 1.58 0 0 0-1.6-1.6c-.5 0-.9.2-1.3.6a1.66 1.66 0 0 0 0 2.1c.3.4.8.6 1.3.6.8-.1 1.6-.8 1.6-1.7z" class="U"/><path d="M11.2,101H8.9v-2.1h2.2" fill="#777"/><path d="M41 97.5l-1.9 3.7-1.9-3.7h-3l3.5 6.3-2.5 4.6 1.1-2.1.9 2.1h.9l5.8-10.9H41z" class="U"/><path d="M35.2 108.4h2l-.9-2.1-1.1 2.1z" class="V"/><path d="M12.2 94.8c-.3-.2-.7-.4-1.1-.6-.6-.2-1.3-.4-2-.4v2.4c.5 0 1 .2 1.4.5.3.3.5.6.7 1l.1.2 2.6-1.1a5.51 5.51 0 0 0-1.7-2h0z" fill="#00c12d"/><path d="M9 102.8c-.7 0-1.4-.2-1.9-.8-.7-.7-1-1.6-1-2.5 0-.5.1-1 .3-1.4.3-1.1 1.4-1.9 2.5-1.9H9v-2.4c-1.7-.1-3.3.6-4.4 1.8-1.8 2.2-1.9 5.3-.2 7.5 1.1 1.4 2.8 2.1 4.5 2 1.1 0 2.2-.3 3.1-.9l-1.4-2.1c-.4.5-1 .7-1.6.7h0z" class="U"/><path d="M12 104.2c.9-.6 1.6-1.5 2-2.6.3-.9.4-1.9.4-2.8l-3.2 2.1c0 .4-.2.9-.5 1.2" class="W"/><path d="M11.1 98.9H8.9v2.1h2.3l3.2-2.1h-3.3z" class="V"/><path d="M79.8,100.9v-3.4h2.6" class="W"/><path d="M79.8,98.8v-1.3h1" class="V"/><path d="M87 98.2c-.7-.6-1.5-.9-2.4-.9-.5 0-1 .1-1.5.4-.3.2-.5.4-.7.7v-.8l-2.6 3.4v7.4h2.6v-4.3c.2.3.5.5.8.6.5.2.9.3 1.4.3.9 0 1.7-.3 2.3-.9 1.6-1.5 1.7-4.1.2-5.7l-.1-.2zm-1.8 4c-.3.4-.8.6-1.3.6-.4 0-.9-.2-1.2-.5-.6-.7-.6-1.7.1-2.3s1.7-.6 2.3.1c.6.6.6 1.5.1 2.1h0z" class="U"/><path d="M60.4,99.9v5.2H58v-3" class="V"/><path d="M65 94.6l-1.9 6.6-1.9-6.6H58v7.7l2.4-2.3 1.4 5.3h2.5l1.5-5.3 2.4-2.3v-3.1H65z" class="U"/><path d="M65.8 99.9v5.3h2.4v-7.6l-2.4 2.3z" class="W"/><path d="M58,103.4v1.9h2.4v-1.9H58z" fill="#00c12d"/></svg>