<svg xmlns="http://www.w3.org/2000/svg" viewBox="0 0 358 110"><style><![CDATA[.E{opacity:.38}.F{fill:#a0a0a0}.G{fill:#fdbb16}.H{fill:#00b8c5}]]></style><defs><linearGradient id="A" x1="-2.15" y1="55" x2="355.85" y2="55" gradientUnits="userSpaceOnUse"><stop offset=".02" stop-color="#f5e9e4"/><stop offset=".54" stop-color="#acdff7"/><stop offset=".63" stop-color="#b4e0f5"/><stop offset=".79" stop-color="#cbe3ef"/><stop offset=".98" stop-color="#f0e8e5"/><stop offset="1" stop-color="#f5e9e4"/></linearGradient><linearGradient id="B" x1="179" x2="179" y2="109.76" gradientUnits="userSpaceOnUse"><stop offset="0" stop-color="#4d69b2"/><stop offset=".22" stop-color="#3994a7"/><stop offset=".54" stop-color="#3b95a8"/><stop offset=".66" stop-color="#4299ac"/><stop offset=".74" stop-color="#4ea1b3"/><stop offset=".81" stop-color="#5fabbd"/><stop offset=".87" stop-color="#75b8ca"/><stop offset=".92" stop-color="#90c9db"/><stop offset=".97" stop-color="#b0dced"/><stop offset="1" stop-color="#c7eafb"/></linearGradient><radialGradient id="C" cx="179" cy="55" r="26.76" gradientUnits="userSpaceOnUse"><stop offset="0" stop-color="#00aa06"/><stop offset=".24" stop-color="#00a40e"/><stop offset=".62" stop-color="#009224"/><stop offset="1" stop-color="#007c40"/></radialGradient></defs><path d="M0 0h358v110H0z" fill="url(#A)"/><path d="M0,0V103.38c0,3.53,3.46,6.38,7.72,6.38H350.28c4.26,0,7.72-2.85,7.72-6.38V0Z" opacity=".17" fill="url(#B)"/><g opacity=".32" fill="#fff"><path d="M335.66.73l-1.07,13.44a1,1,0,0,0,1,.94l19.06.87V.73Z" class="E"/><path d="M349 17.64L334 17a.64.64 0 0 0-.71.53l-.9 13.92a.62.62 0 0 0 .64.6l15 .68a.64.64 0 0 0 .71-.54l.9-13.9a.62.62 0 0 0-.64-.64zm-17-1.94l-26.65-1.2c-.14 0-.26.08-.26.2l-1.6 24.53c0 .1.1.2.24.22l26.65 1.2a.24.24 0 0 0 .26-.2l1.58-24.53a.22.22 0 0 0-.23-.22zm-24.18 34.83a.64.64 0 0 0-.71.54l-.85 13.16a.6.6 0 0 0 .64.59l19.75.9a.64.64 0 0 0 .71-.53l.85-13.2a.61.61 0 0 0-.63-.59zm18.28 29.73l.85-13.17a.61.61 0 0 0-.63-.59l-19.76-.9a.64.64 0 0 0-.71.53L305 79.3a.61.61 0 0 0 .64.59l19.75.9a.64.64 0 0 0 .7-.53zm-1.42 3.46a1 1 0 0 0-1-.92l-20.06-.9-.92 14.3 21.1 1zM323 98.8a.31.31 0 0 0-.32-.3l-20.43-.93a.31.31 0 0 0-.35.27l-.6 9.1h21.16zm-41.15-83.64l-1.4 21.9a.6.6 0 0 0 .63.59l16.22.74a.64.64 0 0 0 .71-.53L299.4 16a.61.61 0 0 0-.64-.59l-16.2-.74a.65.65 0 0 0-.71.49z"/><path d="M332.17 34.7l-1 15a.62.62 0 0 0 .64.6l22.83 1V35.15l-21.78-1a.63.63 0 0 0-.69.54zM328.9 50l.5-7.55a.34.34 0 0 0-.35-.33L303.27 41a.34.34 0 0 0-.38.29l-.5 7.55a.33.33 0 0 0 .34.33l25.77 1.17a.35.35 0 0 0 .39-.34z" class="E"/><path d="M279.2 38.37l-.5 7.94a.13.13 0 0 0 .13.12l21.55 1a.11.11 0 0 0 .14-.1l.52-7.94a.13.13 0 0 0-.13-.12l-21.55-1a.14.14 0 0 0-.15.1zm53.52 29.8l18.2-.76.92-14.2-21.4-1-1.76 13.3c-.2 1.5 1.74 2.77 4.04 2.67z"/><path d="M327.76 72.92l-.67 10.3 27.57 1.25v-16l-18.6.38c-4.6.14-8.16 1.83-8.3 4.06z" class="E"/><path d="M332.67 14.38L333.74.73H283.7l-.7 11.4a.65.65 0 0 0 .68.63l48.3 2.2a.67.67 0 0 0 .7-.56zm-7.34 82.95l23.56 1.07a.28.28 0 0 0 .3-.23l.8-12.92a.26.26 0 0 0-.26-.25l-23.54-1.07a.28.28 0 0 0-.3.23l-.83 12.92a.26.26 0 0 0 .26.25z"/><path d="M325.2 99.06a.26.26 0 0 0-.29.22l-.5 7.64H347c4.2 0 7.62-2.8 7.62-6.26v-.26z" class="E"/><path d="M244.42 33.22l1.18-7.46a29 29 0 0 1 3.56-9 14.16 14.16 0 0 1 3.66-3.88 8.26 8.26 0 0 1 4.18-1.67c.85 0 1.53.3 1.1 1s-2.38 1.36-3.2 2c-3.54 2.64-6.27 6.26-7 10.23a.08.08 0 0 0 .08.09l14.66 1.3a.08.08 0 0 1 .08.07l-.1 1.7a.08.08 0 0 1-.09.07L248 27a.07.07 0 0 0-.09.06L246 37.22c-.52 2.82 1.87 5.44 5.26 5.74l25.64 2.32s.1 0 .1-.07l3.2-29.36c.23-2.07-1.43-4-3.86-4.4a51.93 51.93 0 0 0-8-1 1.59 1.59 0 0 1-1.68-1.41.08.08 0 0 1 .09-.08l9.7.44c2.48.1 4.63-1.4 4.9-3.48l.66-5.2h-50.9l-2.38 37.87c-.1 1.53 1.74 2.6 3.42 2a46.41 46.41 0 0 1 6.27-1.76c3.22-.63 5.6-2.84 6-5.62z" opacity=".78"/><path d="M304.55 49.68l-26.2-1.2-.44 6.7 27.3 1.24.37-5.8a1 1 0 0 0-1.01-.95z"/><path d="M277.42 63.64l26.3 1.2a1 1 0 0 0 1.08-.84l.44-6.76L277.9 56z" class="E"/><path d="M277 79.23l26.15 1.18a.51.51 0 0 0 .57-.43l.84-13.07a.49.49 0 0 0-.51-.48l-26.14-1.2a.51.51 0 0 0-.57.43l-.85 13.08a.5.5 0 0 0 .51.48z" opacity=".8"/><path d="M276.16 46.8l-24.65-1.12a.43.43 0 0 0-.51.32l-.37 5.8a.41.41 0 0 0 .42.39l24.66 1.12a.42.42 0 0 0 .47-.35l.38-5.8a.41.41 0 0 0-.4-.36z" class="E"/><path d="M275.9 59.72l.36-5.6-26.75-1.2-.43 6.7 25.42 1.15a1.26 1.26 0 0 0 1.4-1.04zm-26.7-13.8a1 1 0 0 0-1-1l-7.25-.33L240 59l8.35.38zm51.14 55.17c.15-2.36-2-4.37-4.8-4.5l-20.8-1a1.15 1.15 0 0 1-1.2-1.12 1.2 1.2 0 0 1 1.34-1l20.65.94c3.4.15 6.3-2 6.5-4.88l.26-4c.15-2.34-2-4.35-4.78-4.47l-21.76-1a1.16 1.16 0 0 1-1.2-1.13l1-15.52a1.15 1.15 0 0 0-1.2-1.12l-45.75-2a1.22 1.22 0 0 0-1.34 1l-1.42 22 24.9-22s3.9 23-24.94 22.65l-1.34 20.84v1.37a1 1 0 0 0 .42.77H300zm-75.5-64.47a1.27 1.27 0 0 0 1.58-1L229.3.73h-38.1c-4.2 5.68-5.94 19-6.54 25.07a3.79 3.79 0 0 0 3.38 3.87z"/><ellipse cx="230.6" cy="49.73" rx="7.49" ry="6.28"/><path d="M21.8 95.5a1.09 1.09 0 0 0-1.12-1l-19.16-.92v7.08c0 3.46 3.4 6.26 7.62 6.26h11.74z"/><path d="M6.86 75a.64.64 0 0 0-.71.53l-1 15.5a.61.61 0 0 0 .63.59l16.75.76a.64.64 0 0 0 .71-.53l1-15.5a.61.61 0 0 0-.63-.59z" class="E"/><path d="M24.6 93.8l29.5 1.34c.14 0 .26-.08.26-.2l1.76-27.16c0-.1-.1-.2-.24-.22l-29.5-1.34a.23.23 0 0 0-.26.2l-1.76 27.16a.24.24 0 0 0 .24.22zM29.8 39l-.95 14.68a.62.62 0 0 0 .64.59l22 1a.64.64 0 0 0 .71-.53l.95-14.68a.62.62 0 0 0-.64-.59l-22-1a.64.64 0 0 0-.71.53zm1.4-16.62l-1 14.67a.61.61 0 0 0 .64.59l22 1a.64.64 0 0 0 .71-.53l1-14.67a.62.62 0 0 0-.64-.6l-22-1a.65.65 0 0 0-.71.54zm1.54-3.68a1 1 0 0 0 1 .92l22.28 1 1-15.8-23.3-1.05zm24.8-15.4a.32.32 0 0 0 .35-.31L58 .73H34.64L34.56 2a.31.31 0 0 0 .32.3z"/><path d="M56.94 94l22.44 1a.64.64 0 0 0 .71-.53l1.57-24.33a.6.6 0 0 0-.63-.59l-22.44-1a.63.63 0 0 0-.71.53l-1.58 24.3a.62.62 0 0 0 .64.62z" class="E"/><path d="M24.47 72.86l1.08-16.74a.6.6 0 0 0-.64-.59L1.5 54.46V72.4l22.24 1a.65.65 0 0 0 .71-.53z"/><path d="M56.84 65.6l.54-8.42a.33.33 0 0 0-.34-.32l-28.57-1.3a.34.34 0 0 0-.38.29l-.55 8.42a.34.34 0 0 0 .35.32l28.56 1.3a.35.35 0 0 0 .39-.29z" opacity=".9"/><path d="M83 68.76l.57-8.8a.12.12 0 0 0-.13-.12l-23.85-1.1a.14.14 0 0 0-.14.11l-.57 8.8a.13.13 0 0 0 .13.12l23.86 1.08a.12.12 0 0 0 .13-.1z"/><path d="M28.33,38.73c.22-1.63-1.93-3-4.47-2.92l-20.13.84-1,15.7,23.66,1.08Z" class="E"/><path d="M1.52 35.4l18.65-.4c5.1-.1 9-2 9.18-4.5l.73-11.4-28.56-1.25zm77.36 62.36a.73.73 0 0 0-.75-.7l-53.38-2.42a.75.75 0 0 0-.83.62L23 106.92h55.28z"/><path d="M5 17.2l26.1 1.18a.27.27 0 0 0 .3-.22l.92-14.33a.26.26 0 0 0-.26-.25L6 2.38a.28.28 0 0 0-.29.23l-.98 14.33a.26.26 0 0 0 .27.25z" class="E"/><path d="M11.76.73l20.43.92a.26.26 0 0 0 .29-.21v-.7zm127.07 67.75c.1-1.68-1.93-2.88-3.78-2.22a50.9 50.9 0 0 1-6.94 1.95c-3.55.7-6.22 3.18-6.64 6.22l-1.3 8.25a32.37 32.37 0 0 1-3.93 10 15.73 15.73 0 0 1-4.06 4.32 9.17 9.17 0 0 1-4.62 1.82c-.94 0-1.7-.32-1.2-1.1s2.63-1.5 3.54-2.17c3.9-2.92 6.92-6.92 7.68-11.32 0-.05 0-.1-.1-.1l-16.2-1.43a.08.08 0 0 1-.08-.09l.12-1.88a.1.1 0 0 1 .1-.08l16.12.74a.1.1 0 0 0 .1-.07L119.7 70c.57-3.12-2.08-6-5.82-6.35L85.54 61.1a.09.09 0 0 0-.11.07L81.9 93.63c-.24 2.3 1.6 4.4 4.28 4.87a58.49 58.49 0 0 0 8.87 1.06 1.76 1.76 0 0 1 1.86 1.56.09.09 0 0 1-.1.09l-10.73-.5c-2.74-.12-5.12 1.57-5.42 3.85l-.32 2.35h56z"/><path d="M84.46 50.15L54.3 48.78l-.42 6.5a1 1 0 0 0 1 .95L84 57.56z" class="E"/><path d="M55.77 40.05a1 1 0 0 0-1.08.81l-.45 7 30.2 1.37.55-7.86zM85.3 36l.78-11.95a.5.5 0 0 0-.52-.48l-29-1.32a.52.52 0 0 0-.57.43l-.77 12a.49.49 0 0 0 .51.48l29 1.3a.5.5 0 0 0 .57-.47zm1.04 23.42l27.35 1.25a.43.43 0 0 0 .47-.36l.42-6.47a.41.41 0 0 0-.43-.4L86.8 52.2a.43.43 0 0 0-.47.35L85.9 59a.41.41 0 0 0 .43.42zm29.96-14.16L88.07 44a1.27 1.27 0 0 0-1.4 1l-.4 6.3 29.56 1.34zm.93 16.2l8.13.37 1-15.87-9.23-.42-1 14.95a1 1 0 0 0 1.1.97z"/><path d="M140.37 44.55L143.2.73H59.57c0 1.88 1.76 3.46 4 3.57l25.77 1.17-.12 2.33a0 0 0 0 1 0 0L63.6 6.66c-3-.13-5.6 1.8-5.72 4.34l-.43 6.72c-.13 1.95 1.65 3.62 4 3.72l26.8 1.22a0 0 0 0 1 0 0L87 42.13l53.3 2.42s.06.01.06 0z" opacity=".6"/><path d="M187.53 82.64c.2-2-1.4-3.84-3.74-4.28l-40.68-7.7a1.42 1.42 0 0 0-1.75 1.1l-2.88 35.16h43.76c3.25-7.17 4.76-18.57 5.3-24.28z" opacity=".92"/><path d="M180 73.62c-.2-9.7-3.72-24.84-3.72-24.84l-30 .4a3.88 3.88 0 0 0-3.78 3.61l-1.13 16.07 36.43 6.6a1.82 1.82 0 0 0 2.2-1.84z" opacity=".82"/><path d="M143.06 48.05l39.7-1.37c.62-4.22-5.14-17.73-5.14-17.73l-28 3.28c-3.07.35-5.4 2.4-5.63 4.93zm41.44 28.17l3.33 1c1.57-8.35-4.24-28.85-4.24-28.85l-4.24.9 2.42 24.06a3.55 3.55 0 0 0 2.73 2.88z"/><path d="M145.14 12.64v16.9a1.23 1.23 0 0 0 1.31 1.11h.15l14.85-1.4A1.16 1.16 0 0 0 162.6 28l-2.48-15.5a1.27 1.27 0 0 0-1.31-1h-12.36a1.23 1.23 0 0 0-1.31 1.14z" class="E"/><path d="M165.22 24.62l.73 3.5 11.05-.77-2.5-6.44-7 1a2.45 2.45 0 0 0-2.27 2.72zm3.83-16.06a2.13 2.13 0 0 0-2.35-1c-3.08.65-5 3.2-4.37 5.82l1.35 5.5a2 2 0 0 0 2.51 1.27l5.22-1.26a1.63 1.63 0 0 0 1.31-2.19l-3.67-8.14zM146.45.73v6.6l13 1.7 5.73-3.4-2.4-4.9h-16.33zm75.9 67.73l.74-6.46v-.53a2.88 2.88 0 0 0-.31-1.28c-4.35-8.54-3.18-14.8-1.66-18.3.78-1.8-.47-3.8-2.7-4.26l-30.54-6.45a4.33 4.33 0 0 0-3.87 1 2.88 2.88 0 0 0-.87 2.75L191 68.1a3.73 3.73 0 0 0 3.66 2.61l23.67.68a3.71 3.71 0 0 0 4.03-2.94z"/><path d="M220.72 74.37c0-.2-15.8-.3-23.55-.34-2.34 0-4.3.5-4.44 1.14L192 85.83l28.75.4z" opacity=".82"/><path d="M220.72 95.2v-3.35a2.61 2.61 0 0 0-2.8-2.35h-23.14a2.62 2.62 0 0 0-2.78 2.35v3.35a2.61 2.61 0 0 0 2.81 2.35h23.14a2.6 2.6 0 0 0 2.77-2.35z" class="E"/><path d="M188.1 106.7h30.8v-5.66H192l-3.88 5.66zm62.63-45.4l-25.66 22.67h.72c28.83.3 24.94-22.67 24.94-22.67zM67.34 38.92a.58.58 0 0 1-.64.5c-.25 0-.4-.1-.37-.34s.43-.38 1-.35z"/></g><path d="M179,28.24A26.76,26.76,0,1,0,205.76,55,26.78,26.78,0,0,0,179,28.24Z" fill="url(#C)"/><path d="M174.63 64.84a2 2 0 0 0 1.28.45 2 2 0 0 0 1.54-.69l16.47-18.53a2.06 2.06 0 0 0-3.08-2.73L175.67 60.4l-8.77-7a2.06 2.06 0 0 0-2.57 3.22z" fill="#fdfefe"/><path d="M24.12 101.15a3.69 3.69 0 0 1-1 2.58 4.3 4.3 0 0 1-3.35 1.27 4.31 4.31 0 0 1-3.37-1.31 3.76 3.76 0 0 1-1-2.64 3.61 3.61 0 0 1 1-2.51 4.45 4.45 0 0 1 3.44-1.31 4.27 4.27 0 0 1 3.27 1.31 3.64 3.64 0 0 1 1.01 2.61zm-2.67 0A1.59 1.59 0 0 0 21 100a1.62 1.62 0 0 0-1.19-.49 1.58 1.58 0 0 0-1.29.59 1.63 1.63 0 0 0-.4 1.09 1.66 1.66 0 0 0 .4 1.1 1.61 1.61 0 0 0 1.29.59 1.67 1.67 0 0 0 1.68-1.69zm12.35 0a3.69 3.69 0 0 1-1 2.58 4.3 4.3 0 0 1-3.35 1.27 4.31 4.31 0 0 1-3.37-1.31 3.76 3.76 0 0 1-1-2.64 3.61 3.61 0 0 1 1-2.51 4.45 4.45 0 0 1 3.44-1.31 4.27 4.27 0 0 1 3.27 1.31 3.64 3.64 0 0 1 1.01 2.61zm-2.67 0a1.59 1.59 0 0 0-.49-1.19 1.62 1.62 0 0 0-1.19-.49 1.58 1.58 0 0 0-1.29.59 1.63 1.63 0 0 0-.4 1.09 1.66 1.66 0 0 0 .4 1.1 1.61 1.61 0 0 0 1.29.59 1.67 1.67 0 0 0 1.68-1.69zm21.63 3.62H50.2V104a2.8 2.8 0 0 1-.74.67A3.07 3.07 0 0 1 48 105a3.55 3.55 0 0 1-2.4-.92 4.06 4.06 0 0 1 0-5.89 3.47 3.47 0 0 1 2.4-.88 3.36 3.36 0 0 1 1.44.31 3.24 3.24 0 0 1 .81.62v-.7h2.56zm-2.5-3.62a1.64 1.64 0 0 0-1.64-1.64 1.54 1.54 0 0 0-1.25.58 1.6 1.6 0 0 0 0 2.12 1.54 1.54 0 0 0 1.25.58 1.59 1.59 0 0 0 1.17-.48 1.55 1.55 0 0 0 .47-1.16zm28 3.62H75.7V104a2.66 2.66 0 0 1-.74.67 3 3 0 0 1-1.48.36 3.55 3.55 0 0 1-2.4-.92 4 4 0 0 1 0-5.89 3.46 3.46 0 0 1 2.34-.88 3.37 3.37 0 0 1 1.45.31 3 3 0 0 1 .8.62v-.7h2.57zm-2.5-3.62a1.64 1.64 0 0 0-1.64-1.64 1.54 1.54 0 0 0-1.25.58 1.6 1.6 0 0 0 0 2.12 1.53 1.53 0 0 0 1.25.58 1.64 1.64 0 0 0 1.64-1.64z" class="F"/><path d="M11.16 100.96H8.88v-2.1h2.22" fill="#777"/><path d="M41 97.53l-1.88 3.7-1.93-3.7h-3l3.5 6.25-2.46 4.6 1.1-2.07.88 2.07h.88l5.8-10.86H41z" class="F"/><path d="M35.24 108.4h2l-.88-2.07-1.1 2.07z" class="G"/><path d="M12.2 94.75a4.73 4.73 0 0 0-1.11-.59 6 6 0 0 0-2-.36v2.45a2.25 2.25 0 0 1 1.36.51 3.1 3.1 0 0 1 .7 1 1.29 1.29 0 0 0 .09.16l2.62-1.1a5.5 5.5 0 0 0-1.66-2.08z" fill="#00c12d"/><path d="M9 102.77a2.52 2.52 0 0 1-1.95-.77 3.54 3.54 0 0 1-1-2.53 3.85 3.85 0 0 1 .27-1.42 2.54 2.54 0 0 1 2.52-1.86H9v-2.4a5.54 5.54 0 0 0-4.4 1.8 6.13 6.13 0 0 0-.2 7.52 5.38 5.38 0 0 0 4.5 2 5.61 5.61 0 0 0 3.12-.86l-1.4-2.08a2.26 2.26 0 0 1-1.62.61z" class="F"/><path d="M12,104.24a5,5,0,0,0,2-2.56,8.55,8.55,0,0,0,.39-2.82L11.16,101a2.09,2.09,0,0,1-.53,1.2" class="H"/><path d="M11.1 98.86H8.88v2.1h2.28l3.22-2.1H11.1z" class="G"/><path d="M79.8 100.94v-3.4h2.57" class="H"/><path d="M79.8,98.78V97.53h1" class="G"/><path d="M87 98.23a3.51 3.51 0 0 0-2.4-.92 3 3 0 0 0-1.49.36 2.55 2.55 0 0 0-.74.67v-.8l-2.57 3.4v7.45h2.57v-4.33a3 3 0 0 0 .8.62 3.41 3.41 0 0 0 1.45.32 3.49 3.49 0 0 0 2.35-.88 4.06 4.06 0 0 0 0-5.89zm-1.8 4a1.56 1.56 0 0 1-1.25.57 1.61 1.61 0 0 1-1.17-.48 1.65 1.65 0 1 1 2.43-2.24 1.69 1.69 0 0 1 0 2.15z" class="F"/><path d="M60.43 99.9v5.2H58v-3" class="G"/><path d="M64.96 94.58l-1.88 6.6-1.88-6.6H58v7.66l2.44-2.33 1.4 5.34h2.5l1.5-5.34 2.4-2.26v-3.07H65z" class="F"/><path d="M65.82 99.9v5.34h2.4v-7.6l-2.4 2.26z" class="H"/><path d="M58,103.37v1.88h2.44v-1.88Z" fill="#00c12d"/></svg>