<svg xmlns="http://www.w3.org/2000/svg" xmlns:xlink="http://www.w3.org/1999/xlink" viewBox="0 0 358 110"><defs><linearGradient id="a" x1="-2.15" y1="55" x2="355.85" y2="55" gradientTransform="matrix(1, 0, 0, -1, 0, 110)" gradientUnits="userSpaceOnUse"><stop offset="0.02" stop-color="#f5e9e4"/><stop offset="0.54" stop-color="#acdff7"/><stop offset="0.63" stop-color="#b4e0f5"/><stop offset="0.79" stop-color="#cbe3ef"/><stop offset="0.98" stop-color="#f0e8e5"/><stop offset="1" stop-color="#f5e9e4"/></linearGradient><linearGradient id="b" x1="179" y1="110" x2="179" y2="0.24" gradientTransform="matrix(1, 0, 0, -1, 0, 110)" gradientUnits="userSpaceOnUse"><stop offset="0" stop-color="#4d69b2"/><stop offset="0.22" stop-color="#3994a7"/><stop offset="0.54" stop-color="#3b95a8"/><stop offset="0.66" stop-color="#4299ac"/><stop offset="0.74" stop-color="#4ea1b3"/><stop offset="0.81" stop-color="#5fabbd"/><stop offset="0.87" stop-color="#75b8ca"/><stop offset="0.92" stop-color="#90c9db"/><stop offset="0.97" stop-color="#b0dced"/><stop offset="1" stop-color="#c7eafb"/></linearGradient><radialGradient id="c" cx="201.75" cy="-40.3" r="10.55" gradientTransform="translate(0 80)" gradientUnits="userSpaceOnUse"><stop offset="0.49" stop-color="#bc0000"/><stop offset="0.65" stop-color="#b00000"/><stop offset="0.72" stop-color="#a80000"/><stop offset="0.84" stop-color="#9e0000"/></radialGradient></defs><title>popup-must-login</title><path d="M0,0H358V110H0Z" style="fill:url(#a)"/><path d="M0,0V103.38c0,3.53,3.46,6.38,7.72,6.38H350.28c4.26,0,7.72-2.85,7.72-6.38V0Z" style="opacity:0.17000000178813934;isolation:isolate;fill:url(#b)"/><g style="opacity:0.3199999928474426"><path d="M335.66.73l-1.07,13.44a1,1,0,0,0,1,.94l19.06.87V.73Z" style="fill:#fff;opacity:0.3799999952316284;isolation:isolate"/><path d="M349,17.64,334,17a.64.64,0,0,0-.71.53l-.9,13.92a.62.62,0,0,0,.64.6h0l15,.68a.64.64,0,0,0,.71-.54l.9-13.9a.62.62,0,0,0-.6-.64h0ZM332,15.7l-26.65-1.2c-.14,0-.26.08-.26.2l-1.6,24.53a.26.26,0,0,0,.24.22l26.65,1.2a.24.24,0,0,0,.26-.2l1.58-24.53a.22.22,0,0,0-.22-.22h0ZM307.82,50.53a.64.64,0,0,0-.71.54l-.85,13.16a.6.6,0,0,0,.61.59h0l19.75.9a.64.64,0,0,0,.71-.53l.85-13.2a.61.61,0,0,0-.63-.59h0ZM326.1,80.26,327,67.09a.61.61,0,0,0-.63-.59h0l-19.76-.9a.64.64,0,0,0-.71.53L305,79.3a.61.61,0,0,0,.63.59h0l19.75.9a.64.64,0,0,0,.7-.53Zm-1.42,3.46a1,1,0,0,0-1-.92l-20.06-.9-.92,14.3,21.1,1ZM323,98.8a.31.31,0,0,0-.32-.3h0l-20.43-.93a.31.31,0,0,0-.35.26h0l-.6,9.1h21.16ZM281.85,15.16l-1.4,21.9a.6.6,0,0,0,.61.59h0l16.22.74a.64.64,0,0,0,.71-.53L299.4,16a.61.61,0,0,0-.63-.59h0l-16.2-.74a.65.65,0,0,0-.71.49Z" style="fill:#fff"/><path d="M332.17,34.7l-1,15a.62.62,0,0,0,.64.6h0l22.83,1V35.15l-21.78-1a.62.62,0,0,0-.69.54ZM328.9,50l.5-7.55a.34.34,0,0,0-.35-.33h0L303.27,41a.35.35,0,0,0-.38.29l-.5,7.55a.33.33,0,0,0,.33.33h0l25.77,1.17a.36.36,0,0,0,.39-.31v0Z" style="fill:#fff;opacity:0.3799999952316284;isolation:isolate"/><path d="M279.2,38.37l-.5,7.94a.13.13,0,0,0,.13.12l21.55,1a.11.11,0,0,0,.14-.08v0l.52-7.94a.13.13,0,0,0-.13-.12l-21.55-1a.13.13,0,0,0-.15.1Zm53.52,29.8,18.2-.76.92-14.2-21.4-1-1.76,13.3c-.2,1.5,1.74,2.77,4,2.67Z" style="fill:#fff"/><path d="M327.76,72.92l-.67,10.3,27.57,1.25v-16l-18.6.38c-4.6.14-8.16,1.83-8.3,4.06Z" style="fill:#fff;opacity:0.3799999952316284;isolation:isolate"/><path d="M332.67,14.38,333.74.73h-50l-.7,11.4a.65.65,0,0,0,.67.63h0L332,15a.67.67,0,0,0,.7-.56Zm-7.34,83,23.56,1.07a.29.29,0,0,0,.3-.23l.8-12.92a.26.26,0,0,0-.26-.25l-23.54-1.07a.29.29,0,0,0-.3.23l-.83,12.92a.26.26,0,0,0,.26.25Z" style="fill:#fff"/><path d="M325.2,99.06a.26.26,0,0,0-.29.22l-.5,7.64H347c4.2,0,7.62-2.8,7.62-6.26v-.26Z" style="fill:#fff;opacity:0.3799999952316284;isolation:isolate"/><path d="M244.42,33.22l1.18-7.46a29,29,0,0,1,3.56-9,14.24,14.24,0,0,1,3.66-3.88A8.29,8.29,0,0,1,257,11.21c.85,0,1.53.3,1.1,1s-2.38,1.36-3.2,2c-3.54,2.64-6.27,6.26-7,10.23,0,0,0,.08.07.09h0l14.66,1.3a.08.08,0,0,1,.08.07l-.1,1.7a.08.08,0,0,1-.09.07h0L248,27a.07.07,0,0,0-.09.05h0L246,37.22c-.52,2.82,1.87,5.44,5.26,5.74l25.64,2.32s.1,0,.1-.07l3.2-29.36c.23-2.07-1.43-4-3.86-4.4a52.53,52.53,0,0,0-8-1A1.59,1.59,0,0,1,266.66,9a.09.09,0,0,1,.08-.08h0l9.7.44c2.48.1,4.63-1.4,4.9-3.48L282,.72h-50.9l-2.38,37.87c-.1,1.53,1.74,2.6,3.42,2a47,47,0,0,1,6.27-1.76c3.22-.63,5.6-2.84,6-5.62Z" style="fill:#fff;opacity:0.7799999713897705;isolation:isolate"/><path d="M304.55,49.68l-26.2-1.2-.44,6.7,27.3,1.24.37-5.8a1,1,0,0,0-1-.95Z" style="fill:#fff"/><path d="M277.42,63.64l26.3,1.2A1,1,0,0,0,304.8,64l.44-6.76L277.9,56Z" style="fill:#fff;opacity:0.3799999952316284;isolation:isolate"/><path d="M277,79.23l26.15,1.18a.51.51,0,0,0,.57-.43l.84-13.07a.49.49,0,0,0-.5-.48h0l-26.14-1.2a.51.51,0,0,0-.57.43l-.85,13.08a.5.5,0,0,0,.51.48Z" style="fill:#fff;opacity:0.800000011920929;isolation:isolate"/><path d="M276.16,46.8l-24.65-1.12A.43.43,0,0,0,251,46l-.37,5.8a.41.41,0,0,0,.42.39l24.66,1.12a.42.42,0,0,0,.47-.35l.38-5.8a.41.41,0,0,0-.4-.36Z" style="fill:#fff;opacity:0.3799999952316284;isolation:isolate"/><path d="M275.9,59.72l.36-5.6-26.75-1.2-.43,6.7,25.42,1.15a1.26,1.26,0,0,0,1.4-1Zm-26.7-13.8a1,1,0,0,0-1-1L241,44.59,240,59l8.35.38Zm51.14,55.17c.15-2.36-2-4.37-4.8-4.5l-20.8-1a1.15,1.15,0,0,1-1.2-1.1v0a1.2,1.2,0,0,1,1.34-1l20.65.94c3.4.15,6.3-2,6.5-4.88l.26-4c.15-2.34-2-4.35-4.78-4.47l-21.76-1a1.16,1.16,0,0,1-1.2-1.12h0l1-15.52a1.15,1.15,0,0,0-1.18-1.12h0l-45.75-2a1.22,1.22,0,0,0-1.34,1l-1.42,22,24.9-22s3.9,23-24.94,22.65l-1.34,20.84v1.37a1,1,0,0,0,.42.77H300Zm-75.5-64.47a1.28,1.28,0,0,0,1.56-.9s0-.07,0-.1L229.3.73H191.2c-4.2,5.68-5.94,19-6.54,25.07A3.79,3.79,0,0,0,188,29.67Z" style="fill:#fff"/><ellipse cx="230.6" cy="49.73" rx="7.49" ry="6.28" style="fill:#fff"/><path d="M21.8,95.5a1.09,1.09,0,0,0-1.12-1L1.52,93.58v7.08c0,3.46,3.4,6.26,7.62,6.26H20.88Z" style="fill:#fff"/><path d="M6.86,75a.64.64,0,0,0-.71.53L5.15,91a.61.61,0,0,0,.63.59h0l16.75.76a.64.64,0,0,0,.71-.53l1-15.5a.61.61,0,0,0-.63-.59h0Z" style="fill:#fff;opacity:0.3799999952316284;isolation:isolate"/><path d="M24.6,93.8l29.5,1.34c.14,0,.26-.08.26-.2l1.76-27.16a.26.26,0,0,0-.24-.22l-29.5-1.34a.23.23,0,0,0-.26.2h0L24.36,93.58A.24.24,0,0,0,24.6,93.8ZM29.8,39l-.95,14.68a.62.62,0,0,0,.64.59l22,1a.64.64,0,0,0,.71-.53l.95-14.68a.62.62,0,0,0-.64-.59l-22-1A.64.64,0,0,0,29.8,39Zm1.4-16.62-1,14.67a.61.61,0,0,0,.63.59h0l22,1a.64.64,0,0,0,.71-.53l1-14.67a.62.62,0,0,0-.64-.6h0l-22-1A.65.65,0,0,0,31.2,22.38Zm1.54-3.68a1,1,0,0,0,1,.92l22.28,1,1-15.8L33.72,3.77ZM57.54,3.3A.32.32,0,0,0,57.89,3V3L58,.73H34.64L34.56,2a.31.31,0,0,0,.32.3h0Z" style="fill:#fff"/><path d="M56.94,94l22.44,1a.64.64,0,0,0,.71-.53l1.57-24.33a.6.6,0,0,0-.61-.59h0l-22.44-1a.63.63,0,0,0-.71.53L56.3,93.38a.62.62,0,0,0,.62.62Z" style="fill:#fff;opacity:0.3799999952316284;isolation:isolate"/><path d="M24.47,72.86l1.08-16.74a.6.6,0,0,0-.61-.59h0L1.5,54.46V72.4l22.24,1a.64.64,0,0,0,.71-.53Z" style="fill:#fff"/><path d="M56.84,65.6l.54-8.42a.33.33,0,0,0-.34-.32h0l-28.57-1.3a.35.35,0,0,0-.38.29l-.55,8.42a.34.34,0,0,0,.35.32l28.56,1.3A.35.35,0,0,0,56.84,65.6Z" style="fill:#fff;opacity:0.8999999761581421;isolation:isolate"/><path d="M83,68.76l.57-8.8a.12.12,0,0,0-.12-.12h0l-23.85-1.1a.13.13,0,0,0-.14.11l-.57,8.8a.13.13,0,0,0,.13.12l23.86,1.08a.12.12,0,0,0,.13-.1Z" style="fill:#fff"/><path d="M28.33,38.73c.22-1.63-1.93-3-4.47-2.92l-20.13.84-1,15.7,23.66,1.08Z" style="fill:#fff;opacity:0.3799999952316284;isolation:isolate"/><path d="M1.52,35.4,20.17,35c5.1-.1,9-2,9.18-4.5l.73-11.4L1.52,17.85ZM78.88,97.76a.73.73,0,0,0-.75-.7L24.75,94.64a.75.75,0,0,0-.83.62L23,106.92H78.28Z" style="fill:#fff"/><path d="M5,17.2l26.1,1.18a.27.27,0,0,0,.3-.22l.92-14.33a.26.26,0,0,0-.26-.25L6,2.38a.27.27,0,0,0-.29.23l-1,14.33a.26.26,0,0,0,.27.25H5Z" style="fill:#fff;opacity:0.3799999952316284;isolation:isolate"/><path d="M11.76.73l20.43.92a.26.26,0,0,0,.29-.21V.74ZM138.83,68.48c.1-1.68-1.93-2.88-3.78-2.22a51.75,51.75,0,0,1-6.94,1.95c-3.55.7-6.22,3.18-6.64,6.22l-1.3,8.25a32.2,32.2,0,0,1-3.93,10A15.91,15.91,0,0,1,112.18,97a9.15,9.15,0,0,1-4.62,1.82c-.94,0-1.7-.32-1.2-1.1s2.63-1.5,3.54-2.17c3.9-2.92,6.92-6.92,7.68-11.32,0,0,0-.1-.1-.1l-16.2-1.43a.09.09,0,0,1-.08-.08h0l.12-1.88a.1.1,0,0,1,.1-.08l16.12.74a.1.1,0,0,0,.1-.07L119.7,70c.57-3.12-2.08-6-5.82-6.35L85.54,61.1a.09.09,0,0,0-.11.07h0L81.9,93.63c-.24,2.3,1.6,4.4,4.28,4.87a58.84,58.84,0,0,0,8.87,1.06,1.76,1.76,0,0,1,1.86,1.56.09.09,0,0,1-.09.09h0l-10.73-.5c-2.74-.12-5.12,1.57-5.42,3.85l-.32,2.35h56Z" style="fill:#fff"/><path d="M84.46,50.15,54.3,48.78l-.42,6.5a1,1,0,0,0,1,.95L84,57.56Z" style="fill:#fff;opacity:0.3799999952316284;isolation:isolate"/><path d="M55.77,40.05a1,1,0,0,0-1.08.81l-.45,7,30.2,1.37L85,41.37ZM85.3,36l.78-11.95a.5.5,0,0,0-.52-.48h0l-29-1.32a.53.53,0,0,0-.57.43l-.77,12a.49.49,0,0,0,.5.48h0l29,1.3A.51.51,0,0,0,85.3,36v0Zm1,23.42,27.35,1.25a.43.43,0,0,0,.47-.36l.42-6.47a.41.41,0,0,0-.42-.4h0L86.8,52.2a.44.44,0,0,0-.47.35L85.9,59a.41.41,0,0,0,.4.42h0Zm30-14.16L88.07,44a1.27,1.27,0,0,0-1.4,1l-.4,6.3,29.56,1.34Zm.93,16.2,8.13.37,1-15.87-9.23-.42-1,15a1,1,0,0,0,1,1Z" style="fill:#fff"/><path d="M140.37,44.55,143.2.73H59.57c0,1.88,1.76,3.46,4,3.57L89.34,5.47,89.22,7.8h0L63.6,6.66c-3-.13-5.6,1.8-5.72,4.34l-.43,6.72c-.13,2,1.65,3.62,4,3.72l26.8,1.22h0L87,42.13l53.3,2.42s.06,0,.06,0Z" style="fill:#fff;opacity:0.6000000238418579;isolation:isolate"/><path d="M187.53,82.64c.2-2-1.4-3.84-3.74-4.28l-40.68-7.7a1.42,1.42,0,0,0-1.73,1s0,0,0,.08l-2.88,35.16h43.76c3.25-7.17,4.76-18.57,5.3-24.28Z" style="fill:#fff;opacity:0.9200000166893005;isolation:isolate"/><path d="M180,73.62c-.2-9.7-3.72-24.84-3.72-24.84l-30,.4a3.88,3.88,0,0,0-3.78,3.61l-1.13,16.07,36.43,6.6a1.82,1.82,0,0,0,2.16-1.4,2.12,2.12,0,0,0,0-.44Z" style="fill:#fff;opacity:0.8199999928474426;isolation:isolate"/><path d="M143.06,48.05l39.7-1.37c.62-4.22-5.14-17.73-5.14-17.73l-28,3.28c-3.07.35-5.4,2.4-5.63,4.93ZM184.5,76.22l3.33,1c1.57-8.35-4.24-28.85-4.24-28.85l-4.24.9,2.42,24.06a3.54,3.54,0,0,0,2.73,2.88Z" style="fill:#fff"/><path d="M145.14,12.64v16.9a1.23,1.23,0,0,0,1.31,1.11h.15l14.85-1.4a1.15,1.15,0,0,0,1.15-1.17V28l-2.48-15.5a1.27,1.27,0,0,0-1.31-1H146.45a1.22,1.22,0,0,0-1.31,1.14Z" style="fill:#fff;opacity:0.3799999952316284;isolation:isolate"/><path d="M165.22,24.62l.73,3.5L177,27.35l-2.5-6.44-7,1a2.45,2.45,0,0,0-2.28,2.61s0,.07,0,.11Zm3.83-16.06a2.12,2.12,0,0,0-2.35-1c-3.08.65-5,3.2-4.37,5.82l1.35,5.5a2,2,0,0,0,2.51,1.27l5.22-1.26a1.63,1.63,0,0,0,1.4-1.83,2.37,2.37,0,0,0-.09-.36ZM146.45.73v6.6l13,1.7,5.73-3.4-2.4-4.9Zm75.9,67.73.74-6.46v-.53a2.88,2.88,0,0,0-.31-1.28c-4.35-8.54-3.18-14.8-1.66-18.3.78-1.8-.47-3.8-2.7-4.26l-30.54-6.45a4.33,4.33,0,0,0-3.87,1,2.88,2.88,0,0,0-.87,2.75L191,68.1a3.72,3.72,0,0,0,3.66,2.61l23.67.68a3.72,3.72,0,0,0,4-2.94Z" style="fill:#fff"/><path d="M220.72,74.37c0-.2-15.8-.3-23.55-.34-2.34,0-4.3.5-4.44,1.14L192,85.83l28.75.4Z" style="fill:#fff;opacity:0.8199999928474426;isolation:isolate"/><path d="M220.72,95.2V91.85a2.61,2.61,0,0,0-2.8-2.35H194.78A2.62,2.62,0,0,0,192,91.85V95.2a2.61,2.61,0,0,0,2.81,2.35H218A2.59,2.59,0,0,0,220.72,95.2Z" style="fill:#fff;opacity:0.3799999952316284;isolation:isolate"/><path d="M188.1,106.7h30.8V101H192l-3.88,5.66Zm62.63-45.4L225.07,84h.72C254.62,84.27,250.73,61.3,250.73,61.3ZM67.34,38.92a.58.58,0,0,1-.64.5c-.25,0-.4-.1-.37-.34s.43-.38,1-.35Z" style="fill:#fff"/></g><path d="M24.12,101.15a3.69,3.69,0,0,1-1,2.58A4.32,4.32,0,0,1,19.77,105a4.31,4.31,0,0,1-3.37-1.31,3.79,3.79,0,0,1-1-2.64,3.62,3.62,0,0,1,1-2.51,4.46,4.46,0,0,1,3.44-1.31,4.27,4.27,0,0,1,3.27,1.31A3.66,3.66,0,0,1,24.12,101.15Zm-2.67,0a1.61,1.61,0,0,0-1.64-1.64,1.57,1.57,0,0,0-1.29.59,1.67,1.67,0,0,0-.4,1.09,1.71,1.71,0,0,0,.4,1.1,1.61,1.61,0,0,0,1.29.59,1.67,1.67,0,0,0,1.68-1.66v0Zm12.35,0a3.69,3.69,0,0,1-1,2.58A4.32,4.32,0,0,1,29.45,105a4.31,4.31,0,0,1-3.37-1.31,3.79,3.79,0,0,1-1-2.64,3.62,3.62,0,0,1,1-2.51,4.46,4.46,0,0,1,3.44-1.31,4.27,4.27,0,0,1,3.27,1.31A3.66,3.66,0,0,1,33.8,101.15Zm-2.67,0a1.67,1.67,0,0,0-1.68-1.68,1.57,1.57,0,0,0-1.29.59,1.67,1.67,0,0,0-.4,1.09,1.71,1.71,0,0,0,.4,1.1,1.61,1.61,0,0,0,1.29.59,1.67,1.67,0,0,0,1.68-1.66v0Zm21.63,3.62H50.2V104a2.78,2.78,0,0,1-.74.67A3.07,3.07,0,0,1,48,105a3.55,3.55,0,0,1-2.4-.92,4.06,4.06,0,0,1-.15-5.74l.15-.15a3.48,3.48,0,0,1,2.4-.88,3.39,3.39,0,0,1,1.44.31,3.23,3.23,0,0,1,.81.62v-.7h2.56Zm-2.5-3.62a1.63,1.63,0,0,0-1.64-1.64,1.55,1.55,0,0,0-1.25.58,1.59,1.59,0,0,0,0,2.12,1.55,1.55,0,0,0,1.25.58,1.61,1.61,0,0,0,1.17-.48A1.56,1.56,0,0,0,50.26,101.15Zm28,3.62H75.7V104a2.49,2.49,0,0,1-.74.67,2.92,2.92,0,0,1-1.48.36,3.55,3.55,0,0,1-2.4-.92,4,4,0,0,1-.24-5.65l.24-.24a3.47,3.47,0,0,1,2.34-.88,3.29,3.29,0,0,1,1.45.31,3,3,0,0,1,.8.62v-.7h2.57Zm-2.5-3.62a1.63,1.63,0,0,0-1.64-1.64,1.55,1.55,0,0,0-1.25.58,1.59,1.59,0,0,0,0,2.12,1.51,1.51,0,0,0,1.25.58A1.63,1.63,0,0,0,75.76,101.15Z" style="fill:#a0a0a0"/><path d="M11.16,101H8.88v-2.1H11.1" style="fill:#777"/><path d="M41,97.53l-1.88,3.7-1.93-3.7h-3l3.5,6.25-2.46,4.6,1.1-2.07.88,2.07h.88l5.8-10.86H41Z" style="fill:#a0a0a0"/><path d="M35.24,108.4h2l-.88-2.07-1.1,2.07Z" style="fill:#fdbb16"/><path d="M12.2,94.75a4.73,4.73,0,0,0-1.11-.59,6.2,6.2,0,0,0-2-.36v2.45a2.18,2.18,0,0,1,1.36.51,2.92,2.92,0,0,1,.7,1l.09.16,2.62-1.1a5.42,5.42,0,0,0-1.66-2.08Z" style="fill:#00c12d"/><path d="M9,102.77A2.51,2.51,0,0,1,7.05,102a3.53,3.53,0,0,1-1-2.53,3.81,3.81,0,0,1,.27-1.42,2.54,2.54,0,0,1,2.52-1.86H9v-2.4a5.55,5.55,0,0,0-4.4,1.8,6.13,6.13,0,0,0-.2,7.52,5.4,5.4,0,0,0,4.5,2,5.55,5.55,0,0,0,3.12-.86l-1.4-2.08a2.26,2.26,0,0,1-1.62.61Z" style="fill:#a0a0a0"/><path d="M12,104.24a5,5,0,0,0,2-2.56,8.4,8.4,0,0,0,.39-2.82L11.16,101a2.06,2.06,0,0,1-.53,1.2" style="fill:#00b8c5"/><path d="M11.1,98.86H8.88V101h2.28l3.22-2.1Z" style="fill:#fdbb16"/><path d="M79.8,100.94v-3.4h2.57" style="fill:#00b8c5"/><path d="M79.8,98.78V97.53h1" style="fill:#fdbb16"/><path d="M87,98.23a3.48,3.48,0,0,0-2.4-.92,3,3,0,0,0-1.49.36,2.49,2.49,0,0,0-.74.67v-.8l-2.57,3.4v7.45h2.57v-4.33a3,3,0,0,0,.8.62,3.45,3.45,0,0,0,1.45.32,3.5,3.5,0,0,0,2.35-.88,4.06,4.06,0,0,0,.15-5.74L87,98.23Zm-1.8,4a1.59,1.59,0,0,1-1.25.57,1.61,1.61,0,0,1-1.17-.48,1.65,1.65,0,0,1,2.43-2.24,1.7,1.7,0,0,1,0,2.15Z" style="fill:#a0a0a0"/><path d="M60.43,99.9v5.2H58v-3" style="fill:#fdbb16"/><path d="M65,94.58l-1.88,6.6-1.88-6.6H58v7.66l2.44-2.33,1.4,5.34h2.5l1.5-5.34,2.4-2.26V94.58H65Z" style="fill:#a0a0a0"/><path d="M65.82,99.9v5.34h2.4v-7.6Z" style="fill:#00b8c5"/><path d="M58,103.37v1.88h2.44v-1.88Z" style="fill:#00c12d"/><circle cx="179" cy="55" r="27.68" style="fill:#fff"/><circle cx="179" cy="55" r="24.2" style="fill:#e0e9fd"/><circle cx="178.84" cy="50.58" r="9.33" style="fill:#4285f4"/><path d="M179,79.2a24.08,24.08,0,0,0,15.7-5.78c-.23-6.28-7.19-11.32-15.77-11.32s-15.42,5-15.77,11.17A24.14,24.14,0,0,0,179,79.2Z" style="fill:#4285f4"/><path d="M201.74,31.81a7.89,7.89,0,1,0,7.9,7.89h0a7.9,7.9,0,0,0-7.9-7.89Z" style="opacity:0.81;fill:url(#c)"/><path d="M202.68,39.72,205.37,37a.65.65,0,0,0,0-.91l0,0a.65.65,0,0,0-.91,0l-2.69,2.68-2.65-2.65a.65.65,0,0,0-.91,0l0,0a.63.63,0,0,0,0,.91l2.65,2.65-2.63,2.63a.65.65,0,0,0,0,.91l0,0a.65.65,0,0,0,.91,0l2.63-2.63,2.66,2.65a.63.63,0,0,0,.9,0l0,0a.65.65,0,0,0,0-.91Z" style="fill:#f9f9f9"/></svg>