<?xml version="1.0" encoding="utf-8"?>
<!-- Generator: Adobe Illustrator 24.0.2, SVG Export Plug-In . SVG Version: 6.00 Build 0)  -->
<svg version="1.1" id="Layer_1" xmlns="http://www.w3.org/2000/svg" xmlns:xlink="http://www.w3.org/1999/xlink" x="0px" y="0px"
	 viewBox="0 0 96 96" style="enable-background:new 0 0 96 96;" 
	 
	 	 width="96"
	 height="96"
	 xml:space="preserve">
<style type="text/css">
	.st0{fill:#F6B900;}
	.st1{fill:#8E6E25;}
</style>
<g id="XMLID_1_">
	<g id="XMLID_3_">
		<polygon class="st0" points="48,69.1 25.8,81 30.6,56.7 12.1,39.9 37.2,36.7 48,14.3 58.8,36.7 83.9,39.9 65.4,56.7 70.2,81 		"/>
		<path class="st1" d="M48,17.8l9.8,20.3L80.5,41L63.8,56.2l4.3,22L48,67.4L27.9,78.2l4.3-22L15.5,41l22.7-2.9L48,17.8 M48,10.9
			l-2.7,5.6l-9.1,18.8L15.1,38l-6.4,0.8l4.8,4.4l15.5,14.1l-4,20.3l-1.2,6.2l5.6-3l18.7-10l18.7,10l5.6,3L71,77.6l-4-20.3l15.5-14.1
			l4.8-4.4L80.9,38l-21.1-2.7l-9.1-18.8L48,10.9L48,10.9z"/>
	</g>
</g>
</svg>
