<svg xmlns="http://www.w3.org/2000/svg" viewBox="0 0 399 399"><path d="M202.9 378.3h-.1.1zm1.8-.3h-.2c.1.1.1 0 .2 0zm-5.4-358.5v-20c-14.2 0-28.4 5.4-39.2 16.2l-144 144c-21.7 21.7-21.7 56.8 0 78.5l144 144c10.4 10.4 24.5 16.3 39.2 16.2v-20a35.44 35.44 0 0 1-25.1-10.4l-144-144a35.43 35.43 0 0 1 0-50.2l144-144c6.9-6.9 15.9-10.3 24.9-10.4m7.2 358.4z" fill="#333"/><path d="M382.6 159.7l-144-144C228.2 5.3 214-.5 199.3-.5v20a35.42 35.42 0 0 1 25.1 10.4l144 144a35.43 35.43 0 0 1 0 50.2l-144 144c-6.6 6.7-15.7 10.4-25.1 10.4v20c14.7 0 28.8-5.8 39.2-16.2l144-144c21.7-21.7 21.7-56.9.1-78.6z" fill="#1a1a1a"/><path d="M199.3 388.5V9.5c-11.6 0-23.3 4.4-32.2 13.3l-144 144c-17.8 17.8-17.8 46.6 0 64.3l144 144a45.5 45.5 0 0 0 34.4 13.3c-.7.1-1.5.1-2.2.1z" fill="#f9bc5f"/><path d="M375.5 166.8l-144-144c-8.5-8.6-20.1-13.4-32.2-13.3v379c12.1 0 23.6-4.8 32.2-13.3l144-144c17.7-17.8 17.8-46.6 0-64.4z" fill="#f4a337"/><g fill="#333"><path d="M199 252.1c-12.2 14.2-22.2 22.5-22.2 22.5H199v-22.5zM165.1 87.4h-17.8s59.3 20.4 39.6 71.9c-16.4 41.3-74.1 90.7-96.1 108.5-2 1.6-7.4 6.4-7.4 6.4l14.3.5H156s20.8-15.7 41-40.1c1.6-2 3.1-3.8 2.2-2.8V103.5"/><path d="M192.1 87.4h-17.8s11.4 3.4 24.7 11.1v-8.9"/></g><path d="M199 89.6v8.9c22.2 12.6 50 36.6 41.8 75.3-7 32.5-26.3 60.3-41.8 78.4v22.5h54.3s39.6-33.6 39.6-96.2c0-52.2-71-80.9-93.9-88.9zm0 13.9v128.3c14.1-17.6 27.7-39.2 33.3-62.6 7.5-31.2-13-52.7-33.3-65.7z" fill="#1a1a1a"/></svg>