<svg xmlns="http://www.w3.org/2000/svg" viewBox="0 0 399 399"><path d="M203.1 378.8h-.1.1zm1.8-.3h-.2c.1.1.1 0 .2 0zM199.5 20V0c-14.2 0-28.4 5.4-39.2 16.2l-144 144c-21.7 21.7-21.7 56.8 0 78.5l144 144c10.4 10.4 24.5 16.3 39.2 16.2v-20a35.44 35.44 0 0 1-25.1-10.4l-144-144a35.43 35.43 0 0 1 0-50.2l144-144c6.9-6.9 15.9-10.3 24.9-10.4m7.2 358.4z" fill="#333"/><path d="M382.8 160.2l-144-144C228.4 5.8 214.2 0 199.5 0v20a35.42 35.42 0 0 1 25.1 10.4l144 144a35.43 35.43 0 0 1 0 50.2l-144 144c-6.6 6.7-15.7 10.4-25.1 10.4v20c14.7 0 28.8-5.8 39.2-16.2l144-144c21.7-21.7 21.7-56.9.1-78.6z" fill="#1a1a1a"/><path d="M199.5 389V10c-11.6 0-23.3 4.4-32.2 13.3l-144 144c-17.8 17.8-17.8 46.6 0 64.3l144 144a45.5 45.5 0 0 0 34.4 13.3c-.7.1-1.5.1-2.2.1z" fill="#00d252"/><path d="M375.7 167.3l-144-144c-8.5-8.6-20.1-13.4-32.2-13.3v379c12.1 0 23.6-4.8 32.2-13.3l144-144c17.7-17.8 17.8-46.6 0-64.4z" fill="#00bf44"/><path d="M258.1 134l-23.4 45.2-23.4-45.2H198v52.3l16.8 30.3v43.3h39.8l.2-43.3 46.9-82.6h-6.2zM198 235v24.9h15z" fill="#1a1a1a"/><path d="M188.5 169.1l9.5 17.2V134h-28.9l-15.2 30.1-15.3-30.1H98.9l35.1 60.5-39.2 65.4h40.3l18.8-35.7 18.7 35.7H198V235l15 24.9-39.3-65.4z" fill="#333"/></svg>