<svg xmlns="http://www.w3.org/2000/svg" xmlns:xlink="http://www.w3.org/1999/xlink" viewBox="0 0 120 150.1"><style><![CDATA[.s{enable-background:new }.t{fill:#eea886}.u{fill:#a0a0a0}.v{fill:#fdbb16}.w{fill:#bbc1c9}.x{fill:#231f20}.y{fill:#00b8c5}]]></style><linearGradient id="A" gradientUnits="userSpaceOnUse" x1="0" y1="75" x2="120" y2="75"><stop offset="0" stop-color="#f5f5f5"/><stop offset=".54" stop-color="#aee1f9"/><stop offset=".63" stop-color="#b6e2f7"/><stop offset=".79" stop-color="#cde5f1"/><stop offset="1" stop-color="#f5f5f5"/></linearGradient><path d="M0 0h120v150H0z" fill="url(#A)"/><linearGradient id="B" gradientUnits="userSpaceOnUse" x1="12.96" y1="43.534" x2="29.68" y2="43.534"><stop offset="0"/><stop offset=".61" stop-color="#fafbfb"/><stop offset="1" stop-color="#fff"/></linearGradient><path d="M25.7 41.3a4.58 4.58 0 0 0-5.5-3.3 4.6 4.6 0 0 0-3.3 3.3c-2.2.3-3.7 2.3-3.4 4.5.3 1.8 1.6 3.1 3.4 3.4h8.8c2.2-.3 3.7-2.3 3.4-4.5a3.83 3.83 0 0 0-3.4-3.4z" opacity=".02" fill="url(#B)" enable-background="new "/><linearGradient id="C" gradientUnits="userSpaceOnUse" x1="0" y1="139.2" x2="120" y2="139.2"><stop offset="0" stop-color="#e5e5e5"/><stop offset=".82" stop-color="#fff" stop-opacity=".2"/></linearGradient><path d="M63.3 147.4c-51.1 0-63.3-19-63.3-19V150h120s-5.7-2.6-56.7-2.6z" fill="url(#C)"/><linearGradient id="D" gradientUnits="userSpaceOnUse" x1="0" y1="11.25" x2="120" y2="11.25"><stop offset="0" stop-color="#e5e5e5"/><stop offset=".82" stop-color="#fff" stop-opacity=".2"/></linearGradient><path d="M56.7 3C107.8 3 120 22.1 120 22.1V.4H0S5.7 3 56.7 3z" fill="url(#D)"/><path d="M28.1 97.8h75.3v-54c.1-1.1-.8-2.1-1.9-2.2H28.1c-1.1.1-2 1.1-1.9 2.2v54h1.9z" fill="#808285"/><path d="M103.4 98H26.2c-.1 0-.2-.1-.2-.2v-54c-.1-1.2.8-2.3 2.1-2.4h73.4c1.2.1 2.2 1.2 2.1 2.4v54c0 .1-.1.2-.2.2m-77-.4h76.9V43.8c.1-1.1-.7-2-1.8-2H28.1c-1.1.1-1.8 1-1.8 2l.1 53.8z" class="w"/><path d="M31 47h67.7v45.4H31z" fill="#fff"/><path d="M85 62.6L63.5 81.8l-6-5.4L90.4 47h-5.7l-4 3.6-4-3.6h-5.8l6.9 6.2-7.1 6.3L56.6 47h-9.5l-3.7 3.3-3.6-3.3H34l6.5 5.8-7.1 6.3v5.1l8.5-7.6-.8 29.1-7.4 6.6h5.7l15.1-13.5 6 5.4-9 8.1h5.7l6.2-5.5 6.1 5.4-.1.1h5.7l10.6-9.4c1.7 1.7 4 2.7 6.4 2.7 1.4 0 2.8-.6 3.9-1.6l2.5-2.2v-5.1l-5.4 4.8-.1.1c-.2.3-.6.4-1 .4-1.3-.1-2.5-.7-3.4-1.7l8-7.2 2 1.7v-8.6L72.4 89.7l-6.1-5.4 20.3-18.1 12-.4v-3.6l-13.6.4zM45.4 82l.8-29.1 5.7-5.1L67.8 62 45.4 82z" fill="#a7a9ac"/><path d="M94 47l4.7 4.1V47zm4.7 45.4v-3l-3.4 3z" fill="#808285"/><path d="M48 53.1l.1 7.8 8.3-7.5-4.5-3.7zm10.5 31.6l-4.3-3.9-4.6 4.2 4.3 3.8zm2-35.7l1.5-1.4-.7-.6h-3.1zm1.7 10.2l-5.8 7.3-1.1 4.7 10.2-9.1zm4.4-6.2c.4-.3.4-.9.1-1.3l-.1-.1a1.09 1.09 0 0 0-1.5 0c-.4.3-.4.9-.1 1.3l.1.1c.4.4 1 .4 1.5 0zm12.2 39.4h12.9l.9-.9-6.4-5.7zm-6.4-36.8l3.1-2.7-6.6-5.9h-6.1zm-19 8.8c-.6.5-.7 1.3-.2 1.9l.2.2c.7.6 1.7.6 2.4 0 .6-.5.6-1.4.1-2 0-.1-.1-.1-.1-.1-.7-.6-1.7-.6-2.4 0zm5.8-3.6c1.1-.9 1.2-2.5.3-3.6l-.3-.3c-1.3-1.1-3.1-1.1-4.4 0-1.1.9-1.2 2.5-.3 3.6l.3.3c1.2 1.1 3.1 1.1 4.4 0zM47.9 76.7c.7.6 1.7.6 2.4 0 .6-.5.7-1.3.2-1.9l-.2-.2c-.7-.6-1.7-.6-2.4 0-.6.5-.7 1.4-.2 1.9.1.1.2.1.2.2zm32.2-28.4l1.4-1.3h-2.9zm2.7 7.5l5.1 4.5 4.4-3.9-5.1-4.6zm3.5 11.9l-5.2 4.6 4.7 4.2 5.1-4.6zm9.2 22.6l3.2-2.9V84l-5.1 4.5zm-7.6-40l10.8 9.6v-6.4l-7.2-6.4zM51.8 89.7l-3.7-3.4-6.8 6.1h7.5zm11.9-.6l-3.6 3.3h7.2zM36 82.9a1.73 1.73 0 0 0-.2 2.4c.1.1.1.2.2.2.9.8 2.1.8 3 0 .7-.6.8-1.7.2-2.5-.1 0-.1 0-.2-.1-.9-.7-2.1-.7-3 0zm-1.8 4.2a1.08 1.08 0 0 0-.7-.3v2.6c.3-.1.5-.2.7-.4.5-.4.6-1.2.1-1.7 0-.1 0-.1-.1-.2zm8.2-39.3c.5.4 1.2.4 1.7 0 .2-.2.4-.5.4-.8H42c.1.3.2.6.4.8z" fill="#d8d8d8"/><path d="M51.6 73.4l.8-11.6-4.4-.2-.4 11.9zm18.2-17.5c.5-.4.5-1.1.1-1.6l-.1-.1c-.5-.5-1.3-.5-1.9 0-.5.4-.5 1.1-.1 1.5 0 .1.1.1.1.1.5.6 1.4.6 1.9.1zm-6 22.2l19.3-17.3L80 58 60.6 75.3zm.2-27.3c.5-.4.5-1.2.1-1.7L64 49a1.52 1.52 0 0 0-2 0c-.5.4-.6 1.1-.2 1.6 0 .1.1.1.2.2a1.52 1.52 0 0 0 2 0zm19.5 27.1l-1.8-1.6-9.8 8.8h3.6zm-50-21l4-3.5-2.1-1.9-1.9 1.7zm3.3 16.9l-3.3 3v6.4l6.9-6.1zm-3.3-23.7l.9-.8-.9-.9zm0 18.1l5.9 5.3.5-13.5-6.4 5.8z" fill="#a5a5a5"/><path d="M73.5 92.1c-.2 0-.3-.1-.5-.2-.2-.2-.3-.5-.1-.7 0 0 0-.1.1-.1l1.8-1.6c.3-.2.7-.2.9 0s.3.5.1.7c0 0 0 .1-.1.1L74 91.9c-.1.1-.3.2-.5.2zm-1.9 0c-.2 0-.3-.1-.4-.2l-1.9-1.6c-.2-.2-.3-.5-.1-.8l.1-.1c.3-.2.7-.2.9 0L72 91c.2.2.3.5.1.8l-.1.1-.4.2zm5.6-3.3c-.2 0-.3-.1-.5-.2-.2-.2-.3-.5-.1-.8l.1-.1 1.8-1.6c.3-.2.7-.2.9 0s.3.5.1.8l-.1.1-1.8 1.7c-.1 0-.2.1-.4.1zm-9.3 0c-.2 0-.3-.1-.4-.2L65.6 87c-.2-.2-.3-.5-.1-.7 0 0 0-.1.1-.1.3-.2.7-.2.9 0l1.9 1.6c.2.2.3.5.1.8l-.1.1c-.1 0-.3.1-.5.1zm-3.7-3.3c-.2 0-.3-.1-.5-.2l-1.9-1.6c-.2-.2-.3-.5-.1-.8l.1-.1c.3-.2.7-.2.9 0l1.9 1.6c.2.2.3.5.1.8l-.1.1c-.1.2-.2.2-.4.2zm16.7 0c-.2 0-.3-.1-.5-.2-.2-.2-.3-.5-.1-.8l.1-.1 1.8-1.6c.3-.2.7-.2.9 0s.3.5.1.8l-.1.1-1.8 1.6c-.1.2-.3.2-.4.2zm9.5-1.5h-.2c-.9-.3-1.7-.8-2.3-1.4-.2-.2-.3-.5-.1-.8l.1-.1c.3-.2.7-.2.9 0 .6.5 1.2.9 1.9 1.2.3.1.5.4.4.7v.1a1.08 1.08 0 0 1-.7.3zm-29.9-1.7c-.2 0-.3-.1-.5-.2l-1.9-1.6c-.2-.2-.3-.5-.1-.7 0 0 0-.1.1-.1.3-.2.7-.2.9 0l1.9 1.6c.2.2.3.5.1.8l-.1.1c-.1 0-.3.1-.4.1zm24.1-.1c-.2 0-.3-.1-.5-.2-.2-.2-.3-.5-.1-.7 0 0 0-.1.1-.1l1.6-1.4c.3-.2.6-.2.9 0l.3.2a.61.61 0 0 1 0 .8c-.2.2-.4.2-.7.2L85 82.1c-.1.1-.3.1-.4.1zM56.8 79c-.2 0-.3-.1-.5-.2l-1.9-1.6c-.2-.2-.3-.5-.1-.8l.1-.1c.3-.2.6-.2.9 0l1.9 1.6c.2.2.3.5.1.8l-.1.1a.76.76 0 0 1-.4.2zm-.8-3.3c-.2 0-.3-.1-.5-.2-.2-.2-.3-.5-.1-.8l.1-.1 1.8-1.7c.3-.2.7-.2.9 0s.3.5.1.8l-.1.1-1.8 1.7c-.1.2-.2.2-.4.2zm3.6-3.3c-.2 0-.3-.1-.5-.2-.2-.2-.3-.5-.1-.8l.1-.1 1.8-1.7c.3-.2.7-.2.9 0s.3.5.1.8l-.1.1-1.8 1.7c0 .1-.2.2-.4.2zm3.6-3.3c-.2 0-.3-.1-.5-.2-.2-.2-.3-.5-.1-.8l.1-.1 1.8-1.7c.3-.2.7-.2.9 0s.3.5.1.7c0 0 0 .1-.1.1l-1.8 1.7c0 .2-.2.2-.4.3zm3.6-3.4c-.2 0-.3-.1-.4-.2-.2-.2-.3-.5-.1-.7 0 0 0-.1.1-.1l1.8-1.7c.3-.2.6-.2.9 0 .2.2.3.5.1.8l-.1.1-1.8 1.7c-.1 0-.3.1-.5.1zm3.7-3.3c-.2 0-.3-.1-.5-.2v-.1l-1.8-1.5c-.2-.2-.3-.5-.1-.8l.1-.1c.3-.2.7-.2.9 0l1.9 1.6c.1.1.2.2.2.4s-.1.3-.2.4a.55.55 0 0 1-.5.3zm-3.8-3.3c-.2 0-.3-.1-.4-.2l-1.9-1.6c-.2-.2-.3-.5-.1-.8l.1-.1c.3-.2.6-.2.9 0l1.9 1.6c.2.2.3.5.1.8l-.1.1c-.1.2-.3.2-.5.2zM63 55.9c-.2 0-.3-.1-.5-.2l-.7-.6c-.5-.5.3-1.5.8-1l.8.7c.2.2.3.5.1.7 0 0 0 .1-.1.1-.1.2-.2.3-.4.3z" fill="#48dbfb"/><linearGradient id="E" gradientUnits="userSpaceOnUse" x1="91.05" y1="80.18" x2="91.05" y2="125.68"><stop offset="0" stop-color="#f23043"/><stop offset="1" stop-color="#b62432"/></linearGradient><path d="M91 76.5c-1.2 0-2.2.9-2.2 2.2 0 1.2 2.3 5.4 2.3 5.4s2.2-4.2 2.2-5.4c-.1-1.2-1.1-2.2-2.3-2.2z" fill="url(#E)"/><path d="M92.4 78.7c0-.8-.6-1.5-1.4-1.6-.8 0-1.5.6-1.6 1.4 0 .8.6 1.5 1.4 1.6h.1c.9 0 1.5-.6 1.5-1.4z" fill="#f9f9d0"/><path d="M61.7 47.3c-1.3-.1-2.4.9-2.5 2.2 0 1.2 2.5 5.6 2.5 5.6s2.5-4.3 2.5-5.6c-.1-1.3-1.2-2.3-2.5-2.2z" fill="#1e9afe"/><path d="M63.4 49.5a1.77 1.77 0 0 0-1.5-1.9 1.77 1.77 0 0 0-1.9 1.5 1.77 1.77 0 0 0 1.5 1.9h.2c.9.1 1.6-.6 1.7-1.5z" fill="#f9f9d0"/><use xlink:href="#L" class="w"/><use xlink:href="#L" fill="none" stroke="#808285" stroke-width=".62" stroke-miterlimit="10"/><path d="M51 98.1c.1.6.7.9 1.2.9h25.1c.6 0 1.1-.3 1.2-.9H51z" class="w"/><path d="M51 98.1c.1.6.7.9 1.2.9h25.1c.6 0 1.1-.3 1.2-.9H51z" fill="none" stroke="#939598" stroke-width=".62" stroke-miterlimit="22.93"/><linearGradient id="F" gradientUnits="userSpaceOnUse" x1="59.94" y1="117.846" x2="83.1" y2="117.846"><stop offset=".42" stop-color="#e6e7e8"/><stop offset=".68" stop-color="#eeefef"/><stop offset="1" stop-color="#fff"/></linearGradient><path d="M77.6 114.7c-.9-3.3-4.3-5.4-7.6-4.5a6.39 6.39 0 0 0-4.5 4.5c-3 0-5.5 2.5-5.5 5.5s2.5 5.5 5.5 5.5h12.1c3 0 5.5-2.5 5.5-5.5s-2.4-5.5-5.5-5.5z" opacity=".2" fill="url(#F)" enable-background="new "/><linearGradient id="G" gradientUnits="userSpaceOnUse" x1="93.9" y1="20.533" x2="66.544" y2="20.533"><stop offset="0"/><stop offset=".61" stop-color="#fafbfb"/><stop offset="1" stop-color="#fff"/></linearGradient><path d="M73 16.8c1-4 5-6.3 9-5.3 2.6.7 4.7 2.7 5.3 5.3h.1c2.6 0 4.9 1.5 5.9 3.9 1.4 3.3-.1 7.1-3.4 8.6-.8.4-1.7.5-2.6.5H73a6.49 6.49 0 0 1-6.5-6.5c0-.7.1-1.5.4-2.2.9-2.6 3.3-4.3 6.1-4.3z" opacity=".02" fill="url(#G)" enable-background="new "/><linearGradient  gradientUnits="userSpaceOnUse" x1="77.9" y1="186" x2="77.9" y2="186"><stop offset="0" stop-color="#e76e75"/><stop offset="1" stop-color="#c72737"/></linearGradient><path d="M22.5 50.7c-8 0-14.5 6.5-14.5 14.5s14.5 36.2 14.5 36.2S37 73.3 37 65.3s-6.5-14.5-14.5-14.6zm0 24.2c-5.4 0-9.7-4.3-9.7-9.7s4.3-9.7 9.7-9.7 9.7 4.3 9.7 9.7c0 5.3-4.4 9.7-9.7 9.7z" fill="#db5d5d"/><linearGradient id="I" gradientUnits="userSpaceOnUse" x1="23.975" y1="52.375" x2="34.115" y2="90.225"><stop offset="0" stop-color="#afafaf"/><stop offset=".4" stop-color="#ccc"/><stop offset="1" stop-color="#fff"/></linearGradient><path d="M22.5 50.8c-3 0-6 .9-8.4 2.7.6 1.6 1.8 2.8 3.4 3.4 4.6-2.8 10.5-1.4 13.3 3.2 2.4 4 1.7 9.1-1.7 12.2-.1 1.3-.4 2.7-.7 4-1.3 5.4 0 7.7 2 8.8 3.4-7.7 6.7-16 6.7-19.8 0-8-6.5-14.5-14.6-14.5z" opacity=".28" fill="url(#I)" enable-background="new "/><linearGradient id="J" gradientUnits="userSpaceOnUse" x1="16" y1="50.45" x2="16" y2="113.97"><stop offset="0" stop-color="#fff"/><stop offset="1" stop-color="#828282"/></linearGradient><path d="M24 50.9c-.5 0-1-.1-1.5-.1-8 0-14.5 6.5-14.5 14.5s14.5 36.2 14.5 36.2l1.5-3C20.3 91 11 71.7 11 65.3c0-7.4 5.6-13.6 13-14.4z" opacity=".56" fill="url(#J)" enable-background="new "/><g fill="#414042"><path d="M51.5 91.8c-.1.7-4 3.4-4.8 4-.7.4-1.4.8-2.1 1l-15.5 4.6c0-.1-.1-.3-.1-.4-.5.2-1 .3-1.3.4-.5.2-4.5.3-5.3.4s-2.4.4-3.1-.2.4-2 1.3-2.3c1.6-.3 3.2-.5 4.8-.5.6-.1 1.1-.2 1.7-.2l1.3-.3v-.4l3.5-1-.6-6.2s1.5-5.8 7.6-1.4l1.8.5h.2c.9-.1 4.9-1.3 6.4-1.3s2.1-.1 2.6.2c.8.8 1.4 1.9 1.6 3.1z"/><path d="M45.2 101.6c-.7.6-2.3.4-3.1.2s-4.8-.3-5.3-.4c-.7-.2-1.4-.4-2.1-.8-.1-.1-.2-.1-.3-.2l-1 .7-13.8-4.4c-.7-.2-1.4-.5-1.9-1-.7-.6-4.7-3.3-4.8-4 .2-1.2.8-2.3 1.6-3.1.6-.3 1.1-.2 2.6-.2s6.1 1.4 6.5 1.3.7-.3 1.1-.5l1-.6c6.7-3 7.5 1.9 7.5 1.9l-.4 6 1.3.6 3.3.9-.4.4c.1.1.2.1.4.1.6 0 1.2 0 1.7.2 1.6 0 3.2.2 4.8.5.9.4 1.9 1.8 1.3 2.4z"/></g><path d="M24.8 89.3c1.5.7 2.9 1.4 4.3 2.3l-5.4-1.8 1.1-.5z" fill="#5478b3"/><path d="M40.8 89.8a67.13 67.13 0 0 0-6.4 1.8s2.8-2.2 4.3-2.4l1.9.6h.2z" class="x"/><path d="M45.2 101.6c-.7.6-2.3.4-3.1.2s-4.8-.3-5.3-.4l-.5-.2c-.5-.1-1.1-.4-1.6-.7-.1-.1-.2-.1-.3-.2l2.5-1.8h.1c.1.1.2.1.4.1.6 0 1.2 0 1.7.2 1.6 0 3.2.2 4.8.5.9.3 1.9 1.7 1.3 2.3z" class="t"/><path d="M45.2 101.6c-.7.6-2.3.4-3.1.2s-4.8-.3-5.3-.4l-.5-.2c.7-.7.9-1.7.6-2.6h.1c.1.1.2.1.4.1.6 0 1.2 0 1.7.2 1.6 0 3.2.2 4.8.5.9.2 1.9 1.6 1.3 2.2z" fill="#f1f2f2"/><path d="M26.1 90.7z" fill="#e55353"/><path d="M44.2 83.4c-1.4-2.1-2.6-4.3-3.7-6.6-.6-1.5-1.9-2.7-3.5-3.3l-1.4-.5-2.2-.7h-3.6l-2.6.9-3 1.1c-.9.5-2.5 3.7-2.8 4.1a27.97 27.97 0 0 0-3 6.6c-.3 1.3 7.6 5.2 7.8 5.7l1.4-1.4-.9-.6h8.5c.2.2 1.7 1.5 1.7 1.5 1.9-.8 3.7-1.9 5.3-3.2 2.3-2.5 2.2-3.1 2-3.6zm-20.7 2.9c-.8-.9-1.9-1.5-1.6-1.9s2.6-4.4 2.6-4.4c.6 1.3 1.1 2.6 1.5 4 .3.8.3 1.6.2 2.4-.2.6-.3 1.2-.3 1.8-.9-.6-1.7-1.2-2.4-1.9zm16.1-.4c-.8.7-1.7 1.2-2.6 1.8l-.2-2.4c0-1.1.2-2.2.6-3.2.3-.9.5-1.7.6-2.6l3.2 4.1c.4.4-.6 1.1-1.6 2.3z" fill="#4a98d8"/><g class="t"><path d="M32 62.3s2.8.5 2.4 4.9-2.9 4.1-3.1 4.1-2.5.1-2.7-5.3c0-.1-.1-4.1 3.4-3.7z"/><path d="M34.4 66s.3-.3.4 0c-.1.7-.2 1.3-.4 1.9l-.1.1c0-.7 0-1.3.1-2zm-5.8-.1s-.3-.3-.4 0c0 .7.2 1.3.4 1.9l.1.1c.1-.7 0-1.4-.1-2z"/></g><path d="M34.4 66.6l-.4.6v-1.4c-.1-.2-.2-.8-.2-.9-1.5-.5-3.1-.5-4.5.2 0 0 .1.9-.1.9s-.2 1.4-.2 1.4l-.3-.4-.4-3.8c.1-.4.5-2.5 4.8-1.2 0 0 1.3-.3 1.6.7s-.3 3.9-.3 3.9z" fill="#434343"/><path d="M27.8 95.1s-4.4-2.6-6.3-3c-.9-.1-1.7-.5-2.5-1.1 1.7 0 3.3.5 4.8 1.3l4 2.8zm3.8 1.8s7.6-4 10.7-4.8c.9-.2 1.7-.6 2.5-1.1 0 0-4.7.5-7.5 2.2-1.4.8-5.7 3.7-5.7 3.7z" class="x"/><path d="M28.9 100.9c-.5.2-1 .3-1.3.4-.5.2-4.5.3-5.3.4s-2.4.4-3.1-.2.4-2 1.3-2.3c1.6-.3 3.2-.5 4.8-.5.6-.1 1.1-.2 1.7-.2l1.3-.3.6 2.7z" class="t"/><path d="M31.6 100.6l7.4-2.2-1.5-.4c.1-.1-5.8 2.1-5.9 2.6z" fill="#414042"/><path d="M31.6 100.6l3.5-1.1-2.4 1.4z" class="x"/><path d="M29.3 91.7l-.2-.1.2.1z" fill="#525252"/><path d="M27.5 101.4c-.5.2-4.5.3-5.3.4s-2.4.4-3.1-.2.4-2 1.3-2.3c1.6-.3 3.2-.5 4.8-.5.6-.1 1.1-.2 1.7-.2-.5.9-.3 2.1.6 2.8z" fill="#f1f2f2"/><path d="M25.1 91L24 84.5l14.8-.3-1 6.4c-2.2.8-4.3 1.7-6.3 2.8-.1-.1-4.1-1.7-6.4-2.4z" fill="#d6d6d6"/><path d="M33.7 72.2l-.4-.2c-.1-.7-.1-1.4 0-2.1 0 0-3.6-.9-3.5-.2 0 .8-.1 1.6-.3 2.3l-1.9 1s2 5.3 4.3 4.6 3.1-4.8 3.1-4.8l-1.3-.6z" class="t"/><path d="M29.8 70.6c.4.5 1 .7 1.6.8.7 0 1.4-.3 1.8-.8-.2.8-1 1.3-1.8 1.3-.7-.1-1.4-.6-1.6-1.3z" fill="#a77860"/><g class="u"><use xlink:href="#M"/><use xlink:href="#M" x="5.1"/><path d="M27 143.2c-.1-.2-.3-.3-.4-.3-.2-.1-.5-.2-.8-.2-.5 0-.9.2-1.2.5-.5.4-.7.9-.7 1.6 0 .6.2 1.2.7 1.5.4.3.8.5 1.3.5.3 0 .6-.1.8-.2.1-.1.3-.2.4-.4v.4h1.3v-3.8H27v.4zm-.2 2.2c-.2.2-.4.2-.6.2-.3 0-.5-.1-.7-.3-.1-.2-.2-.3-.2-.6 0-.2.1-.4.2-.6.2-.2.4-.3.7-.3.2 0 .4.1.6.3s.3.4.3.6c-.1.3-.1.5-.3.7zm13.6-2.2c-.1-.2-.3-.3-.4-.3-.2-.1-.5-.2-.8-.2-.5 0-.9.2-1.2.5-.5.4-.7.9-.7 1.6 0 .6.2 1.2.7 1.5.4.3.8.5 1.3.5.3 0 .6-.1.8-.2.1-.1.3-.2.4-.4v.4h1.3v-3.8h-1.3v.4zm-.2 2.2c-.2.2-.4.2-.6.2-.3 0-.5-.1-.7-.3-.1-.2-.2-.3-.2-.6 0-.2.1-.4.2-.6.2-.2.4-.3.7-.3.2 0 .4.1.6.3s.3.4.3.6c-.1.3-.1.5-.3.7zm-19-.6l-1-1.9h-1.6l1.8 3.2-1.3 2.5.6-1.1.5 1.1h.4l3.1-5.7h-1.5z"/></g><path d="M19.1 148.6h1.1l-.5-1.1z" class="v"/><path d="M6.1 142.4c.1.1.3.3.4.5v.1l1.4-.6c-.2-.5-.5-.8-.8-1.1l-.6-.3c-.3-.1-.7-.2-1.1-.2v1.3c.2.1.5.2.7.3z" fill="#00c12d"/><path d="M5.3 145.6c-.4 0-.8-.1-1-.4-.3-.4-.5-.8-.5-1.3 0-.3 0-.5.1-.7.2-.7.7-1 1.3-1h.1v-1.3c-1 0-1.8.3-2.3.9s-.7 1.2-.7 2.1c0 .7.2 1.4.6 1.9.5.7 1.3 1 2.4 1 .6 0 1.2-.2 1.6-.5l-.7-1.1c-.2.3-.5.4-.9.4z" class="u"/><path d="M6.2 145.3l.7 1.1c.5-.3.8-.8 1-1.3.1-.4.2-.9.2-1.5l-1.7 1.1c0 .2-.1.4-.2.6z" class="y"/><path d="M5.3 143.6v1.1h1.2l1.7-1.1H6.4z" class="v"/><path d="M43.1 142.9l-.5.6v1.1l1.3-1.7z" class="y"/><path d="M42.6 142.9v.6l.5-.6z" class="v"/><path d="M46.3 143.2c-.4-.3-.8-.5-1.3-.5-.3 0-.6.1-.8.2-.1.1-.3.2-.4.4v-.4l-1.3 1.8v3.9h1.3v-2.3c.1.2.3.3.4.3.2.1.5.2.8.2.5 0 .9-.2 1.2-.5.5-.4.7-.9.7-1.6.1-.6-.1-1.1-.6-1.5zm-.9 2.1c-.2.2-.4.3-.7.3-.2 0-.4-.1-.6-.3s-.3-.4-.3-.6.1-.4.3-.6.4-.3.6-.3c.3 0 .5.1.7.3.1.2.2.3.2.6s-.1.5-.2.6z" class="u"/><path d="M31.1 145.9h1.3v-1.8l-1.3 1.2v.6z" class="v"/><path d="M33.8 144.8l-1-3.5h-1.7v4l1.3-1.2.7 2.8h1.3l.8-2.8 1.3-1.2v-1.6h-1.7z" class="u"/><path d="M35.2 145.3v1.6h1.3v-4l-1.3 1.2z" class="y"/><path d="M31.1 146.8l1.3.1v-1h-1.3v.9z" fill="#00c12d"/><defs ><path id="L" d="M110.6 98.1H78.9c-.1.7-.6 1.2-1.3 1.2H52c-.7 0-1.2-.5-1.3-1.2H19.1v1.8c0 2.3 1.9 2.4 4.2 2.4h83.2c2.3 0 4.2-.1 4.2-2.4v-1.4c-.1-.1-.1-.3-.1-.4z"/><path id="M" d="M11 142.7c-.8 0-1.4.2-1.8.7-.3.4-.5.8-.5 1.3s.2 1 .5 1.4c.4.5 1 .7 1.8.7s1.3-.2 1.8-.7c.3-.4.5-.8.5-1.4 0-.5-.2-1-.5-1.3-.5-.5-1-.7-1.8-.7zm.6 2.7c-.2.2-.4.3-.6.3-.3 0-.5-.1-.7-.3-.1-.2-.2-.4-.2-.6s.1-.4.2-.6c.2-.2.4-.3.7-.3.2 0 .5.1.6.3.2.2.3.4.3.6s-.1.4-.3.6z"/></defs></svg>