<svg xmlns="http://www.w3.org/2000/svg" xmlns:xlink="http://www.w3.org/1999/xlink" viewBox="0 0 480.1 300"><style><![CDATA[.d{enable-background:new }.e{fill:#eea886}.f{fill:#bbc1c9}.g{fill:#231f20}]]></style><linearGradient id="A" gradientUnits="userSpaceOnUse" x1="-2.82" y1="150" x2="477.18" y2="150"><stop offset=".02" stop-color="#f5f5f5" stop-opacity=".32"/><stop offset=".523" stop-color="#aee1f9" stop-opacity=".5"/><stop offset="1" stop-color="#f5f5f5" stop-opacity=".5"/></linearGradient><path d="M.1 0h480v300H.1z" fill="url(#A)"/><linearGradient id="B" gradientUnits="userSpaceOnUse" x1="8.02" y1="232.571" x2="24.74" y2="232.571"><stop offset="0" stop-color="#e6e7e8"/><stop offset=".22" stop-color="#f0f1f1"/><stop offset=".59" stop-color="#fbfbfc"/><stop offset="1" stop-color="#fff"/></linearGradient><path d="M20.8 230.3a4.58 4.58 0 0 0-5.5-3.3 4.6 4.6 0 0 0-3.3 3.3c-2.2-.3-4.2 1.2-4.5 3.4s1.2 4.2 3.4 4.5c.4.1.8.1 1.1 0h8.8c2.2-.3 3.7-2.3 3.4-4.5a3.83 3.83 0 0 0-3.4-3.4z" opacity=".04" fill="url(#B)" enable-background="new "/><path d="M23.2 286.8h75.3v-54c.1-1.1-.8-2.1-1.9-2.2H23.2c-1.1.1-2 1.1-1.9 2.2v54h1.9z" fill="#808285"/><path d="M98.5 287H21.3c-.1 0-.2-.1-.2-.2v-54c-.1-1.2.8-2.3 2.1-2.4h73.4c1.2.1 2.2 1.2 2.1 2.4v54c0 .1-.1.2-.2.2m-77.1-.4h76.9v-53.8c0-1-.7-1.9-1.8-2H23.2a2.05 2.05 0 0 0-1.8 2v53.8z" class="f"/><path d="M26 236h67.6v45.4H26z" fill="#fff"/><path d="M80.1 251.6l-21.5 19.2-6-5.4L85.4 236h-5.7l-4 3.6-4-3.6h-5.8l6.9 6.2-7.1 6.3-14-12.5h-9.5l-3.7 3.3-3.7-3.3H29l6.5 5.8-7.1 6.3v5.1l8.5-7.6-.8 29.1-7.4 6.6h5.7l15.1-13.5 6 5.4-9 8.1h5.7l6.2-5.5 6.1 5.4-.1.1h5.7l10.6-9.5c1.7 1.7 4 2.7 6.4 2.7 1.4 0 2.8-.6 3.9-1.5l2.5-2.2v-5.1l-5.4 4.8-.1.1c-.3.2-.7.4-1.1.4-1.3-.1-2.5-.7-3.4-1.6l8-7.1 2 1.7v-8.6l-26.2 23.4-6.1-5.4 20.3-18.1 12-.4v-3.6l-13.4.3zM40.4 271l.8-29.1 5.7-5.1L62.8 251l-22.4 20z" fill="#a7a9ac"/><path d="M89 236l4.7 4.1V236zm4.7 45.4v-3l-3.3 3z" fill="#808285"/><path d="M43 242.1l.1 7.8 8.4-7.5-4.6-3.8zm10.6 31.6l-4.3-3.9-4.7 4.2 4.3 3.8zm1.9-35.7l1.6-1.4-.7-.6h-3.1zm1.8 10.2l-5.9 7.3-1.1 4.7 10.2-9.1zm4.3-6.2c.4-.3.4-.9.1-1.3l-.1-.1a1.09 1.09 0 0 0-1.5 0c-.4.3-.4.9-.1 1.3l.1.1a1.09 1.09 0 0 0 1.5 0zm12.3 39.4h12.8l1-.9-6.5-5.7zm-6.4-36.8l3.1-2.7L64 236h-6.1zm-19 8.8c-.6.5-.7 1.3-.2 1.9l.2.2c.7.6 1.7.6 2.4 0 .6-.5.6-1.4.1-2 0-.1-.1-.1-.1-.1-.7-.6-1.7-.6-2.4 0zm5.7-3.6c1.1-.9 1.2-2.5.3-3.6l-.3-.3c-1.3-1.1-3.1-1.1-4.4 0-1.1.9-1.2 2.5-.3 3.6l.3.3c1.3 1.1 3.2 1.1 4.4 0zM43 265.7c.7.6 1.7.6 2.4 0 .6-.5.7-1.3.2-1.9l-.2-.2c-.7-.6-1.7-.6-2.4 0-.6.5-.7 1.4-.2 1.9l.2.2zm32.1-28.4l1.5-1.3h-3zm2.8 7.5l5 4.5 4.4-3.9-5-4.6zm3.4 11.9l-5.1 4.6 4.6 4.2 5.2-4.6zm9.3 22.6l3.1-2.9V273l-5.1 4.5zm-7.7-40l10.8 9.6v-6.5l-7.1-6.3zm-36.1 39.4l-3.7-3.4-6.7 6.1h7.4zm11.9-.6l-3.6 3.3h7.2zm-27.6-6.2a1.73 1.73 0 0 0-.2 2.4c.1.1.1.2.2.2a2.17 2.17 0 0 0 3 0c.7-.6.8-1.7.2-2.5l-.2-.2c-.9-.6-2.2-.6-3 .1zm-1.8 4.2c-.2-.2-.5-.3-.7-.4v2.6c.3-.1.5-.2.7-.4.5-.4.6-1.2.1-1.7 0 0-.1 0-.1-.1zm8.2-39.3c.5.4 1.2.4 1.7 0 .2-.2.4-.5.4-.8h-2.5c0 .3.2.6.4.8z" fill="#d8d8d8"/><path d="M46.6 262.4l.9-11.6-4.4-.2-.4 11.9zm18.2-17.5c.5-.4.5-1.1.1-1.6l-.1-.1c-.5-.5-1.3-.5-1.9 0-.5.4-.5 1.1-.1 1.5 0 .1.1.1.1.1.6.6 1.4.6 1.9.1zm-6 22.2l19.3-17.3L75 247l-19.3 17.3zm.3-27.3c.5-.4.5-1.2.1-1.7l-.1-.1a1.52 1.52 0 0 0-2 0c-.5.4-.6 1.1-.2 1.6 0 .1.1.1.2.2.5.5 1.4.5 2 0zm19.5 27.1l-1.8-1.6-9.8 8.8h3.5zm-50.1-21l4-3.5-2.1-1.9-1.9 1.7zm3.3 16.9l-3.3 3v6.4l6.9-6.1zm-3.3-23.7l1-.8-1-.9zm0 18.1l5.9 5.3.5-13.4-6.4 5.7z" fill="#a5a5a5"/><path d="M68.6 281c-.2 0-.3-.1-.5-.2-.2-.2-.3-.5-.1-.7 0 0 0-.1.1-.1l1.8-1.6c.3-.2.7-.2.9 0s.3.5.1.7c0 0 0 .1-.1.1l-1.8 1.7c-.1.1-.3.2-.4.1zm-1.9 0c-.2 0-.3-.1-.4-.2l-1.9-1.6c-.2-.2-.3-.5-.1-.8l.1-.1c.3-.2.7-.2.9 0l1.8 1.6c.2.2.3.5.1.8l-.1.1c-.1.1-.2.2-.4.2zm5.6-3.2c-.2 0-.3-.1-.5-.2-.2-.2-.3-.5-.1-.8l.1-.1 1.8-1.6c.3-.2.7-.2.9 0s.3.5.1.8l-.1.1-1.8 1.6a.76.76 0 0 1-.4.2zm-9.3 0c-.2 0-.3-.1-.5-.2l-1.9-1.6c-.2-.2-.3-.5-.1-.7 0 0 0-.1.1-.1.3-.2.7-.2.9 0l1.9 1.6c.2.2.3.5.1.8l-.1.1c-.1 0-.3.1-.4.1zm-3.7-3.3c-.2 0-.3-.1-.5-.2l-1.9-1.6c-.2-.2-.3-.5-.1-.8l.1-.1c.3-.2.7-.2.9 0l1.9 1.6c.2.2.3.5.1.8l-.1.1c-.1.2-.3.2-.4.2zm16.6 0c-.2 0-.3-.1-.5-.2-.2-.2-.3-.5-.1-.8l.1-.1 1.8-1.6c.3-.2.7-.2.9 0s.3.5.1.8l-.1.1-1.8 1.6c0 .2-.2.2-.4.2zm9.6-1.5h-.2c-.9-.3-1.7-.8-2.3-1.5-.2-.2-.3-.5-.1-.8l.1-.1c.3-.2.7-.2.9 0 .6.5 1.2.9 1.9 1.2.3.1.5.4.4.7v.1c-.3.3-.5.4-.7.4zm-30-1.7c-.2 0-.3-.1-.5-.2l-1.9-1.6c-.2-.2-.3-.5-.1-.7 0 0 0-.1.1-.1.3-.2.7-.2.9 0l1.9 1.6c.2.2.3.5.1.8l-.1.1s-.2.1-.4.1zm24.1 0c-.2 0-.3-.1-.5-.2-.2-.2-.3-.5-.1-.7 0 0 0-.1.1-.1l1.6-1.4c.3-.2.6-.2.9 0l.3.2a.61.61 0 0 1 0 .8c-.2.2-.4.2-.7.1l-1.2 1c-.1.2-.2.2-.4.3zM51.8 268c-.2 0-.3-.1-.5-.2l-1.9-1.6c-.2-.2-.3-.5-.1-.8l.1-.1c.3-.2.6-.2.9 0l1.9 1.6c.2.2.3.5.1.8l-.1.1c-.1.1-.2.2-.4.2zm-.7-3.3c-.2 0-.3-.1-.5-.2-.2-.2-.3-.5-.1-.8l.1-.1 1.8-1.7c.3-.2.7-.2.9 0s.3.5.1.8l-.1.1-1.8 1.7c-.1.2-.3.2-.4.2zm3.6-3.3c-.2 0-.3-.1-.5-.2-.2-.2-.3-.5-.1-.8l.1-.1 1.8-1.7c.3-.2.7-.2.9 0s.3.5.1.8l-.1.1-1.8 1.7c-.1.1-.2.2-.4.2zm3.6-3.4c-.2 0-.3-.1-.5-.2-.2-.2-.3-.5-.1-.8l.1-.1 1.8-1.7c.3-.2.7-.2.9 0s.3.5.1.7c0 0 0 .1-.1.1l-1.8 1.7c-.1.3-.2.3-.4.3zm3.6-3.3c-.2 0-.3-.1-.5-.2-.2-.2-.3-.5-.1-.7 0 0 0-.1.1-.1l1.8-1.7c.3-.2.6-.2.9 0 .2.2.3.5.1.8l-.1.1-1.8 1.7c-.1 0-.2.1-.4.1zm3.6-3.4c-.2 0-.3-.1-.5-.2v-.1l-1.8-1.5c-.2-.2-.3-.5-.1-.8l.1-.1c.3-.2.7-.2.9 0l1.9 1.6c.1.1.2.2.2.4s-.1.3-.2.4c-.1.3-.3.4-.5.3zm-3.7-3.2c-.2 0-.3-.1-.5-.2l-1.9-1.6c-.2-.2-.3-.5-.1-.8l.1-.1c.3-.2.6-.2.9 0l1.9 1.6c.2.2.3.5.1.8l-.1.1c-.1.2-.2.2-.4.2zm-3.7-3.2c-.2 0-.3-.1-.5-.2l-.7-.6c-.5-.5.3-1.5.8-1l.8.7c.2.2.3.5.1.7 0 0 0 .1-.1.1-.1.2-.3.3-.4.3z" fill="#48dbfb"/><linearGradient id="C" gradientUnits="userSpaceOnUse" x1="86.15" y1="269.18" x2="86.15" y2="314.68"><stop offset="0" stop-color="#f23043"/><stop offset="1" stop-color="#b62432"/></linearGradient><path d="M86.1 265.5c-1.2 0-2.2.9-2.2 2.2 0 1.2 2.3 5.4 2.3 5.4s2.2-4.2 2.2-5.4c-.1-1.2-1.1-2.2-2.3-2.2z" fill="url(#C)"/><path d="M87.5 267.7c0-.8-.6-1.5-1.4-1.6-.8 0-1.5.6-1.6 1.4 0 .8.6 1.5 1.4 1.6h.1c.8.1 1.5-.6 1.5-1.4z" fill="#f9f9d0"/><path d="M56.8 236.3c-1.3-.1-2.4.9-2.5 2.2 0 1.2 2.5 5.6 2.5 5.6s2.5-4.3 2.5-5.6c-.1-1.3-1.2-2.3-2.5-2.2z" fill="#1e9afe"/><path d="M58.4 238.5a1.77 1.77 0 0 0-1.5-1.9 1.77 1.77 0 0 0-1.9 1.5 1.77 1.77 0 0 0 1.5 1.9h.2c.9.1 1.7-.6 1.7-1.5z" fill="#f9f9d0"/><use xlink:href="#H" class="f"/><use xlink:href="#H" fill="none" stroke="#808285" stroke-width=".62" stroke-miterlimit="10"/><path d="M46.1 287.1c.1.6.7.9 1.2.9h25.1c.6 0 1.1-.3 1.2-.9H46.1z" class="f"/><path d="M46.1 287.1c.1.6.7.9 1.2.9h25.1c.6 0 1.1-.3 1.2-.9H46.1z" fill="none" stroke="#939598" stroke-width=".62" stroke-miterlimit="22.93"/><linearGradient id="D" gradientUnits="userSpaceOnUse" x1="88.96" y1="209.533" x2="61.604" y2="209.533"><stop offset="0" stop-color="#e6e7e8"/><stop offset=".16" stop-color="#edeeee"/><stop offset=".61" stop-color="#fafbfb"/><stop offset="1" stop-color="#fff"/></linearGradient><path d="M68.1 205.8c1-4 5-6.3 9-5.3 2.6.7 4.7 2.7 5.3 5.3h.1c2.6 0 4.9 1.5 5.9 3.9 1.4 3.3-.1 7.1-3.4 8.6-.8.4-1.7.5-2.6.5H68.1a6.49 6.49 0 0 1-6.5-6.5c0-.7.1-1.5.4-2.2.8-2.6 3.3-4.3 6.1-4.3z" opacity=".26" fill="url(#D)" enable-background="new "/><path d="M14.6 240.4c-8 0-14.6 6.5-14.6 14.5s14.6 36.2 14.6 36.2S29.1 263 29.1 255s-6.5-14.6-14.5-14.6zm0 24.1c-5.4 0-9.7-4.3-9.7-9.7s4.3-9.7 9.7-9.7 9.7 4.3 9.7 9.7c-.1 5.4-4.4 9.7-9.7 9.7z" fill="#db5d5d"/><linearGradient id="E" gradientUnits="userSpaceOnUse" x1="16.051" y1="242.061" x2="26.191" y2="279.921"><stop offset="0" stop-color="#afafaf"/><stop offset=".4" stop-color="#ccc"/><stop offset="1" stop-color="#fff"/></linearGradient><path d="M14.6 240.5c-3 0-6 .9-8.4 2.7.6 1.6 1.8 2.9 3.4 3.4a9.66 9.66 0 0 1 5-1.4c5.4 0 9.7 4.3 9.7 9.7 0 2.7-1.1 5.3-3.1 7.1-.1 1.3-.4 2.7-.7 4-1.3 5.5 0 7.7 2 8.8 3.4-7.7 6.7-16 6.7-19.8-.1-8-6.6-14.5-14.6-14.5z" opacity=".26" fill="url(#E)" enable-background="new "/><linearGradient id="F" gradientUnits="userSpaceOnUse" x1="8.05" y1="240.15" x2="8.05" y2="303.66"><stop offset="0" stop-color="#fff"/><stop offset="1" stop-color="#828282"/></linearGradient><path d="M16.1 240.6c-.5-.1-1-.1-1.5-.1C6.5 240.5 0 247 0 255s14.6 36.2 14.6 36.2.6-1.1 1.5-3c-3.7-7.5-13-26.8-13-33.2 0-7.4 5.6-13.6 13-14.4z" opacity=".58" fill="url(#F)" enable-background="new "/><g fill="#414042"><path d="M43.5 281.5c-.1.7-4 3.4-4.8 4-.6.4-1.4.8-2.1 1C34.5 287 21 291 21 291c0-.1-.1-.3-.1-.4-.5.2-1 .3-1.3.4-.5.2-4.5.3-5.3.4s-2.4.4-3.1-.2.4-2 1.3-2.3c1.6-.3 3.2-.5 4.8-.5.6-.1 1.2-.2 1.7-.2.4 0 .9-.2 1.3-.3v-.4l3.5-1-.6-6.2s1.5-5.8 7.6-1.4l1.8.5h.2c.9-.1 4.9-1.3 6.4-1.3s2.1-.1 2.6.2c1 .9 1.5 2 1.7 3.2z"/><path d="M37.3 291.3c-.7.6-2.3.4-3.1.2s-4.8-.3-5.3-.4c-.7-.2-1.4-.4-2.1-.8l-.4-.1-1 .7-13.8-4.4c-.7-.2-1.4-.5-1.9-1-.7-.6-4.7-3.3-4.8-4 .2-1.2.8-2.3 1.6-3.1.6-.3 1.1-.2 2.6-.2s6.1 1.4 6.6 1.3c.4-.1.7-.3 1.1-.5l1-.6c6.7-3 7.4 1.9 7.4 1.9l-.4 6 1.3.6 3.3.9-.4.3c.1.1.2.1.4.1.6 0 1.2 0 1.7.2 1.6 0 3.2.2 4.8.5 1 .4 2 1.7 1.4 2.4z"/></g><path d="M16.8 279c1.5.7 2.9 1.4 4.3 2.3l-5.4-1.8c.4-.1.8-.3 1.1-.5z" fill="#5478b3"/><path d="M32.9 279.5c-2.2.5-4.3 1.1-6.4 1.9 0 0 2.8-2.1 4.3-2.4l1.9.6.2-.1z" class="g"/><path d="M37.3 291.3c-.7.6-2.3.4-3.1.2s-4.8-.3-5.3-.4l-.5-.1c-.5-.1-1.1-.4-1.6-.7l-.4-.1 2.5-1.8h.1c.1.1.2.1.4.1.6 0 1.2 0 1.7.2 1.6 0 3.2.2 4.8.5 1 .1 2 1.4 1.4 2.1z" class="e"/><path d="M37.3 291.3c-.7.6-2.3.4-3.1.2s-4.8-.3-5.3-.4l-.5-.1c.7-.7.9-1.7.6-2.6h.1c.1.1.2.1.4.1.6 0 1.2 0 1.7.2 1.6 0 3.2.2 4.8.5.9.1 1.9 1.4 1.3 2.1z" fill="#f1f2f2"/><path d="M18.2 280.4s-.1 0 0 0z" fill="#e55353"/><path d="M36.2 273.1c-1.4-2.1-2.6-4.3-3.7-6.6-.6-1.5-1.9-2.7-3.5-3.3l-1.5-.5-2.2-.7h-3.6l-2.6.9-3 1.1c-.9.5-2.4 3.7-2.8 4.1-1.3 2.1-2.3 4.2-3.1 6.5-.3 1.3 7.6 5.2 7.8 5.7l1.4-1.4-.9-.6H27c.2.2 1.7 1.5 1.7 1.5 1.9-.8 3.7-1.9 5.3-3.2 2.6-2.4 2.5-3 2.2-3.5zm-20.7 3c-.8-.9-1.9-1.5-1.6-1.9s2.6-4.4 2.6-4.4c.6 1.3 1.1 2.6 1.5 3.9.3.8.3 1.6.2 2.4-.2.6-.3 1.2-.3 1.8-.9-.6-1.6-1.2-2.4-1.8zm16.1-.5c-.8.7-1.7 1.2-2.6 1.7l-.2-2.4c0-1.1.2-2.2.6-3.2.3-.9.5-1.7.6-2.6l3.2 4.1c.4.4-.5 1.2-1.6 2.4z" fill="#4a98d8"/><g class="e"><path d="M24.1 252s2.8.4 2.4 4.9c-.4 4.4-3 4.1-3.1 4.1s-2.5.1-2.7-5.4c-.1 0-.2-4 3.4-3.6z"/><path d="M26.5 255.6s.3-.3.4 0c-.1.7-.2 1.3-.4 1.9 0 0-.1.1-.1 0-.1-.6 0-1.2.1-1.9zm-5.8 0s-.3-.3-.4 0c0 .7.2 1.3.4 1.9l.1.1c0-.7 0-1.4-.1-2z"/></g><path d="M26.5 256.3l-.4.5c0-.5 0-.9-.1-1.4-.1-.2-.2-.8-.2-.9-1.5-.5-3.1-.5-4.5.2 0 0 .1.9-.1.9s-.1 1.4-.1 1.4l-.3-.4-.4-3.8c.1-.4.5-2.5 4.9-1.2 0 0 1.4-.3 1.6.6s-.4 4.1-.4 4.1z" fill="#434343"/><path d="M19.8 284.8s-4.3-2.6-6.3-3c-.9-.1-1.7-.5-2.4-1.1 1.7 0 3.3.5 4.8 1.4l3.9 2.7zm3.9 1.8s7.6-4 10.7-4.8c.9-.2 1.7-.6 2.5-1.1 0 0-4.7.5-7.5 2.2-1.5.8-5.7 3.7-5.7 3.7z" class="g"/><path d="M20.9 290.6c-.5.2-1 .3-1.3.4-.5.2-4.5.3-5.3.4s-2.4.4-3.1-.2.4-2 1.3-2.3c1.6-.3 3.2-.5 4.8-.5l1.7-.2c.4 0 .9-.2 1.3-.3l.6 2.7z" class="e"/><path d="M23.7 290.3l7.5-2.3-1.5-.5s-6 2.3-6 2.8z" fill="#414042"/><path d="M23.7 290.3l3.5-1.1-2.4 1.4z" class="g"/><path d="M21.3 281.3l-.2-.1.2.1z" fill="#525252"/><path d="M19.6 291c-.5.2-4.5.3-5.3.4s-2.4.4-3.1-.2.4-2 1.3-2.3c1.6-.3 3.2-.5 4.8-.5l1.7-.2c-.5 1-.3 2.2.6 2.8z" fill="#f1f2f2"/><path d="M17.1 280.7l-1.1-6.5 14.8-.3-1 6.4c-2.2.8-4.3 1.7-6.3 2.7 0 0-4-1.7-6.4-2.3z" fill="#d6d6d6"/><path d="M25.8 261.9l-.4-.2c-.1-.7-.1-1.4 0-2.1 0 0-3.6-.9-3.5-.2 0 .8-.1 1.6-.3 2.4l-1.9.9s2 5.3 4.3 4.6 3.1-4.8 3.1-4.8l-1.3-.6z" class="e"/><path d="M21.9 260.2c.4.5 1 .7 1.6.8.7 0 1.4-.3 1.8-.8-.2.8-1 1.3-1.8 1.3s-1.5-.5-1.6-1.3z" fill="#a77860"/><defs ><path id="H" d="M105.6 287.1H74c-.1.7-.6 1.2-1.3 1.2H47.1c-.7 0-1.2-.5-1.3-1.2H14.2c0 .1-.1.3-.1.5v1.4c0 2.3 1.9 2.4 4.2 2.4h83.2c2.3 0 4.2-.1 4.2-2.4v-1.4c0-.2-.1-.4-.1-.5z"/></defs></svg>